<mxfile host="app.diagrams.net" modified="2024-01-09T09:20:30.026Z" agent="Mozilla/5.0 (Macintosh; Intel Mac OS X 10_15_7) AppleWebKit/537.36 (KHTML, like Gecko) Chrome/120.0.0.0 Safari/537.36" etag="Uhr7QRH2YGjYWcgOANt_" version="22.1.16" type="github" pages="3">
  <diagram id="C5RBs43oDa-KdzZeNtuy" name="Page-1">
    <mxGraphModel dx="2069" dy="789" grid="1" gridSize="10" guides="1" tooltips="1" connect="1" arrows="1" fold="1" page="1" pageScale="1" pageWidth="827" pageHeight="1169" math="0" shadow="0">
      <root>
        <mxCell id="WIyWlLk6GJQsqaUBKTNV-0" />
        <mxCell id="WIyWlLk6GJQsqaUBKTNV-1" parent="WIyWlLk6GJQsqaUBKTNV-0" />
        <UserObject label="" plantUmlData="{&quot;data&quot;:&quot;@startuml\n\nclass Config {\n    -conf_client\n    -base_work_dir: str\n    +get_cos_config(): tuple\n    +get_hive_config(): tuple\n    +get_redis_config(): tuple\n    +get_postgres_config(): tuple\n    +get_sqlite_config(): str\n    +get_kafka_config(): tuple\n}\n\nclass RedisClient {\n    -client\n    +set(key: str, value: str): void\n    +get(key: str): str\n}\n\nclass CosClient {\n    -client\n    -bucket: str\n    +upload_file(local_file: str, cos_path: str): void\n    +download_file(cos_path: str, local_file: str): void\n}\n\nclass HiveClient {\n    -conn\n    +execute_query(query: str): list\n    +close_connection(): void\n}\n\nclass PostgresClient {\n    -conn\n    +execute_query(query: str): list\n    +close_connection(): void\n}\n\nclass SqliteClient {\n    -conn\n    +execute_query(query: str): list\n    +close_connection(): void\n}\n\nclass KafkaClient {\n    -producer\n    -consumer\n    +send_message(topic: str, message: str): void\n    +consume_messages(topic: str): generator\n}\n\nabstract class BaseETL {\n    -id: int\n    -unimap_version: str\n    -step_name: str\n    -step_version: str\n    -source_cos_path: str\n    -config: Config\n    -session: PostgresClient\n    -work_path: str\n    +init_data(): bool\n    +process(): bool\n}\n\nclass Lane4kETL {\n    -pod_dest_dir: str\n    -source_dir: str\n    +init_data(): bool\n    +process(): bool\n}\n\nclass Object3dPoiETL {\n    -pod_dest_path: str\n    -cos_dest_path: str\n    +init_data(): bool\n    +process(): bool\n}\n\nclass ReleaseETL {\n    -pod_dest_dir: str\n    -pod_source_data_dir: str\n    -cos_dest_path: str\n    -jingyi_cos_dir: str\n    -latest_version: str\n    +init_data(): bool\n    +process(): bool\n}\n\nclass IntersionETL {\n    +init_data(): bool\n    +process(): bool\n}\n\nclass Intersion4kETL {\n    +init_data(): bool\n    +process(): bool\n}\n\nclass OriginETL {\n    +init_data(): bool\n    +process(): bool\n}\n\nclass BgpoiETL {\n    +init_data(): bool\n    +process(): bool\n}\n\nclass RouteETL {\n    +init_data(): bool\n    +process(): bool\n}\n\nclass TaskMonitor {\n    -task_id: int\n    -task_type: str\n    -status: str\n    +monitor_task(): void\n    +is_task_running(): bool\n    +is_task_completed(): bool\n}\n\nclass DataLifecycleManager {\n    -task_id: int\n    -expiration_date: datetime\n    +is_data_expired(): bool\n    +delete_expired_data(): void\n}\n\nabstract class DataConverter {\n    -version: str\n    -step_name: str\n    -config: Config\n    +convert(): void\n}\n\nclass SqliteDataConverter {\n    +convert(): void\n}\n\nclass ShapefileDataConverter {\n    +convert(): void\n}\n\nclass GeojsonDataConverter {\n    +convert(): void\n}\n\nclass ApiService {\n    +query_latest_version(request_info: dict): tuple\n    +query_geometry_box(request_info: dict): tuple\n}\n\nBaseETL &lt;|-- Lane4kETL\nBaseETL &lt;|-- Object3dPoiETL\nBaseETL &lt;|-- ReleaseETL\nBaseETL &lt;|-- IntersionETL\nBaseETL &lt;|-- Intersion4kETL\nBaseETL &lt;|-- OriginETL\nBaseETL &lt;|-- BgpoiETL\nBaseETL &lt;|-- RouteETL\n\nDataConverter &lt;|-- SqliteDataConverter\nDataConverter &lt;|-- ShapefileDataConverter\nDataConverter &lt;|-- GeojsonDataConverter\n\nConfig \&quot;1\&quot; -- \&quot;1\&quot; RedisClient\nConfig \&quot;1\&quot; -- \&quot;1\&quot; CosClient\nConfig \&quot;1\&quot; -- \&quot;1\&quot; HiveClient\nConfig \&quot;1\&quot; -- \&quot;1\&quot; PostgresClient\nConfig \&quot;1\&quot; -- \&quot;1\&quot; SqliteClient\nConfig \&quot;1\&quot; -- \&quot;1\&quot; KafkaClient\nConfig \&quot;1\&quot; -- \&quot;1\&quot; BaseETL\nConfig \&quot;1\&quot; -- \&quot;1\&quot; DataConverter\n\n@enduml&quot;,&quot;format&quot;:&quot;svg&quot;}" id="LaR2FRBq2pz5VUSOWjaC-0">
          <mxCell style="shape=image;noLabel=1;verticalAlign=top;aspect=fixed;imageAspect=0;image=data:image/svg+xml,PD94bWwgdmVyc2lvbj0iMS4wIiBlbmNvZGluZz0idXMtYXNjaWkiIHN0YW5kYWxvbmU9Im5vIj8+PHN2ZyB4bWxucz0iaHR0cDovL3d3dy53My5vcmcvMjAwMC9zdmciIHhtbG5zOnhsaW5rPSJodHRwOi8vd3d3LnczLm9yZy8xOTk5L3hsaW5rIiBjb250ZW50U3R5bGVUeXBlPSJ0ZXh0L2NzcyIgaGVpZ2h0PSI2NTJweCIgcHJlc2VydmVBc3BlY3RSYXRpbz0ibm9uZSIgc3R5bGU9IndpZHRoOjM2NjJweDtoZWlnaHQ6NjUycHg7YmFja2dyb3VuZDojRkZGRkZGOyIgdmVyc2lvbj0iMS4xIiB2aWV3Qm94PSIwIDAgMzY2MiA2NTIiIHdpZHRoPSIzNjYycHgiIHpvb21BbmRQYW49Im1hZ25pZnkiPjxkZWZzLz48Zz48IS0tY2xhc3MgQ29uZmlnLS0+PGcgaWQ9ImVsZW1fQ29uZmlnIj48cmVjdCBjb2RlTGluZT0iMSIgZmlsbD0iI0YxRjFGMSIgaGVpZ2h0PSIxNjcuODc1IiBpZD0iQ29uZmlnIiByeD0iMi41IiByeT0iMi41IiBzdHlsZT0ic3Ryb2tlOiMxODE4MTg7c3Ryb2tlLXdpZHRoOjAuNTsiIHdpZHRoPSIyMjQiIHg9IjE1MzEuNSIgeT0iNyIvPjxlbGxpcHNlIGN4PSIxNjE4LjI1IiBjeT0iMjMiIGZpbGw9IiNBREQxQjIiIHJ4PSIxMSIgcnk9IjExIiBzdHlsZT0ic3Ryb2tlOiMxODE4MTg7c3Ryb2tlLXdpZHRoOjEuMDsiLz48cGF0aCBkPSJNMTYxNS44NzUsMjcuMjUgTDE2MTUuODc1LDI5IEwxNjIwLjgxMjUsMjkgTDE2MjAuODEyNSwyNy4yNSBMMTYxNS44NzUsMjcuMjUgWiBNMTYxNi41NjI1LDI3LjkzNzUgUTE2MTYuNTYyNSwyNy45Mzc1IDE2MTYuNTYyNSwxOC43NSBMMTYxNC44MTI1LDE4Ljc1IFExNjE0LjgxMjUsMTguNzUgMTYxNC44MTI1LDI3LjkzNzUgTDE2MTYuNTYyNSwyNy45Mzc1IFogTTE2MjAuMTI1LDI3LjkzNzUgTDE2MjEuODc1LDI3LjkzNzUgUTE2MjEuODc1LDI3LjkzNzUgMTYyMS44NzUsMjUuMTI1IEwxNjIwLjEyNSwyNS4xMjUgUTE2MjAuMTI1LDI1LjEyNSAxNjIwLjEyNSwyNy45Mzc1IFogTTE2MjAuMTI1LDE4Ljc1IFExNjIwLjEyNSwxOC43NSAxNjIwLjEyNSwyMS41NjI1IEwxNjIxLjg3NSwyMS41NjI1IFExNjIxLjg3NSwyMS41NjI1IDE2MjEuODc1LDE4Ljc1IEwxNjIwLjEyNSwxOC43NSBaIE0xNjE1Ljg3NSwxOS40Mzc1IEwxNjIwLjgxMjUsMTkuNDM3NSBMMTYyMC44MTI1LDE3LjY4NzUgTDE2MTUuODc1LDE3LjY4NzUgTDE2MTUuODc1LDE5LjQzNzUgWiAiIGZpbGw9IiMwMDAwMDAiLz48dGV4dCBmaWxsPSIjMDAwMDAwIiBmb250LWZhbWlseT0ic2Fucy1zZXJpZiIgZm9udC1zaXplPSIxNCIgbGVuZ3RoQWRqdXN0PSJzcGFjaW5nIiB0ZXh0TGVuZ3RoPSI0MiIgeD0iMTYzOC43NSIgeT0iMjguNzQyMiI+Q29uZmlnPC90ZXh0PjxsaW5lIHN0eWxlPSJzdHJva2U6IzE4MTgxODtzdHJva2Utd2lkdGg6MC41OyIgeDE9IjE1MzIuNSIgeDI9IjE3NTQuNSIgeTE9IjM5IiB5Mj0iMzkiLz48cmVjdCBmaWxsPSJub25lIiBoZWlnaHQ9IjYiIHN0eWxlPSJzdHJva2U6I0M4MjkzMDtzdHJva2Utd2lkdGg6MS4wOyIgd2lkdGg9IjYiIHg9IjE1MzkuNSIgeT0iNDguOTkyMiIvPjx0ZXh0IGZpbGw9IiMwMDAwMDAiIGZvbnQtZmFtaWx5PSJzYW5zLXNlcmlmIiBmb250LXNpemU9IjE0IiBsZW5ndGhBZGp1c3Q9InNwYWNpbmciIHRleHRMZW5ndGg9Ijc3IiB4PSIxNTUxLjUiIHk9IjU2LjIzNDQiPmNvbmZfY2xpZW50PC90ZXh0PjxyZWN0IGZpbGw9Im5vbmUiIGhlaWdodD0iNiIgc3R5bGU9InN0cm9rZTojQzgyOTMwO3N0cm9rZS13aWR0aDoxLjA7IiB3aWR0aD0iNiIgeD0iMTUzOS41IiB5PSI2My45NzY2Ii8+PHRleHQgZmlsbD0iIzAwMDAwMCIgZm9udC1mYW1pbHk9InNhbnMtc2VyaWYiIGZvbnQtc2l6ZT0iMTQiIGxlbmd0aEFkanVzdD0ic3BhY2luZyIgdGV4dExlbmd0aD0iMTI3IiB4PSIxNTUxLjUiIHk9IjcxLjIxODgiPmJhc2Vfd29ya19kaXI6IHN0cjwvdGV4dD48bGluZSBzdHlsZT0ic3Ryb2tlOiMxODE4MTg7c3Ryb2tlLXdpZHRoOjAuNTsiIHgxPSIxNTMyLjUiIHgyPSIxNzU0LjUiIHkxPSI3Ni45Njg4IiB5Mj0iNzYuOTY4OCIvPjxlbGxpcHNlIGN4PSIxNTQyLjUiIGN5PSI4OS45NjA5IiBmaWxsPSIjODRCRTg0IiByeD0iMyIgcnk9IjMiIHN0eWxlPSJzdHJva2U6IzAzODA0ODtzdHJva2Utd2lkdGg6MS4wOyIvPjx0ZXh0IGZpbGw9IiMwMDAwMDAiIGZvbnQtZmFtaWx5PSJzYW5zLXNlcmlmIiBmb250LXNpemU9IjE0IiBsZW5ndGhBZGp1c3Q9InNwYWNpbmciIHRleHRMZW5ndGg9IjE2MyIgeD0iMTU1MS41IiB5PSI5NC4yMDMxIj5nZXRfY29zX2NvbmZpZygpOiB0dXBsZTwvdGV4dD48ZWxsaXBzZSBjeD0iMTU0Mi41IiBjeT0iMTA0Ljk0NTMiIGZpbGw9IiM4NEJFODQiIHJ4PSIzIiByeT0iMyIgc3R5bGU9InN0cm9rZTojMDM4MDQ4O3N0cm9rZS13aWR0aDoxLjA7Ii8+PHRleHQgZmlsbD0iIzAwMDAwMCIgZm9udC1mYW1pbHk9InNhbnMtc2VyaWYiIGZvbnQtc2l6ZT0iMTQiIGxlbmd0aEFkanVzdD0ic3BhY2luZyIgdGV4dExlbmd0aD0iMTcwIiB4PSIxNTUxLjUiIHk9IjEwOS4xODc1Ij5nZXRfaGl2ZV9jb25maWcoKTogdHVwbGU8L3RleHQ+PGVsbGlwc2UgY3g9IjE1NDIuNSIgY3k9IjExOS45Mjk3IiBmaWxsPSIjODRCRTg0IiByeD0iMyIgcnk9IjMiIHN0eWxlPSJzdHJva2U6IzAzODA0ODtzdHJva2Utd2lkdGg6MS4wOyIvPjx0ZXh0IGZpbGw9IiMwMDAwMDAiIGZvbnQtZmFtaWx5PSJzYW5zLXNlcmlmIiBmb250LXNpemU9IjE0IiBsZW5ndGhBZGp1c3Q9InNwYWNpbmciIHRleHRMZW5ndGg9IjE3NyIgeD0iMTU1MS41IiB5PSIxMjQuMTcxOSI+Z2V0X3JlZGlzX2NvbmZpZygpOiB0dXBsZTwvdGV4dD48ZWxsaXBzZSBjeD0iMTU0Mi41IiBjeT0iMTM0LjkxNDEiIGZpbGw9IiM4NEJFODQiIHJ4PSIzIiByeT0iMyIgc3R5bGU9InN0cm9rZTojMDM4MDQ4O3N0cm9rZS13aWR0aDoxLjA7Ii8+PHRleHQgZmlsbD0iIzAwMDAwMCIgZm9udC1mYW1pbHk9InNhbnMtc2VyaWYiIGZvbnQtc2l6ZT0iMTQiIGxlbmd0aEFkanVzdD0ic3BhY2luZyIgdGV4dExlbmd0aD0iMTk4IiB4PSIxNTUxLjUiIHk9IjEzOS4xNTYzIj5nZXRfcG9zdGdyZXNfY29uZmlnKCk6IHR1cGxlPC90ZXh0PjxlbGxpcHNlIGN4PSIxNTQyLjUiIGN5PSIxNDkuODk4NCIgZmlsbD0iIzg0QkU4NCIgcng9IjMiIHJ5PSIzIiBzdHlsZT0ic3Ryb2tlOiMwMzgwNDg7c3Ryb2tlLXdpZHRoOjEuMDsiLz48dGV4dCBmaWxsPSIjMDAwMDAwIiBmb250LWZhbWlseT0ic2Fucy1zZXJpZiIgZm9udC1zaXplPSIxNCIgbGVuZ3RoQWRqdXN0PSJzcGFjaW5nIiB0ZXh0TGVuZ3RoPSIxNzAiIHg9IjE1NTEuNSIgeT0iMTU0LjE0MDYiPmdldF9zcWxpdGVfY29uZmlnKCk6IHN0cjwvdGV4dD48ZWxsaXBzZSBjeD0iMTU0Mi41IiBjeT0iMTY0Ljg4MjgiIGZpbGw9IiM4NEJFODQiIHJ4PSIzIiByeT0iMyIgc3R5bGU9InN0cm9rZTojMDM4MDQ4O3N0cm9rZS13aWR0aDoxLjA7Ii8+PHRleHQgZmlsbD0iIzAwMDAwMCIgZm9udC1mYW1pbHk9InNhbnMtc2VyaWYiIGZvbnQtc2l6ZT0iMTQiIGxlbmd0aEFkanVzdD0ic3BhY2luZyIgdGV4dExlbmd0aD0iMTc3IiB4PSIxNTUxLjUiIHk9IjE2OS4xMjUiPmdldF9rYWZrYV9jb25maWcoKTogdHVwbGU8L3RleHQ+PC9nPjwhLS1jbGFzcyBSZWRpc0NsaWVudC0tPjxnIGlkPSJlbGVtX1JlZGlzQ2xpZW50Ij48cmVjdCBjb2RlTGluZT0iMTIiIGZpbGw9IiNGMUYxRjEiIGhlaWdodD0iOTIuOTUzMSIgaWQ9IlJlZGlzQ2xpZW50IiByeD0iMi41IiByeT0iMi41IiBzdHlsZT0ic3Ryb2tlOiMxODE4MTg7c3Ryb2tlLXdpZHRoOjAuNTsiIHdpZHRoPSIyNDUiIHg9IjM5OSIgeT0iMjg3LjUiLz48ZWxsaXBzZSBjeD0iNDc4Ljc1IiBjeT0iMzAzLjUiIGZpbGw9IiNBREQxQjIiIHJ4PSIxMSIgcnk9IjExIiBzdHlsZT0ic3Ryb2tlOiMxODE4MTg7c3Ryb2tlLXdpZHRoOjEuMDsiLz48cGF0aCBkPSJNNDc2LjM3NSwzMDcuNzUgTDQ3Ni4zNzUsMzA5LjUgTDQ4MS4zMTI1LDMwOS41IEw0ODEuMzEyNSwzMDcuNzUgTDQ3Ni4zNzUsMzA3Ljc1IFogTTQ3Ny4wNjI1LDMwOC40Mzc1IFE0NzcuMDYyNSwzMDguNDM3NSA0NzcuMDYyNSwyOTkuMjUgTDQ3NS4zMTI1LDI5OS4yNSBRNDc1LjMxMjUsMjk5LjI1IDQ3NS4zMTI1LDMwOC40Mzc1IEw0NzcuMDYyNSwzMDguNDM3NSBaIE00ODAuNjI1LDMwOC40Mzc1IEw0ODIuMzc1LDMwOC40Mzc1IFE0ODIuMzc1LDMwOC40Mzc1IDQ4Mi4zNzUsMzA1LjYyNSBMNDgwLjYyNSwzMDUuNjI1IFE0ODAuNjI1LDMwNS42MjUgNDgwLjYyNSwzMDguNDM3NSBaIE00ODAuNjI1LDI5OS4yNSBRNDgwLjYyNSwyOTkuMjUgNDgwLjYyNSwzMDIuMDYyNSBMNDgyLjM3NSwzMDIuMDYyNSBRNDgyLjM3NSwzMDIuMDYyNSA0ODIuMzc1LDI5OS4yNSBMNDgwLjYyNSwyOTkuMjUgWiBNNDc2LjM3NSwyOTkuOTM3NSBMNDgxLjMxMjUsMjk5LjkzNzUgTDQ4MS4zMTI1LDI5OC4xODc1IEw0NzYuMzc1LDI5OC4xODc1IEw0NzYuMzc1LDI5OS45Mzc1IFogIiBmaWxsPSIjMDAwMDAwIi8+PHRleHQgZmlsbD0iIzAwMDAwMCIgZm9udC1mYW1pbHk9InNhbnMtc2VyaWYiIGZvbnQtc2l6ZT0iMTQiIGxlbmd0aEFkanVzdD0ic3BhY2luZyIgdGV4dExlbmd0aD0iNzciIHg9IjQ5OS4yNSIgeT0iMzA5LjI0MjIiPlJlZGlzQ2xpZW50PC90ZXh0PjxsaW5lIHN0eWxlPSJzdHJva2U6IzE4MTgxODtzdHJva2Utd2lkdGg6MC41OyIgeDE9IjQwMCIgeDI9IjY0MyIgeTE9IjMxOS41IiB5Mj0iMzE5LjUiLz48cmVjdCBmaWxsPSJub25lIiBoZWlnaHQ9IjYiIHN0eWxlPSJzdHJva2U6I0M4MjkzMDtzdHJva2Utd2lkdGg6MS4wOyIgd2lkdGg9IjYiIHg9IjQwNyIgeT0iMzI5LjQ5MjIiLz48dGV4dCBmaWxsPSIjMDAwMDAwIiBmb250LWZhbWlseT0ic2Fucy1zZXJpZiIgZm9udC1zaXplPSIxNCIgbGVuZ3RoQWRqdXN0PSJzcGFjaW5nIiB0ZXh0TGVuZ3RoPSI0MiIgeD0iNDE5IiB5PSIzMzYuNzM0NCI+Y2xpZW50PC90ZXh0PjxsaW5lIHN0eWxlPSJzdHJva2U6IzE4MTgxODtzdHJva2Utd2lkdGg6MC41OyIgeDE9IjQwMCIgeDI9IjY0MyIgeTE9IjM0Mi40ODQ0IiB5Mj0iMzQyLjQ4NDQiLz48ZWxsaXBzZSBjeD0iNDEwIiBjeT0iMzU1LjQ3NjYiIGZpbGw9IiM4NEJFODQiIHJ4PSIzIiByeT0iMyIgc3R5bGU9InN0cm9rZTojMDM4MDQ4O3N0cm9rZS13aWR0aDoxLjA7Ii8+PHRleHQgZmlsbD0iIzAwMDAwMCIgZm9udC1mYW1pbHk9InNhbnMtc2VyaWYiIGZvbnQtc2l6ZT0iMTQiIGxlbmd0aEFkanVzdD0ic3BhY2luZyIgdGV4dExlbmd0aD0iMjE5IiB4PSI0MTkiIHk9IjM1OS43MTg4Ij5zZXQoa2V5OiBzdHIsIHZhbHVlOiBzdHIpOiB2b2lkPC90ZXh0PjxlbGxpcHNlIGN4PSI0MTAiIGN5PSIzNzAuNDYwOSIgZmlsbD0iIzg0QkU4NCIgcng9IjMiIHJ5PSIzIiBzdHlsZT0ic3Ryb2tlOiMwMzgwNDg7c3Ryb2tlLXdpZHRoOjEuMDsiLz48dGV4dCBmaWxsPSIjMDAwMDAwIiBmb250LWZhbWlseT0ic2Fucy1zZXJpZiIgZm9udC1zaXplPSIxNCIgbGVuZ3RoQWRqdXN0PSJzcGFjaW5nIiB0ZXh0TGVuZ3RoPSIxMjgiIHg9IjQxOSIgeT0iMzc0LjcwMzEiPmdldChrZXk6IHN0cik6IHN0cjwvdGV4dD48L2c+PCEtLWNsYXNzIENvc0NsaWVudC0tPjxnIGlkPSJlbGVtX0Nvc0NsaWVudCI+PHJlY3QgY29kZUxpbmU9IjE4IiBmaWxsPSIjRjFGMUYxIiBoZWlnaHQ9IjEwNy45Mzc1IiBpZD0iQ29zQ2xpZW50IiByeD0iMi41IiByeT0iMi41IiBzdHlsZT0ic3Ryb2tlOiMxODE4MTg7c3Ryb2tlLXdpZHRoOjAuNTsiIHdpZHRoPSIzODYiIHg9IjY3OS41IiB5PSIyODAiLz48ZWxsaXBzZSBjeD0iODM2Ljc1IiBjeT0iMjk2IiBmaWxsPSIjQUREMUIyIiByeD0iMTEiIHJ5PSIxMSIgc3R5bGU9InN0cm9rZTojMTgxODE4O3N0cm9rZS13aWR0aDoxLjA7Ii8+PHBhdGggZD0iTTgzNC4zNzUsMzAwLjI1IEw4MzQuMzc1LDMwMiBMODM5LjMxMjUsMzAyIEw4MzkuMzEyNSwzMDAuMjUgTDgzNC4zNzUsMzAwLjI1IFogTTgzNS4wNjI1LDMwMC45Mzc1IFE4MzUuMDYyNSwzMDAuOTM3NSA4MzUuMDYyNSwyOTEuNzUgTDgzMy4zMTI1LDI5MS43NSBRODMzLjMxMjUsMjkxLjc1IDgzMy4zMTI1LDMwMC45Mzc1IEw4MzUuMDYyNSwzMDAuOTM3NSBaIE04MzguNjI1LDMwMC45Mzc1IEw4NDAuMzc1LDMwMC45Mzc1IFE4NDAuMzc1LDMwMC45Mzc1IDg0MC4zNzUsMjk4LjEyNSBMODM4LjYyNSwyOTguMTI1IFE4MzguNjI1LDI5OC4xMjUgODM4LjYyNSwzMDAuOTM3NSBaIE04MzguNjI1LDI5MS43NSBRODM4LjYyNSwyOTEuNzUgODM4LjYyNSwyOTQuNTYyNSBMODQwLjM3NSwyOTQuNTYyNSBRODQwLjM3NSwyOTQuNTYyNSA4NDAuMzc1LDI5MS43NSBMODM4LjYyNSwyOTEuNzUgWiBNODM0LjM3NSwyOTIuNDM3NSBMODM5LjMxMjUsMjkyLjQzNzUgTDgzOS4zMTI1LDI5MC42ODc1IEw4MzQuMzc1LDI5MC42ODc1IEw4MzQuMzc1LDI5Mi40Mzc1IFogIiBmaWxsPSIjMDAwMDAwIi8+PHRleHQgZmlsbD0iIzAwMDAwMCIgZm9udC1mYW1pbHk9InNhbnMtc2VyaWYiIGZvbnQtc2l6ZT0iMTQiIGxlbmd0aEFkanVzdD0ic3BhY2luZyIgdGV4dExlbmd0aD0iNjMiIHg9Ijg1Ny4yNSIgeT0iMzAxLjc0MjIiPkNvc0NsaWVudDwvdGV4dD48bGluZSBzdHlsZT0ic3Ryb2tlOiMxODE4MTg7c3Ryb2tlLXdpZHRoOjAuNTsiIHgxPSI2ODAuNSIgeDI9IjEwNjQuNSIgeTE9IjMxMiIgeTI9IjMxMiIvPjxyZWN0IGZpbGw9Im5vbmUiIGhlaWdodD0iNiIgc3R5bGU9InN0cm9rZTojQzgyOTMwO3N0cm9rZS13aWR0aDoxLjA7IiB3aWR0aD0iNiIgeD0iNjg3LjUiIHk9IjMyMS45OTIyIi8+PHRleHQgZmlsbD0iIzAwMDAwMCIgZm9udC1mYW1pbHk9InNhbnMtc2VyaWYiIGZvbnQtc2l6ZT0iMTQiIGxlbmd0aEFkanVzdD0ic3BhY2luZyIgdGV4dExlbmd0aD0iNDIiIHg9IjY5OS41IiB5PSIzMjkuMjM0NCI+Y2xpZW50PC90ZXh0PjxyZWN0IGZpbGw9Im5vbmUiIGhlaWdodD0iNiIgc3R5bGU9InN0cm9rZTojQzgyOTMwO3N0cm9rZS13aWR0aDoxLjA7IiB3aWR0aD0iNiIgeD0iNjg3LjUiIHk9IjMzNi45NzY2Ii8+PHRleHQgZmlsbD0iIzAwMDAwMCIgZm9udC1mYW1pbHk9InNhbnMtc2VyaWYiIGZvbnQtc2l6ZT0iMTQiIGxlbmd0aEFkanVzdD0ic3BhY2luZyIgdGV4dExlbmd0aD0iNzciIHg9IjY5OS41IiB5PSIzNDQuMjE4OCI+YnVja2V0OiBzdHI8L3RleHQ+PGxpbmUgc3R5bGU9InN0cm9rZTojMTgxODE4O3N0cm9rZS13aWR0aDowLjU7IiB4MT0iNjgwLjUiIHgyPSIxMDY0LjUiIHkxPSIzNDkuOTY4OCIgeTI9IjM0OS45Njg4Ii8+PGVsbGlwc2UgY3g9IjY5MC41IiBjeT0iMzYyLjk2MDkiIGZpbGw9IiM4NEJFODQiIHJ4PSIzIiByeT0iMyIgc3R5bGU9InN0cm9rZTojMDM4MDQ4O3N0cm9rZS13aWR0aDoxLjA7Ii8+PHRleHQgZmlsbD0iIzAwMDAwMCIgZm9udC1mYW1pbHk9InNhbnMtc2VyaWYiIGZvbnQtc2l6ZT0iMTQiIGxlbmd0aEFkanVzdD0ic3BhY2luZyIgdGV4dExlbmd0aD0iMzQ1IiB4PSI2OTkuNSIgeT0iMzY3LjIwMzEiPnVwbG9hZF9maWxlKGxvY2FsX2ZpbGU6IHN0ciwgY29zX3BhdGg6IHN0cik6IHZvaWQ8L3RleHQ+PGVsbGlwc2UgY3g9IjY5MC41IiBjeT0iMzc3Ljk0NTMiIGZpbGw9IiM4NEJFODQiIHJ4PSIzIiByeT0iMyIgc3R5bGU9InN0cm9rZTojMDM4MDQ4O3N0cm9rZS13aWR0aDoxLjA7Ii8+PHRleHQgZmlsbD0iIzAwMDAwMCIgZm9udC1mYW1pbHk9InNhbnMtc2VyaWYiIGZvbnQtc2l6ZT0iMTQiIGxlbmd0aEFkanVzdD0ic3BhY2luZyIgdGV4dExlbmd0aD0iMzYwIiB4PSI2OTkuNSIgeT0iMzgyLjE4NzUiPmRvd25sb2FkX2ZpbGUoY29zX3BhdGg6IHN0ciwgbG9jYWxfZmlsZTogc3RyKTogdm9pZDwvdGV4dD48L2c+PCEtLWNsYXNzIEhpdmVDbGllbnQtLT48ZyBpZD0iZWxlbV9IaXZlQ2xpZW50Ij48cmVjdCBjb2RlTGluZT0iMjUiIGZpbGw9IiNGMUYxRjEiIGhlaWdodD0iOTIuOTUzMSIgaWQ9IkhpdmVDbGllbnQiIHJ4PSIyLjUiIHJ5PSIyLjUiIHN0eWxlPSJzdHJva2U6IzE4MTgxODtzdHJva2Utd2lkdGg6MC41OyIgd2lkdGg9IjI0NSIgeD0iMTEwMSIgeT0iMjg3LjUiLz48ZWxsaXBzZSBjeD0iMTE4NC4yNSIgY3k9IjMwMy41IiBmaWxsPSIjQUREMUIyIiByeD0iMTEiIHJ5PSIxMSIgc3R5bGU9InN0cm9rZTojMTgxODE4O3N0cm9rZS13aWR0aDoxLjA7Ii8+PHBhdGggZD0iTTExODEuODc1LDMwNy43NSBMMTE4MS44NzUsMzA5LjUgTDExODYuODEyNSwzMDkuNSBMMTE4Ni44MTI1LDMwNy43NSBMMTE4MS44NzUsMzA3Ljc1IFogTTExODIuNTYyNSwzMDguNDM3NSBRMTE4Mi41NjI1LDMwOC40Mzc1IDExODIuNTYyNSwyOTkuMjUgTDExODAuODEyNSwyOTkuMjUgUTExODAuODEyNSwyOTkuMjUgMTE4MC44MTI1LDMwOC40Mzc1IEwxMTgyLjU2MjUsMzA4LjQzNzUgWiBNMTE4Ni4xMjUsMzA4LjQzNzUgTDExODcuODc1LDMwOC40Mzc1IFExMTg3Ljg3NSwzMDguNDM3NSAxMTg3Ljg3NSwzMDUuNjI1IEwxMTg2LjEyNSwzMDUuNjI1IFExMTg2LjEyNSwzMDUuNjI1IDExODYuMTI1LDMwOC40Mzc1IFogTTExODYuMTI1LDI5OS4yNSBRMTE4Ni4xMjUsMjk5LjI1IDExODYuMTI1LDMwMi4wNjI1IEwxMTg3Ljg3NSwzMDIuMDYyNSBRMTE4Ny44NzUsMzAyLjA2MjUgMTE4Ny44NzUsMjk5LjI1IEwxMTg2LjEyNSwyOTkuMjUgWiBNMTE4MS44NzUsMjk5LjkzNzUgTDExODYuODEyNSwyOTkuOTM3NSBMMTE4Ni44MTI1LDI5OC4xODc1IEwxMTgxLjg3NSwyOTguMTg3NSBMMTE4MS44NzUsMjk5LjkzNzUgWiAiIGZpbGw9IiMwMDAwMDAiLz48dGV4dCBmaWxsPSIjMDAwMDAwIiBmb250LWZhbWlseT0ic2Fucy1zZXJpZiIgZm9udC1zaXplPSIxNCIgbGVuZ3RoQWRqdXN0PSJzcGFjaW5nIiB0ZXh0TGVuZ3RoPSI3MCIgeD0iMTIwNC43NSIgeT0iMzA5LjI0MjIiPkhpdmVDbGllbnQ8L3RleHQ+PGxpbmUgc3R5bGU9InN0cm9rZTojMTgxODE4O3N0cm9rZS13aWR0aDowLjU7IiB4MT0iMTEwMiIgeDI9IjEzNDUiIHkxPSIzMTkuNSIgeTI9IjMxOS41Ii8+PHJlY3QgZmlsbD0ibm9uZSIgaGVpZ2h0PSI2IiBzdHlsZT0ic3Ryb2tlOiNDODI5MzA7c3Ryb2tlLXdpZHRoOjEuMDsiIHdpZHRoPSI2IiB4PSIxMTA5IiB5PSIzMjkuNDkyMiIvPjx0ZXh0IGZpbGw9IiMwMDAwMDAiIGZvbnQtZmFtaWx5PSJzYW5zLXNlcmlmIiBmb250LXNpemU9IjE0IiBsZW5ndGhBZGp1c3Q9InNwYWNpbmciIHRleHRMZW5ndGg9IjI4IiB4PSIxMTIxIiB5PSIzMzYuNzM0NCI+Y29ubjwvdGV4dD48bGluZSBzdHlsZT0ic3Ryb2tlOiMxODE4MTg7c3Ryb2tlLXdpZHRoOjAuNTsiIHgxPSIxMTAyIiB4Mj0iMTM0NSIgeTE9IjM0Mi40ODQ0IiB5Mj0iMzQyLjQ4NDQiLz48ZWxsaXBzZSBjeD0iMTExMiIgY3k9IjM1NS40NzY2IiBmaWxsPSIjODRCRTg0IiByeD0iMyIgcnk9IjMiIHN0eWxlPSJzdHJva2U6IzAzODA0ODtzdHJva2Utd2lkdGg6MS4wOyIvPjx0ZXh0IGZpbGw9IiMwMDAwMDAiIGZvbnQtZmFtaWx5PSJzYW5zLXNlcmlmIiBmb250LXNpemU9IjE0IiBsZW5ndGhBZGp1c3Q9InNwYWNpbmciIHRleHRMZW5ndGg9IjIxOSIgeD0iMTEyMSIgeT0iMzU5LjcxODgiPmV4ZWN1dGVfcXVlcnkocXVlcnk6IHN0cik6IGxpc3Q8L3RleHQ+PGVsbGlwc2UgY3g9IjExMTIiIGN5PSIzNzAuNDYwOSIgZmlsbD0iIzg0QkU4NCIgcng9IjMiIHJ5PSIzIiBzdHlsZT0ic3Ryb2tlOiMwMzgwNDg7c3Ryb2tlLXdpZHRoOjEuMDsiLz48dGV4dCBmaWxsPSIjMDAwMDAwIiBmb250LWZhbWlseT0ic2Fucy1zZXJpZiIgZm9udC1zaXplPSIxNCIgbGVuZ3RoQWRqdXN0PSJzcGFjaW5nIiB0ZXh0TGVuZ3RoPSIxNzAiIHg9IjExMjEiIHk9IjM3NC43MDMxIj5jbG9zZV9jb25uZWN0aW9uKCk6IHZvaWQ8L3RleHQ+PC9nPjwhLS1jbGFzcyBQb3N0Z3Jlc0NsaWVudC0tPjxnIGlkPSJlbGVtX1Bvc3RncmVzQ2xpZW50Ij48cmVjdCBjb2RlTGluZT0iMzEiIGZpbGw9IiNGMUYxRjEiIGhlaWdodD0iOTIuOTUzMSIgaWQ9IlBvc3RncmVzQ2xpZW50IiByeD0iMi41IiByeT0iMi41IiBzdHlsZT0ic3Ryb2tlOiMxODE4MTg7c3Ryb2tlLXdpZHRoOjAuNTsiIHdpZHRoPSIyNDUiIHg9IjEzODEiIHk9IjI4Ny41Ii8+PGVsbGlwc2UgY3g9IjE0NTAuMjUiIGN5PSIzMDMuNSIgZmlsbD0iI0FERDFCMiIgcng9IjExIiByeT0iMTEiIHN0eWxlPSJzdHJva2U6IzE4MTgxODtzdHJva2Utd2lkdGg6MS4wOyIvPjxwYXRoIGQ9Ik0xNDQ3Ljg3NSwzMDcuNzUgTDE0NDcuODc1LDMwOS41IEwxNDUyLjgxMjUsMzA5LjUgTDE0NTIuODEyNSwzMDcuNzUgTDE0NDcuODc1LDMwNy43NSBaIE0xNDQ4LjU2MjUsMzA4LjQzNzUgUTE0NDguNTYyNSwzMDguNDM3NSAxNDQ4LjU2MjUsMjk5LjI1IEwxNDQ2LjgxMjUsMjk5LjI1IFExNDQ2LjgxMjUsMjk5LjI1IDE0NDYuODEyNSwzMDguNDM3NSBMMTQ0OC41NjI1LDMwOC40Mzc1IFogTTE0NTIuMTI1LDMwOC40Mzc1IEwxNDUzLjg3NSwzMDguNDM3NSBRMTQ1My44NzUsMzA4LjQzNzUgMTQ1My44NzUsMzA1LjYyNSBMMTQ1Mi4xMjUsMzA1LjYyNSBRMTQ1Mi4xMjUsMzA1LjYyNSAxNDUyLjEyNSwzMDguNDM3NSBaIE0xNDUyLjEyNSwyOTkuMjUgUTE0NTIuMTI1LDI5OS4yNSAxNDUyLjEyNSwzMDIuMDYyNSBMMTQ1My44NzUsMzAyLjA2MjUgUTE0NTMuODc1LDMwMi4wNjI1IDE0NTMuODc1LDI5OS4yNSBMMTQ1Mi4xMjUsMjk5LjI1IFogTTE0NDcuODc1LDI5OS45Mzc1IEwxNDUyLjgxMjUsMjk5LjkzNzUgTDE0NTIuODEyNSwyOTguMTg3NSBMMTQ0Ny44NzUsMjk4LjE4NzUgTDE0NDcuODc1LDI5OS45Mzc1IFogIiBmaWxsPSIjMDAwMDAwIi8+PHRleHQgZmlsbD0iIzAwMDAwMCIgZm9udC1mYW1pbHk9InNhbnMtc2VyaWYiIGZvbnQtc2l6ZT0iMTQiIGxlbmd0aEFkanVzdD0ic3BhY2luZyIgdGV4dExlbmd0aD0iOTgiIHg9IjE0NzAuNzUiIHk9IjMwOS4yNDIyIj5Qb3N0Z3Jlc0NsaWVudDwvdGV4dD48bGluZSBzdHlsZT0ic3Ryb2tlOiMxODE4MTg7c3Ryb2tlLXdpZHRoOjAuNTsiIHgxPSIxMzgyIiB4Mj0iMTYyNSIgeTE9IjMxOS41IiB5Mj0iMzE5LjUiLz48cmVjdCBmaWxsPSJub25lIiBoZWlnaHQ9IjYiIHN0eWxlPSJzdHJva2U6I0M4MjkzMDtzdHJva2Utd2lkdGg6MS4wOyIgd2lkdGg9IjYiIHg9IjEzODkiIHk9IjMyOS40OTIyIi8+PHRleHQgZmlsbD0iIzAwMDAwMCIgZm9udC1mYW1pbHk9InNhbnMtc2VyaWYiIGZvbnQtc2l6ZT0iMTQiIGxlbmd0aEFkanVzdD0ic3BhY2luZyIgdGV4dExlbmd0aD0iMjgiIHg9IjE0MDEiIHk9IjMzNi43MzQ0Ij5jb25uPC90ZXh0PjxsaW5lIHN0eWxlPSJzdHJva2U6IzE4MTgxODtzdHJva2Utd2lkdGg6MC41OyIgeDE9IjEzODIiIHgyPSIxNjI1IiB5MT0iMzQyLjQ4NDQiIHkyPSIzNDIuNDg0NCIvPjxlbGxpcHNlIGN4PSIxMzkyIiBjeT0iMzU1LjQ3NjYiIGZpbGw9IiM4NEJFODQiIHJ4PSIzIiByeT0iMyIgc3R5bGU9InN0cm9rZTojMDM4MDQ4O3N0cm9rZS13aWR0aDoxLjA7Ii8+PHRleHQgZmlsbD0iIzAwMDAwMCIgZm9udC1mYW1pbHk9InNhbnMtc2VyaWYiIGZvbnQtc2l6ZT0iMTQiIGxlbmd0aEFkanVzdD0ic3BhY2luZyIgdGV4dExlbmd0aD0iMjE5IiB4PSIxNDAxIiB5PSIzNTkuNzE4OCI+ZXhlY3V0ZV9xdWVyeShxdWVyeTogc3RyKTogbGlzdDwvdGV4dD48ZWxsaXBzZSBjeD0iMTM5MiIgY3k9IjM3MC40NjA5IiBmaWxsPSIjODRCRTg0IiByeD0iMyIgcnk9IjMiIHN0eWxlPSJzdHJva2U6IzAzODA0ODtzdHJva2Utd2lkdGg6MS4wOyIvPjx0ZXh0IGZpbGw9IiMwMDAwMDAiIGZvbnQtZmFtaWx5PSJzYW5zLXNlcmlmIiBmb250LXNpemU9IjE0IiBsZW5ndGhBZGp1c3Q9InNwYWNpbmciIHRleHRMZW5ndGg9IjE3MCIgeD0iMTQwMSIgeT0iMzc0LjcwMzEiPmNsb3NlX2Nvbm5lY3Rpb24oKTogdm9pZDwvdGV4dD48L2c+PCEtLWNsYXNzIFNxbGl0ZUNsaWVudC0tPjxnIGlkPSJlbGVtX1NxbGl0ZUNsaWVudCI+PHJlY3QgY29kZUxpbmU9IjM3IiBmaWxsPSIjRjFGMUYxIiBoZWlnaHQ9IjkyLjk1MzEiIGlkPSJTcWxpdGVDbGllbnQiIHJ4PSIyLjUiIHJ5PSIyLjUiIHN0eWxlPSJzdHJva2U6IzE4MTgxODtzdHJva2Utd2lkdGg6MC41OyIgd2lkdGg9IjI0NSIgeD0iMTY2MSIgeT0iMjg3LjUiLz48ZWxsaXBzZSBjeD0iMTczNy4yNSIgY3k9IjMwMy41IiBmaWxsPSIjQUREMUIyIiByeD0iMTEiIHJ5PSIxMSIgc3R5bGU9InN0cm9rZTojMTgxODE4O3N0cm9rZS13aWR0aDoxLjA7Ii8+PHBhdGggZD0iTTE3MzQuODc1LDMwNy43NSBMMTczNC44NzUsMzA5LjUgTDE3MzkuODEyNSwzMDkuNSBMMTczOS44MTI1LDMwNy43NSBMMTczNC44NzUsMzA3Ljc1IFogTTE3MzUuNTYyNSwzMDguNDM3NSBRMTczNS41NjI1LDMwOC40Mzc1IDE3MzUuNTYyNSwyOTkuMjUgTDE3MzMuODEyNSwyOTkuMjUgUTE3MzMuODEyNSwyOTkuMjUgMTczMy44MTI1LDMwOC40Mzc1IEwxNzM1LjU2MjUsMzA4LjQzNzUgWiBNMTczOS4xMjUsMzA4LjQzNzUgTDE3NDAuODc1LDMwOC40Mzc1IFExNzQwLjg3NSwzMDguNDM3NSAxNzQwLjg3NSwzMDUuNjI1IEwxNzM5LjEyNSwzMDUuNjI1IFExNzM5LjEyNSwzMDUuNjI1IDE3MzkuMTI1LDMwOC40Mzc1IFogTTE3MzkuMTI1LDI5OS4yNSBRMTczOS4xMjUsMjk5LjI1IDE3MzkuMTI1LDMwMi4wNjI1IEwxNzQwLjg3NSwzMDIuMDYyNSBRMTc0MC44NzUsMzAyLjA2MjUgMTc0MC44NzUsMjk5LjI1IEwxNzM5LjEyNSwyOTkuMjUgWiBNMTczNC44NzUsMjk5LjkzNzUgTDE3MzkuODEyNSwyOTkuOTM3NSBMMTczOS44MTI1LDI5OC4xODc1IEwxNzM0Ljg3NSwyOTguMTg3NSBMMTczNC44NzUsMjk5LjkzNzUgWiAiIGZpbGw9IiMwMDAwMDAiLz48dGV4dCBmaWxsPSIjMDAwMDAwIiBmb250LWZhbWlseT0ic2Fucy1zZXJpZiIgZm9udC1zaXplPSIxNCIgbGVuZ3RoQWRqdXN0PSJzcGFjaW5nIiB0ZXh0TGVuZ3RoPSI4NCIgeD0iMTc1Ny43NSIgeT0iMzA5LjI0MjIiPlNxbGl0ZUNsaWVudDwvdGV4dD48bGluZSBzdHlsZT0ic3Ryb2tlOiMxODE4MTg7c3Ryb2tlLXdpZHRoOjAuNTsiIHgxPSIxNjYyIiB4Mj0iMTkwNSIgeTE9IjMxOS41IiB5Mj0iMzE5LjUiLz48cmVjdCBmaWxsPSJub25lIiBoZWlnaHQ9IjYiIHN0eWxlPSJzdHJva2U6I0M4MjkzMDtzdHJva2Utd2lkdGg6MS4wOyIgd2lkdGg9IjYiIHg9IjE2NjkiIHk9IjMyOS40OTIyIi8+PHRleHQgZmlsbD0iIzAwMDAwMCIgZm9udC1mYW1pbHk9InNhbnMtc2VyaWYiIGZvbnQtc2l6ZT0iMTQiIGxlbmd0aEFkanVzdD0ic3BhY2luZyIgdGV4dExlbmd0aD0iMjgiIHg9IjE2ODEiIHk9IjMzNi43MzQ0Ij5jb25uPC90ZXh0PjxsaW5lIHN0eWxlPSJzdHJva2U6IzE4MTgxODtzdHJva2Utd2lkdGg6MC41OyIgeDE9IjE2NjIiIHgyPSIxOTA1IiB5MT0iMzQyLjQ4NDQiIHkyPSIzNDIuNDg0NCIvPjxlbGxpcHNlIGN4PSIxNjcyIiBjeT0iMzU1LjQ3NjYiIGZpbGw9IiM4NEJFODQiIHJ4PSIzIiByeT0iMyIgc3R5bGU9InN0cm9rZTojMDM4MDQ4O3N0cm9rZS13aWR0aDoxLjA7Ii8+PHRleHQgZmlsbD0iIzAwMDAwMCIgZm9udC1mYW1pbHk9InNhbnMtc2VyaWYiIGZvbnQtc2l6ZT0iMTQiIGxlbmd0aEFkanVzdD0ic3BhY2luZyIgdGV4dExlbmd0aD0iMjE5IiB4PSIxNjgxIiB5PSIzNTkuNzE4OCI+ZXhlY3V0ZV9xdWVyeShxdWVyeTogc3RyKTogbGlzdDwvdGV4dD48ZWxsaXBzZSBjeD0iMTY3MiIgY3k9IjM3MC40NjA5IiBmaWxsPSIjODRCRTg0IiByeD0iMyIgcnk9IjMiIHN0eWxlPSJzdHJva2U6IzAzODA0ODtzdHJva2Utd2lkdGg6MS4wOyIvPjx0ZXh0IGZpbGw9IiMwMDAwMDAiIGZvbnQtZmFtaWx5PSJzYW5zLXNlcmlmIiBmb250LXNpemU9IjE0IiBsZW5ndGhBZGp1c3Q9InNwYWNpbmciIHRleHRMZW5ndGg9IjE3MCIgeD0iMTY4MSIgeT0iMzc0LjcwMzEiPmNsb3NlX2Nvbm5lY3Rpb24oKTogdm9pZDwvdGV4dD48L2c+PCEtLWNsYXNzIEthZmthQ2xpZW50LS0+PGcgaWQ9ImVsZW1fS2Fma2FDbGllbnQiPjxyZWN0IGNvZGVMaW5lPSI0MyIgZmlsbD0iI0YxRjFGMSIgaGVpZ2h0PSIxMDcuOTM3NSIgaWQ9IkthZmthQ2xpZW50IiByeD0iMi41IiByeT0iMi41IiBzdHlsZT0ic3Ryb2tlOiMxODE4MTg7c3Ryb2tlLXdpZHRoOjAuNTsiIHdpZHRoPSIzMzgiIHg9IjE5NDEuNSIgeT0iMjgwIi8+PGVsbGlwc2UgY3g9IjIwNjcuNzUiIGN5PSIyOTYiIGZpbGw9IiNBREQxQjIiIHJ4PSIxMSIgcnk9IjExIiBzdHlsZT0ic3Ryb2tlOiMxODE4MTg7c3Ryb2tlLXdpZHRoOjEuMDsiLz48cGF0aCBkPSJNMjA2NS4zNzUsMzAwLjI1IEwyMDY1LjM3NSwzMDIgTDIwNzAuMzEyNSwzMDIgTDIwNzAuMzEyNSwzMDAuMjUgTDIwNjUuMzc1LDMwMC4yNSBaIE0yMDY2LjA2MjUsMzAwLjkzNzUgUTIwNjYuMDYyNSwzMDAuOTM3NSAyMDY2LjA2MjUsMjkxLjc1IEwyMDY0LjMxMjUsMjkxLjc1IFEyMDY0LjMxMjUsMjkxLjc1IDIwNjQuMzEyNSwzMDAuOTM3NSBMMjA2Ni4wNjI1LDMwMC45Mzc1IFogTTIwNjkuNjI1LDMwMC45Mzc1IEwyMDcxLjM3NSwzMDAuOTM3NSBRMjA3MS4zNzUsMzAwLjkzNzUgMjA3MS4zNzUsMjk4LjEyNSBMMjA2OS42MjUsMjk4LjEyNSBRMjA2OS42MjUsMjk4LjEyNSAyMDY5LjYyNSwzMDAuOTM3NSBaIE0yMDY5LjYyNSwyOTEuNzUgUTIwNjkuNjI1LDI5MS43NSAyMDY5LjYyNSwyOTQuNTYyNSBMMjA3MS4zNzUsMjk0LjU2MjUgUTIwNzEuMzc1LDI5NC41NjI1IDIwNzEuMzc1LDI5MS43NSBMMjA2OS42MjUsMjkxLjc1IFogTTIwNjUuMzc1LDI5Mi40Mzc1IEwyMDcwLjMxMjUsMjkyLjQzNzUgTDIwNzAuMzEyNSwyOTAuNjg3NSBMMjA2NS4zNzUsMjkwLjY4NzUgTDIwNjUuMzc1LDI5Mi40Mzc1IFogIiBmaWxsPSIjMDAwMDAwIi8+PHRleHQgZmlsbD0iIzAwMDAwMCIgZm9udC1mYW1pbHk9InNhbnMtc2VyaWYiIGZvbnQtc2l6ZT0iMTQiIGxlbmd0aEFkanVzdD0ic3BhY2luZyIgdGV4dExlbmd0aD0iNzciIHg9IjIwODguMjUiIHk9IjMwMS43NDIyIj5LYWZrYUNsaWVudDwvdGV4dD48bGluZSBzdHlsZT0ic3Ryb2tlOiMxODE4MTg7c3Ryb2tlLXdpZHRoOjAuNTsiIHgxPSIxOTQyLjUiIHgyPSIyMjc4LjUiIHkxPSIzMTIiIHkyPSIzMTIiLz48cmVjdCBmaWxsPSJub25lIiBoZWlnaHQ9IjYiIHN0eWxlPSJzdHJva2U6I0M4MjkzMDtzdHJva2Utd2lkdGg6MS4wOyIgd2lkdGg9IjYiIHg9IjE5NDkuNSIgeT0iMzIxLjk5MjIiLz48dGV4dCBmaWxsPSIjMDAwMDAwIiBmb250LWZhbWlseT0ic2Fucy1zZXJpZiIgZm9udC1zaXplPSIxNCIgbGVuZ3RoQWRqdXN0PSJzcGFjaW5nIiB0ZXh0TGVuZ3RoPSI1NiIgeD0iMTk2MS41IiB5PSIzMjkuMjM0NCI+cHJvZHVjZXI8L3RleHQ+PHJlY3QgZmlsbD0ibm9uZSIgaGVpZ2h0PSI2IiBzdHlsZT0ic3Ryb2tlOiNDODI5MzA7c3Ryb2tlLXdpZHRoOjEuMDsiIHdpZHRoPSI2IiB4PSIxOTQ5LjUiIHk9IjMzNi45NzY2Ii8+PHRleHQgZmlsbD0iIzAwMDAwMCIgZm9udC1mYW1pbHk9InNhbnMtc2VyaWYiIGZvbnQtc2l6ZT0iMTQiIGxlbmd0aEFkanVzdD0ic3BhY2luZyIgdGV4dExlbmd0aD0iNTciIHg9IjE5NjEuNSIgeT0iMzQ0LjIxODgiPmNvbnN1bWVyPC90ZXh0PjxsaW5lIHN0eWxlPSJzdHJva2U6IzE4MTgxODtzdHJva2Utd2lkdGg6MC41OyIgeDE9IjE5NDIuNSIgeDI9IjIyNzguNSIgeTE9IjM0OS45Njg4IiB5Mj0iMzQ5Ljk2ODgiLz48ZWxsaXBzZSBjeD0iMTk1Mi41IiBjeT0iMzYyLjk2MDkiIGZpbGw9IiM4NEJFODQiIHJ4PSIzIiByeT0iMyIgc3R5bGU9InN0cm9rZTojMDM4MDQ4O3N0cm9rZS13aWR0aDoxLjA7Ii8+PHRleHQgZmlsbD0iIzAwMDAwMCIgZm9udC1mYW1pbHk9InNhbnMtc2VyaWYiIGZvbnQtc2l6ZT0iMTQiIGxlbmd0aEFkanVzdD0ic3BhY2luZyIgdGV4dExlbmd0aD0iMzEyIiB4PSIxOTYxLjUiIHk9IjM2Ny4yMDMxIj5zZW5kX21lc3NhZ2UodG9waWM6IHN0ciwgbWVzc2FnZTogc3RyKTogdm9pZDwvdGV4dD48ZWxsaXBzZSBjeD0iMTk1Mi41IiBjeT0iMzc3Ljk0NTMiIGZpbGw9IiM4NEJFODQiIHJ4PSIzIiByeT0iMyIgc3R5bGU9InN0cm9rZTojMDM4MDQ4O3N0cm9rZS13aWR0aDoxLjA7Ii8+PHRleHQgZmlsbD0iIzAwMDAwMCIgZm9udC1mYW1pbHk9InNhbnMtc2VyaWYiIGZvbnQtc2l6ZT0iMTQiIGxlbmd0aEFkanVzdD0ic3BhY2luZyIgdGV4dExlbmd0aD0iMjc3IiB4PSIxOTYxLjUiIHk9IjM4Mi4xODc1Ij5jb25zdW1lX21lc3NhZ2VzKHRvcGljOiBzdHIpOiBnZW5lcmF0b3I8L3RleHQ+PC9nPjwhLS1jbGFzcyBCYXNlRVRMLS0+PGcgaWQ9ImVsZW1fQmFzZUVUTCI+PHJlY3QgY29kZUxpbmU9IjUwIiBmaWxsPSIjRjFGMUYxIiBoZWlnaHQ9IjE5Ny44NDM4IiBpZD0iQmFzZUVUTCIgcng9IjIuNSIgcnk9IjIuNSIgc3R5bGU9InN0cm9rZTojMTgxODE4O3N0cm9rZS13aWR0aDowLjU7IiB3aWR0aD0iMTg3IiB4PSIyMzE0IiB5PSIyMzUiLz48ZWxsaXBzZSBjeD0iMjM3OC43NSIgY3k9IjI1MSIgZmlsbD0iI0E5RENERiIgcng9IjExIiByeT0iMTEiIHN0eWxlPSJzdHJva2U6IzE4MTgxODtzdHJva2Utd2lkdGg6MS4wOyIvPjxwYXRoIGQ9Ik0yMzc1LjMxMjUsMjQ4LjYyNSBMMjM3NS4zMTI1LDI1Ni43NSBMMjM3Ny4wNjI1LDI1Ni43NSBRMjM3Ny4wNjI1LDI1Ni43NSAyMzc3LjA2MjUsMjUyLjUgTDIzODAuNjI1LDI1Mi41IFEyMzgwLjYyNSwyNTIuNSAyMzgwLjYyNSwyNTYuNzUgTDIzODIuMzc1LDI1Ni43NSBMMjM4Mi4zNzUsMjQ4LjYyNSBMMjM4MC42MjUsMjQ4LjYyNSBRMjM4MC42MjUsMjQ4LjYyNSAyMzgwLjYyNSwyNTAuNzUgTDIzNzcuMDYyNSwyNTAuNzUgUTIzNzcuMDYyNSwyNTAuNzUgMjM3Ny4wNjI1LDI0OC42MjUgTDIzNzUuMzEyNSwyNDguNjI1IFogTTIzNzYuMzc1LDI0OS4zMTI1IEwyMzc4LjEyNSwyNDkuMzEyNSBRMjM3OC4xMjUsMjQ5LjMxMjUgMjM3OC4xMjUsMjQ2LjUgTDIzNzYuMzc1LDI0Ni41IFEyMzc2LjM3NSwyNDYuNSAyMzc2LjM3NSwyNDkuMzEyNSBaIE0yMzgxLjMxMjUsMjQ5LjMxMjUgUTIzODEuMzEyNSwyNDkuMzEyNSAyMzgxLjMxMjUsMjQ2LjUgTDIzNzkuNTYyNSwyNDYuNSBRMjM3OS41NjI1LDI0Ni41IDIzNzkuNTYyNSwyNDkuMzEyNSBMMjM4MS4zMTI1LDI0OS4zMTI1IFogTTIzNzcuNDM3NSwyNDcuMTg3NSBMMjM4MC4yNSwyNDcuMTg3NSBMMjM4MC4yNSwyNDUuNDM3NSBMMjM3Ny40Mzc1LDI0NS40Mzc1IEwyMzc3LjQzNzUsMjQ3LjE4NzUgWiAiIGZpbGw9IiMwMDAwMDAiLz48dGV4dCBmaWxsPSIjMDAwMDAwIiBmb250LWZhbWlseT0ic2Fucy1zZXJpZiIgZm9udC1zaXplPSIxNCIgZm9udC1zdHlsZT0iaXRhbGljIiBsZW5ndGhBZGp1c3Q9InNwYWNpbmciIHRleHRMZW5ndGg9IjQ5IiB4PSIyMzk5LjI1IiB5PSIyNTYuNzQyMiI+QmFzZUVUTDwvdGV4dD48bGluZSBzdHlsZT0ic3Ryb2tlOiMxODE4MTg7c3Ryb2tlLXdpZHRoOjAuNTsiIHgxPSIyMzE1IiB4Mj0iMjUwMCIgeTE9IjI2NyIgeTI9IjI2NyIvPjxyZWN0IGZpbGw9Im5vbmUiIGhlaWdodD0iNiIgc3R5bGU9InN0cm9rZTojQzgyOTMwO3N0cm9rZS13aWR0aDoxLjA7IiB3aWR0aD0iNiIgeD0iMjMyMiIgeT0iMjc2Ljk5MjIiLz48dGV4dCBmaWxsPSIjMDAwMDAwIiBmb250LWZhbWlseT0ic2Fucy1zZXJpZiIgZm9udC1zaXplPSIxNCIgbGVuZ3RoQWRqdXN0PSJzcGFjaW5nIiB0ZXh0TGVuZ3RoPSI0OSIgeD0iMjMzNCIgeT0iMjg0LjIzNDQiPmlkOiBpbnQ8L3RleHQ+PHJlY3QgZmlsbD0ibm9uZSIgaGVpZ2h0PSI2IiBzdHlsZT0ic3Ryb2tlOiNDODI5MzA7c3Ryb2tlLXdpZHRoOjEuMDsiIHdpZHRoPSI2IiB4PSIyMzIyIiB5PSIyOTEuOTc2NiIvPjx0ZXh0IGZpbGw9IiMwMDAwMDAiIGZvbnQtZmFtaWx5PSJzYW5zLXNlcmlmIiBmb250LXNpemU9IjE0IiBsZW5ndGhBZGp1c3Q9InNwYWNpbmciIHRleHRMZW5ndGg9IjEzNCIgeD0iMjMzNCIgeT0iMjk5LjIxODgiPnVuaW1hcF92ZXJzaW9uOiBzdHI8L3RleHQ+PHJlY3QgZmlsbD0ibm9uZSIgaGVpZ2h0PSI2IiBzdHlsZT0ic3Ryb2tlOiNDODI5MzA7c3Ryb2tlLXdpZHRoOjEuMDsiIHdpZHRoPSI2IiB4PSIyMzIyIiB5PSIzMDYuOTYwOSIvPjx0ZXh0IGZpbGw9IiMwMDAwMDAiIGZvbnQtZmFtaWx5PSJzYW5zLXNlcmlmIiBmb250LXNpemU9IjE0IiBsZW5ndGhBZGp1c3Q9InNwYWNpbmciIHRleHRMZW5ndGg9Ijk5IiB4PSIyMzM0IiB5PSIzMTQuMjAzMSI+c3RlcF9uYW1lOiBzdHI8L3RleHQ+PHJlY3QgZmlsbD0ibm9uZSIgaGVpZ2h0PSI2IiBzdHlsZT0ic3Ryb2tlOiNDODI5MzA7c3Ryb2tlLXdpZHRoOjEuMDsiIHdpZHRoPSI2IiB4PSIyMzIyIiB5PSIzMjEuOTQ1MyIvPjx0ZXh0IGZpbGw9IiMwMDAwMDAiIGZvbnQtZmFtaWx5PSJzYW5zLXNlcmlmIiBmb250LXNpemU9IjE0IiBsZW5ndGhBZGp1c3Q9InNwYWNpbmciIHRleHRMZW5ndGg9IjExOSIgeD0iMjMzNCIgeT0iMzI5LjE4NzUiPnN0ZXBfdmVyc2lvbjogc3RyPC90ZXh0PjxyZWN0IGZpbGw9Im5vbmUiIGhlaWdodD0iNiIgc3R5bGU9InN0cm9rZTojQzgyOTMwO3N0cm9rZS13aWR0aDoxLjA7IiB3aWR0aD0iNiIgeD0iMjMyMiIgeT0iMzM2LjkyOTciLz48dGV4dCBmaWxsPSIjMDAwMDAwIiBmb250LWZhbWlseT0ic2Fucy1zZXJpZiIgZm9udC1zaXplPSIxNCIgbGVuZ3RoQWRqdXN0PSJzcGFjaW5nIiB0ZXh0TGVuZ3RoPSIxNDAiIHg9IjIzMzQiIHk9IjM0NC4xNzE5Ij5zb3VyY2VfY29zX3BhdGg6IHN0cjwvdGV4dD48cmVjdCBmaWxsPSJub25lIiBoZWlnaHQ9IjYiIHN0eWxlPSJzdHJva2U6I0M4MjkzMDtzdHJva2Utd2lkdGg6MS4wOyIgd2lkdGg9IjYiIHg9IjIzMjIiIHk9IjM1MS45MTQxIi8+PHRleHQgZmlsbD0iIzAwMDAwMCIgZm9udC1mYW1pbHk9InNhbnMtc2VyaWYiIGZvbnQtc2l6ZT0iMTQiIGxlbmd0aEFkanVzdD0ic3BhY2luZyIgdGV4dExlbmd0aD0iOTgiIHg9IjIzMzQiIHk9IjM1OS4xNTYzIj5jb25maWc6IENvbmZpZzwvdGV4dD48cmVjdCBmaWxsPSJub25lIiBoZWlnaHQ9IjYiIHN0eWxlPSJzdHJva2U6I0M4MjkzMDtzdHJva2Utd2lkdGg6MS4wOyIgd2lkdGg9IjYiIHg9IjIzMjIiIHk9IjM2Ni44OTg0Ii8+PHRleHQgZmlsbD0iIzAwMDAwMCIgZm9udC1mYW1pbHk9InNhbnMtc2VyaWYiIGZvbnQtc2l6ZT0iMTQiIGxlbmd0aEFkanVzdD0ic3BhY2luZyIgdGV4dExlbmd0aD0iMTYxIiB4PSIyMzM0IiB5PSIzNzQuMTQwNiI+c2Vzc2lvbjogUG9zdGdyZXNDbGllbnQ8L3RleHQ+PHJlY3QgZmlsbD0ibm9uZSIgaGVpZ2h0PSI2IiBzdHlsZT0ic3Ryb2tlOiNDODI5MzA7c3Ryb2tlLXdpZHRoOjEuMDsiIHdpZHRoPSI2IiB4PSIyMzIyIiB5PSIzODEuODgyOCIvPjx0ZXh0IGZpbGw9IiMwMDAwMDAiIGZvbnQtZmFtaWx5PSJzYW5zLXNlcmlmIiBmb250LXNpemU9IjE0IiBsZW5ndGhBZGp1c3Q9InNwYWNpbmciIHRleHRMZW5ndGg9Ijk5IiB4PSIyMzM0IiB5PSIzODkuMTI1Ij53b3JrX3BhdGg6IHN0cjwvdGV4dD48bGluZSBzdHlsZT0ic3Ryb2tlOiMxODE4MTg7c3Ryb2tlLXdpZHRoOjAuNTsiIHgxPSIyMzE1IiB4Mj0iMjUwMCIgeTE9IjM5NC44NzUiIHkyPSIzOTQuODc1Ii8+PGVsbGlwc2UgY3g9IjIzMjUiIGN5PSI0MDcuODY3MiIgZmlsbD0iIzg0QkU4NCIgcng9IjMiIHJ5PSIzIiBzdHlsZT0ic3Ryb2tlOiMwMzgwNDg7c3Ryb2tlLXdpZHRoOjEuMDsiLz48dGV4dCBmaWxsPSIjMDAwMDAwIiBmb250LWZhbWlseT0ic2Fucy1zZXJpZiIgZm9udC1zaXplPSIxNCIgbGVuZ3RoQWRqdXN0PSJzcGFjaW5nIiB0ZXh0TGVuZ3RoPSIxMjEiIHg9IjIzMzQiIHk9IjQxMi4xMDk0Ij5pbml0X2RhdGEoKTogYm9vbDwvdGV4dD48ZWxsaXBzZSBjeD0iMjMyNSIgY3k9IjQyMi44NTE2IiBmaWxsPSIjODRCRTg0IiByeD0iMyIgcnk9IjMiIHN0eWxlPSJzdHJva2U6IzAzODA0ODtzdHJva2Utd2lkdGg6MS4wOyIvPjx0ZXh0IGZpbGw9IiMwMDAwMDAiIGZvbnQtZmFtaWx5PSJzYW5zLXNlcmlmIiBmb250LXNpemU9IjE0IiBsZW5ndGhBZGp1c3Q9InNwYWNpbmciIHRleHRMZW5ndGg9IjEwNyIgeD0iMjMzNCIgeT0iNDI3LjA5MzgiPnByb2Nlc3MoKTogYm9vbDwvdGV4dD48L2c+PCEtLWNsYXNzIExhbmU0a0VUTC0tPjxnIGlkPSJlbGVtX0xhbmU0a0VUTCI+PHJlY3QgY29kZUxpbmU9IjYzIiBmaWxsPSIjRjFGMUYxIiBoZWlnaHQ9IjEwNy45Mzc1IiBpZD0iTGFuZTRrRVRMIiByeD0iMi41IiByeT0iMi41IiBzdHlsZT0ic3Ryb2tlOiMxODE4MTg7c3Ryb2tlLXdpZHRoOjAuNTsiIHdpZHRoPSIxNDciIHg9IjE1NTMiIHk9IjUxNS41Ii8+PGVsbGlwc2UgY3g9IjE1OTEuNCIgY3k9IjUzMS41IiBmaWxsPSIjQUREMUIyIiByeD0iMTEiIHJ5PSIxMSIgc3R5bGU9InN0cm9rZTojMTgxODE4O3N0cm9rZS13aWR0aDoxLjA7Ii8+PHBhdGggZD0iTTE1ODkuMDI1LDUzNS43NSBMMTU4OS4wMjUsNTM3LjUgTDE1OTMuOTYyNSw1MzcuNSBMMTU5My45NjI1LDUzNS43NSBMMTU4OS4wMjUsNTM1Ljc1IFogTTE1ODkuNzEyNSw1MzYuNDM3NSBRMTU4OS43MTI1LDUzNi40Mzc1IDE1ODkuNzEyNSw1MjcuMjUgTDE1ODcuOTYyNSw1MjcuMjUgUTE1ODcuOTYyNSw1MjcuMjUgMTU4Ny45NjI1LDUzNi40Mzc1IEwxNTg5LjcxMjUsNTM2LjQzNzUgWiBNMTU5My4yNzUsNTM2LjQzNzUgTDE1OTUuMDI1LDUzNi40Mzc1IFExNTk1LjAyNSw1MzYuNDM3NSAxNTk1LjAyNSw1MzMuNjI1IEwxNTkzLjI3NSw1MzMuNjI1IFExNTkzLjI3NSw1MzMuNjI1IDE1OTMuMjc1LDUzNi40Mzc1IFogTTE1OTMuMjc1LDUyNy4yNSBRMTU5My4yNzUsNTI3LjI1IDE1OTMuMjc1LDUzMC4wNjI1IEwxNTk1LjAyNSw1MzAuMDYyNSBRMTU5NS4wMjUsNTMwLjA2MjUgMTU5NS4wMjUsNTI3LjI1IEwxNTkzLjI3NSw1MjcuMjUgWiBNMTU4OS4wMjUsNTI3LjkzNzUgTDE1OTMuOTYyNSw1MjcuOTM3NSBMMTU5My45NjI1LDUyNi4xODc1IEwxNTg5LjAyNSw1MjYuMTg3NSBMMTU4OS4wMjUsNTI3LjkzNzUgWiAiIGZpbGw9IiMwMDAwMDAiLz48dGV4dCBmaWxsPSIjMDAwMDAwIiBmb250LWZhbWlseT0ic2Fucy1zZXJpZiIgZm9udC1zaXplPSIxNCIgbGVuZ3RoQWRqdXN0PSJzcGFjaW5nIiB0ZXh0TGVuZ3RoPSI2MyIgeD0iMTYxMC42IiB5PSI1MzcuMjQyMiI+TGFuZTRrRVRMPC90ZXh0PjxsaW5lIHN0eWxlPSJzdHJva2U6IzE4MTgxODtzdHJva2Utd2lkdGg6MC41OyIgeDE9IjE1NTQiIHgyPSIxNjk5IiB5MT0iNTQ3LjUiIHkyPSI1NDcuNSIvPjxyZWN0IGZpbGw9Im5vbmUiIGhlaWdodD0iNiIgc3R5bGU9InN0cm9rZTojQzgyOTMwO3N0cm9rZS13aWR0aDoxLjA7IiB3aWR0aD0iNiIgeD0iMTU2MSIgeT0iNTU3LjQ5MjIiLz48dGV4dCBmaWxsPSIjMDAwMDAwIiBmb250LWZhbWlseT0ic2Fucy1zZXJpZiIgZm9udC1zaXplPSIxNCIgbGVuZ3RoQWRqdXN0PSJzcGFjaW5nIiB0ZXh0TGVuZ3RoPSIxMTkiIHg9IjE1NzMiIHk9IjU2NC43MzQ0Ij5wb2RfZGVzdF9kaXI6IHN0cjwvdGV4dD48cmVjdCBmaWxsPSJub25lIiBoZWlnaHQ9IjYiIHN0eWxlPSJzdHJva2U6I0M4MjkzMDtzdHJva2Utd2lkdGg6MS4wOyIgd2lkdGg9IjYiIHg9IjE1NjEiIHk9IjU3Mi40NzY2Ii8+PHRleHQgZmlsbD0iIzAwMDAwMCIgZm9udC1mYW1pbHk9InNhbnMtc2VyaWYiIGZvbnQtc2l6ZT0iMTQiIGxlbmd0aEFkanVzdD0ic3BhY2luZyIgdGV4dExlbmd0aD0iMTA1IiB4PSIxNTczIiB5PSI1NzkuNzE4OCI+c291cmNlX2Rpcjogc3RyPC90ZXh0PjxsaW5lIHN0eWxlPSJzdHJva2U6IzE4MTgxODtzdHJva2Utd2lkdGg6MC41OyIgeDE9IjE1NTQiIHgyPSIxNjk5IiB5MT0iNTg1LjQ2ODgiIHkyPSI1ODUuNDY4OCIvPjxlbGxpcHNlIGN4PSIxNTY0IiBjeT0iNTk4LjQ2MDkiIGZpbGw9IiM4NEJFODQiIHJ4PSIzIiByeT0iMyIgc3R5bGU9InN0cm9rZTojMDM4MDQ4O3N0cm9rZS13aWR0aDoxLjA7Ii8+PHRleHQgZmlsbD0iIzAwMDAwMCIgZm9udC1mYW1pbHk9InNhbnMtc2VyaWYiIGZvbnQtc2l6ZT0iMTQiIGxlbmd0aEFkanVzdD0ic3BhY2luZyIgdGV4dExlbmd0aD0iMTIxIiB4PSIxNTczIiB5PSI2MDIuNzAzMSI+aW5pdF9kYXRhKCk6IGJvb2w8L3RleHQ+PGVsbGlwc2UgY3g9IjE1NjQiIGN5PSI2MTMuNDQ1MyIgZmlsbD0iIzg0QkU4NCIgcng9IjMiIHJ5PSIzIiBzdHlsZT0ic3Ryb2tlOiMwMzgwNDg7c3Ryb2tlLXdpZHRoOjEuMDsiLz48dGV4dCBmaWxsPSIjMDAwMDAwIiBmb250LWZhbWlseT0ic2Fucy1zZXJpZiIgZm9udC1zaXplPSIxNCIgbGVuZ3RoQWRqdXN0PSJzcGFjaW5nIiB0ZXh0TGVuZ3RoPSIxMDciIHg9IjE1NzMiIHk9IjYxNy42ODc1Ij5wcm9jZXNzKCk6IGJvb2w8L3RleHQ+PC9nPjwhLS1jbGFzcyBPYmplY3QzZFBvaUVUTC0tPjxnIGlkPSJlbGVtX09iamVjdDNkUG9pRVRMIj48cmVjdCBjb2RlTGluZT0iNzAiIGZpbGw9IiNGMUYxRjEiIGhlaWdodD0iMTA3LjkzNzUiIGlkPSJPYmplY3QzZFBvaUVUTCIgcng9IjIuNSIgcnk9IjIuNSIgc3R5bGU9InN0cm9rZTojMTgxODE4O3N0cm9rZS13aWR0aDowLjU7IiB3aWR0aD0iMTUyIiB4PSIxNzM1LjUiIHk9IjUxNS41Ii8+PGVsbGlwc2UgY3g9IjE3NjAuNCIgY3k9IjUzMS41IiBmaWxsPSIjQUREMUIyIiByeD0iMTEiIHJ5PSIxMSIgc3R5bGU9InN0cm9rZTojMTgxODE4O3N0cm9rZS13aWR0aDoxLjA7Ii8+PHBhdGggZD0iTTE3NTguMDI1LDUzNS43NSBMMTc1OC4wMjUsNTM3LjUgTDE3NjIuOTYyNSw1MzcuNSBMMTc2Mi45NjI1LDUzNS43NSBMMTc1OC4wMjUsNTM1Ljc1IFogTTE3NTguNzEyNSw1MzYuNDM3NSBRMTc1OC43MTI1LDUzNi40Mzc1IDE3NTguNzEyNSw1MjcuMjUgTDE3NTYuOTYyNSw1MjcuMjUgUTE3NTYuOTYyNSw1MjcuMjUgMTc1Ni45NjI1LDUzNi40Mzc1IEwxNzU4LjcxMjUsNTM2LjQzNzUgWiBNMTc2Mi4yNzUsNTM2LjQzNzUgTDE3NjQuMDI1LDUzNi40Mzc1IFExNzY0LjAyNSw1MzYuNDM3NSAxNzY0LjAyNSw1MzMuNjI1IEwxNzYyLjI3NSw1MzMuNjI1IFExNzYyLjI3NSw1MzMuNjI1IDE3NjIuMjc1LDUzNi40Mzc1IFogTTE3NjIuMjc1LDUyNy4yNSBRMTc2Mi4yNzUsNTI3LjI1IDE3NjIuMjc1LDUzMC4wNjI1IEwxNzY0LjAyNSw1MzAuMDYyNSBRMTc2NC4wMjUsNTMwLjA2MjUgMTc2NC4wMjUsNTI3LjI1IEwxNzYyLjI3NSw1MjcuMjUgWiBNMTc1OC4wMjUsNTI3LjkzNzUgTDE3NjIuOTYyNSw1MjcuOTM3NSBMMTc2Mi45NjI1LDUyNi4xODc1IEwxNzU4LjAyNSw1MjYuMTg3NSBMMTc1OC4wMjUsNTI3LjkzNzUgWiAiIGZpbGw9IiMwMDAwMDAiLz48dGV4dCBmaWxsPSIjMDAwMDAwIiBmb250LWZhbWlseT0ic2Fucy1zZXJpZiIgZm9udC1zaXplPSIxNCIgbGVuZ3RoQWRqdXN0PSJzcGFjaW5nIiB0ZXh0TGVuZ3RoPSI5OCIgeD0iMTc3Ni42IiB5PSI1MzcuMjQyMiI+T2JqZWN0M2RQb2lFVEw8L3RleHQ+PGxpbmUgc3R5bGU9InN0cm9rZTojMTgxODE4O3N0cm9rZS13aWR0aDowLjU7IiB4MT0iMTczNi41IiB4Mj0iMTg4Ni41IiB5MT0iNTQ3LjUiIHkyPSI1NDcuNSIvPjxyZWN0IGZpbGw9Im5vbmUiIGhlaWdodD0iNiIgc3R5bGU9InN0cm9rZTojQzgyOTMwO3N0cm9rZS13aWR0aDoxLjA7IiB3aWR0aD0iNiIgeD0iMTc0My41IiB5PSI1NTcuNDkyMiIvPjx0ZXh0IGZpbGw9IiMwMDAwMDAiIGZvbnQtZmFtaWx5PSJzYW5zLXNlcmlmIiBmb250LXNpemU9IjE0IiBsZW5ndGhBZGp1c3Q9InNwYWNpbmciIHRleHRMZW5ndGg9IjEyNiIgeD0iMTc1NS41IiB5PSI1NjQuNzM0NCI+cG9kX2Rlc3RfcGF0aDogc3RyPC90ZXh0PjxyZWN0IGZpbGw9Im5vbmUiIGhlaWdodD0iNiIgc3R5bGU9InN0cm9rZTojQzgyOTMwO3N0cm9rZS13aWR0aDoxLjA7IiB3aWR0aD0iNiIgeD0iMTc0My41IiB5PSI1NzIuNDc2NiIvPjx0ZXh0IGZpbGw9IiMwMDAwMDAiIGZvbnQtZmFtaWx5PSJzYW5zLXNlcmlmIiBmb250LXNpemU9IjE0IiBsZW5ndGhBZGp1c3Q9InNwYWNpbmciIHRleHRMZW5ndGg9IjEyNiIgeD0iMTc1NS41IiB5PSI1NzkuNzE4OCI+Y29zX2Rlc3RfcGF0aDogc3RyPC90ZXh0PjxsaW5lIHN0eWxlPSJzdHJva2U6IzE4MTgxODtzdHJva2Utd2lkdGg6MC41OyIgeDE9IjE3MzYuNSIgeDI9IjE4ODYuNSIgeTE9IjU4NS40Njg4IiB5Mj0iNTg1LjQ2ODgiLz48ZWxsaXBzZSBjeD0iMTc0Ni41IiBjeT0iNTk4LjQ2MDkiIGZpbGw9IiM4NEJFODQiIHJ4PSIzIiByeT0iMyIgc3R5bGU9InN0cm9rZTojMDM4MDQ4O3N0cm9rZS13aWR0aDoxLjA7Ii8+PHRleHQgZmlsbD0iIzAwMDAwMCIgZm9udC1mYW1pbHk9InNhbnMtc2VyaWYiIGZvbnQtc2l6ZT0iMTQiIGxlbmd0aEFkanVzdD0ic3BhY2luZyIgdGV4dExlbmd0aD0iMTIxIiB4PSIxNzU1LjUiIHk9IjYwMi43MDMxIj5pbml0X2RhdGEoKTogYm9vbDwvdGV4dD48ZWxsaXBzZSBjeD0iMTc0Ni41IiBjeT0iNjEzLjQ0NTMiIGZpbGw9IiM4NEJFODQiIHJ4PSIzIiByeT0iMyIgc3R5bGU9InN0cm9rZTojMDM4MDQ4O3N0cm9rZS13aWR0aDoxLjA7Ii8+PHRleHQgZmlsbD0iIzAwMDAwMCIgZm9udC1mYW1pbHk9InNhbnMtc2VyaWYiIGZvbnQtc2l6ZT0iMTQiIGxlbmd0aEFkanVzdD0ic3BhY2luZyIgdGV4dExlbmd0aD0iMTA3IiB4PSIxNzU1LjUiIHk9IjYxNy42ODc1Ij5wcm9jZXNzKCk6IGJvb2w8L3RleHQ+PC9nPjwhLS1jbGFzcyBSZWxlYXNlRVRMLS0+PGcgaWQ9ImVsZW1fUmVsZWFzZUVUTCI+PHJlY3QgY29kZUxpbmU9Ijc3IiBmaWxsPSIjRjFGMUYxIiBoZWlnaHQ9IjE1Mi44OTA2IiBpZD0iUmVsZWFzZUVUTCIgcng9IjIuNSIgcnk9IjIuNSIgc3R5bGU9InN0cm9rZTojMTgxODE4O3N0cm9rZS13aWR0aDowLjU7IiB3aWR0aD0iMTk0IiB4PSIxOTIyLjUiIHk9IjQ5MyIvPjxlbGxpcHNlIGN4PSIxOTgwLjI1IiBjeT0iNTA5IiBmaWxsPSIjQUREMUIyIiByeD0iMTEiIHJ5PSIxMSIgc3R5bGU9InN0cm9rZTojMTgxODE4O3N0cm9rZS13aWR0aDoxLjA7Ii8+PHBhdGggZD0iTTE5NzcuODc1LDUxMy4yNSBMMTk3Ny44NzUsNTE1IEwxOTgyLjgxMjUsNTE1IEwxOTgyLjgxMjUsNTEzLjI1IEwxOTc3Ljg3NSw1MTMuMjUgWiBNMTk3OC41NjI1LDUxMy45Mzc1IFExOTc4LjU2MjUsNTEzLjkzNzUgMTk3OC41NjI1LDUwNC43NSBMMTk3Ni44MTI1LDUwNC43NSBRMTk3Ni44MTI1LDUwNC43NSAxOTc2LjgxMjUsNTEzLjkzNzUgTDE5NzguNTYyNSw1MTMuOTM3NSBaIE0xOTgyLjEyNSw1MTMuOTM3NSBMMTk4My44NzUsNTEzLjkzNzUgUTE5ODMuODc1LDUxMy45Mzc1IDE5ODMuODc1LDUxMS4xMjUgTDE5ODIuMTI1LDUxMS4xMjUgUTE5ODIuMTI1LDUxMS4xMjUgMTk4Mi4xMjUsNTEzLjkzNzUgWiBNMTk4Mi4xMjUsNTA0Ljc1IFExOTgyLjEyNSw1MDQuNzUgMTk4Mi4xMjUsNTA3LjU2MjUgTDE5ODMuODc1LDUwNy41NjI1IFExOTgzLjg3NSw1MDcuNTYyNSAxOTgzLjg3NSw1MDQuNzUgTDE5ODIuMTI1LDUwNC43NSBaIE0xOTc3Ljg3NSw1MDUuNDM3NSBMMTk4Mi44MTI1LDUwNS40Mzc1IEwxOTgyLjgxMjUsNTAzLjY4NzUgTDE5NzcuODc1LDUwMy42ODc1IEwxOTc3Ljg3NSw1MDUuNDM3NSBaICIgZmlsbD0iIzAwMDAwMCIvPjx0ZXh0IGZpbGw9IiMwMDAwMDAiIGZvbnQtZmFtaWx5PSJzYW5zLXNlcmlmIiBmb250LXNpemU9IjE0IiBsZW5ndGhBZGp1c3Q9InNwYWNpbmciIHRleHRMZW5ndGg9IjcwIiB4PSIyMDAwLjc1IiB5PSI1MTQuNzQyMiI+UmVsZWFzZUVUTDwvdGV4dD48bGluZSBzdHlsZT0ic3Ryb2tlOiMxODE4MTg7c3Ryb2tlLXdpZHRoOjAuNTsiIHgxPSIxOTIzLjUiIHgyPSIyMTE1LjUiIHkxPSI1MjUiIHkyPSI1MjUiLz48cmVjdCBmaWxsPSJub25lIiBoZWlnaHQ9IjYiIHN0eWxlPSJzdHJva2U6I0M4MjkzMDtzdHJva2Utd2lkdGg6MS4wOyIgd2lkdGg9IjYiIHg9IjE5MzAuNSIgeT0iNTM0Ljk5MjIiLz48dGV4dCBmaWxsPSIjMDAwMDAwIiBmb250LWZhbWlseT0ic2Fucy1zZXJpZiIgZm9udC1zaXplPSIxNCIgbGVuZ3RoQWRqdXN0PSJzcGFjaW5nIiB0ZXh0TGVuZ3RoPSIxMTkiIHg9IjE5NDIuNSIgeT0iNTQyLjIzNDQiPnBvZF9kZXN0X2Rpcjogc3RyPC90ZXh0PjxyZWN0IGZpbGw9Im5vbmUiIGhlaWdodD0iNiIgc3R5bGU9InN0cm9rZTojQzgyOTMwO3N0cm9rZS13aWR0aDoxLjA7IiB3aWR0aD0iNiIgeD0iMTkzMC41IiB5PSI1NDkuOTc2NiIvPjx0ZXh0IGZpbGw9IiMwMDAwMDAiIGZvbnQtZmFtaWx5PSJzYW5zLXNlcmlmIiBmb250LXNpemU9IjE0IiBsZW5ndGhBZGp1c3Q9InNwYWNpbmciIHRleHRMZW5ndGg9IjE2OCIgeD0iMTk0Mi41IiB5PSI1NTcuMjE4OCI+cG9kX3NvdXJjZV9kYXRhX2Rpcjogc3RyPC90ZXh0PjxyZWN0IGZpbGw9Im5vbmUiIGhlaWdodD0iNiIgc3R5bGU9InN0cm9rZTojQzgyOTMwO3N0cm9rZS13aWR0aDoxLjA7IiB3aWR0aD0iNiIgeD0iMTkzMC41IiB5PSI1NjQuOTYwOSIvPjx0ZXh0IGZpbGw9IiMwMDAwMDAiIGZvbnQtZmFtaWx5PSJzYW5zLXNlcmlmIiBmb250LXNpemU9IjE0IiBsZW5ndGhBZGp1c3Q9InNwYWNpbmciIHRleHRMZW5ndGg9IjEyNiIgeD0iMTk0Mi41IiB5PSI1NzIuMjAzMSI+Y29zX2Rlc3RfcGF0aDogc3RyPC90ZXh0PjxyZWN0IGZpbGw9Im5vbmUiIGhlaWdodD0iNiIgc3R5bGU9InN0cm9rZTojQzgyOTMwO3N0cm9rZS13aWR0aDoxLjA7IiB3aWR0aD0iNiIgeD0iMTkzMC41IiB5PSI1NzkuOTQ1MyIvPjx0ZXh0IGZpbGw9IiMwMDAwMDAiIGZvbnQtZmFtaWx5PSJzYW5zLXNlcmlmIiBmb250LXNpemU9IjE0IiBsZW5ndGhBZGp1c3Q9InNwYWNpbmciIHRleHRMZW5ndGg9IjEzMyIgeD0iMTk0Mi41IiB5PSI1ODcuMTg3NSI+amluZ3lpX2Nvc19kaXI6IHN0cjwvdGV4dD48cmVjdCBmaWxsPSJub25lIiBoZWlnaHQ9IjYiIHN0eWxlPSJzdHJva2U6I0M4MjkzMDtzdHJva2Utd2lkdGg6MS4wOyIgd2lkdGg9IjYiIHg9IjE5MzAuNSIgeT0iNTk0LjkyOTciLz48dGV4dCBmaWxsPSIjMDAwMDAwIiBmb250LWZhbWlseT0ic2Fucy1zZXJpZiIgZm9udC1zaXplPSIxNCIgbGVuZ3RoQWRqdXN0PSJzcGFjaW5nIiB0ZXh0TGVuZ3RoPSIxMzMiIHg9IjE5NDIuNSIgeT0iNjAyLjE3MTkiPmxhdGVzdF92ZXJzaW9uOiBzdHI8L3RleHQ+PGxpbmUgc3R5bGU9InN0cm9rZTojMTgxODE4O3N0cm9rZS13aWR0aDowLjU7IiB4MT0iMTkyMy41IiB4Mj0iMjExNS41IiB5MT0iNjA3LjkyMTkiIHkyPSI2MDcuOTIxOSIvPjxlbGxpcHNlIGN4PSIxOTMzLjUiIGN5PSI2MjAuOTE0MSIgZmlsbD0iIzg0QkU4NCIgcng9IjMiIHJ5PSIzIiBzdHlsZT0ic3Ryb2tlOiMwMzgwNDg7c3Ryb2tlLXdpZHRoOjEuMDsiLz48dGV4dCBmaWxsPSIjMDAwMDAwIiBmb250LWZhbWlseT0ic2Fucy1zZXJpZiIgZm9udC1zaXplPSIxNCIgbGVuZ3RoQWRqdXN0PSJzcGFjaW5nIiB0ZXh0TGVuZ3RoPSIxMjEiIHg9IjE5NDIuNSIgeT0iNjI1LjE1NjMiPmluaXRfZGF0YSgpOiBib29sPC90ZXh0PjxlbGxpcHNlIGN4PSIxOTMzLjUiIGN5PSI2MzUuODk4NCIgZmlsbD0iIzg0QkU4NCIgcng9IjMiIHJ5PSIzIiBzdHlsZT0ic3Ryb2tlOiMwMzgwNDg7c3Ryb2tlLXdpZHRoOjEuMDsiLz48dGV4dCBmaWxsPSIjMDAwMDAwIiBmb250LWZhbWlseT0ic2Fucy1zZXJpZiIgZm9udC1zaXplPSIxNCIgbGVuZ3RoQWRqdXN0PSJzcGFjaW5nIiB0ZXh0TGVuZ3RoPSIxMDciIHg9IjE5NDIuNSIgeT0iNjQwLjE0MDYiPnByb2Nlc3MoKTogYm9vbDwvdGV4dD48L2c+PCEtLWNsYXNzIEludGVyc2lvbkVUTC0tPjxnIGlkPSJlbGVtX0ludGVyc2lvbkVUTCI+PHJlY3QgY29kZUxpbmU9Ijg3IiBmaWxsPSIjRjFGMUYxIiBoZWlnaHQ9Ijc3Ljk2ODgiIGlkPSJJbnRlcnNpb25FVEwiIHJ4PSIyLjUiIHJ5PSIyLjUiIHN0eWxlPSJzdHJva2U6IzE4MTgxODtzdHJva2Utd2lkdGg6MC41OyIgd2lkdGg9IjE0NyIgeD0iMjE1MiIgeT0iNTMwLjUiLz48ZWxsaXBzZSBjeD0iMjE4MC45NSIgY3k9IjU0Ni41IiBmaWxsPSIjQUREMUIyIiByeD0iMTEiIHJ5PSIxMSIgc3R5bGU9InN0cm9rZTojMTgxODE4O3N0cm9rZS13aWR0aDoxLjA7Ii8+PHBhdGggZD0iTTIxNzguNTc1LDU1MC43NSBMMjE3OC41NzUsNTUyLjUgTDIxODMuNTEyNSw1NTIuNSBMMjE4My41MTI1LDU1MC43NSBMMjE3OC41NzUsNTUwLjc1IFogTTIxNzkuMjYyNSw1NTEuNDM3NSBRMjE3OS4yNjI1LDU1MS40Mzc1IDIxNzkuMjYyNSw1NDIuMjUgTDIxNzcuNTEyNSw1NDIuMjUgUTIxNzcuNTEyNSw1NDIuMjUgMjE3Ny41MTI1LDU1MS40Mzc1IEwyMTc5LjI2MjUsNTUxLjQzNzUgWiBNMjE4Mi44MjUsNTUxLjQzNzUgTDIxODQuNTc1LDU1MS40Mzc1IFEyMTg0LjU3NSw1NTEuNDM3NSAyMTg0LjU3NSw1NDguNjI1IEwyMTgyLjgyNSw1NDguNjI1IFEyMTgyLjgyNSw1NDguNjI1IDIxODIuODI1LDU1MS40Mzc1IFogTTIxODIuODI1LDU0Mi4yNSBRMjE4Mi44MjUsNTQyLjI1IDIxODIuODI1LDU0NS4wNjI1IEwyMTg0LjU3NSw1NDUuMDYyNSBRMjE4NC41NzUsNTQ1LjA2MjUgMjE4NC41NzUsNTQyLjI1IEwyMTgyLjgyNSw1NDIuMjUgWiBNMjE3OC41NzUsNTQyLjkzNzUgTDIxODMuNTEyNSw1NDIuOTM3NSBMMjE4My41MTI1LDU0MS4xODc1IEwyMTc4LjU3NSw1NDEuMTg3NSBMMjE3OC41NzUsNTQyLjkzNzUgWiAiIGZpbGw9IiMwMDAwMDAiLz48dGV4dCBmaWxsPSIjMDAwMDAwIiBmb250LWZhbWlseT0ic2Fucy1zZXJpZiIgZm9udC1zaXplPSIxNCIgbGVuZ3RoQWRqdXN0PSJzcGFjaW5nIiB0ZXh0TGVuZ3RoPSI4NCIgeD0iMjE5OC4wNSIgeT0iNTUyLjI0MjIiPkludGVyc2lvbkVUTDwvdGV4dD48bGluZSBzdHlsZT0ic3Ryb2tlOiMxODE4MTg7c3Ryb2tlLXdpZHRoOjAuNTsiIHgxPSIyMTUzIiB4Mj0iMjI5OCIgeTE9IjU2Mi41IiB5Mj0iNTYyLjUiLz48bGluZSBzdHlsZT0ic3Ryb2tlOiMxODE4MTg7c3Ryb2tlLXdpZHRoOjAuNTsiIHgxPSIyMTUzIiB4Mj0iMjI5OCIgeTE9IjU3MC41IiB5Mj0iNTcwLjUiLz48ZWxsaXBzZSBjeD0iMjE2MyIgY3k9IjU4My40OTIyIiBmaWxsPSIjODRCRTg0IiByeD0iMyIgcnk9IjMiIHN0eWxlPSJzdHJva2U6IzAzODA0ODtzdHJva2Utd2lkdGg6MS4wOyIvPjx0ZXh0IGZpbGw9IiMwMDAwMDAiIGZvbnQtZmFtaWx5PSJzYW5zLXNlcmlmIiBmb250LXNpemU9IjE0IiBsZW5ndGhBZGp1c3Q9InNwYWNpbmciIHRleHRMZW5ndGg9IjEyMSIgeD0iMjE3MiIgeT0iNTg3LjczNDQiPmluaXRfZGF0YSgpOiBib29sPC90ZXh0PjxlbGxpcHNlIGN4PSIyMTYzIiBjeT0iNTk4LjQ3NjYiIGZpbGw9IiM4NEJFODQiIHJ4PSIzIiByeT0iMyIgc3R5bGU9InN0cm9rZTojMDM4MDQ4O3N0cm9rZS13aWR0aDoxLjA7Ii8+PHRleHQgZmlsbD0iIzAwMDAwMCIgZm9udC1mYW1pbHk9InNhbnMtc2VyaWYiIGZvbnQtc2l6ZT0iMTQiIGxlbmd0aEFkanVzdD0ic3BhY2luZyIgdGV4dExlbmd0aD0iMTA3IiB4PSIyMTcyIiB5PSI2MDIuNzE4OCI+cHJvY2VzcygpOiBib29sPC90ZXh0PjwvZz48IS0tY2xhc3MgSW50ZXJzaW9uNGtFVEwtLT48ZyBpZD0iZWxlbV9JbnRlcnNpb240a0VUTCI+PHJlY3QgY29kZUxpbmU9IjkyIiBmaWxsPSIjRjFGMUYxIiBoZWlnaHQ9Ijc3Ljk2ODgiIGlkPSJJbnRlcnNpb240a0VUTCIgcng9IjIuNSIgcnk9IjIuNSIgc3R5bGU9InN0cm9rZTojMTgxODE4O3N0cm9rZS13aWR0aDowLjU7IiB3aWR0aD0iMTQ3IiB4PSIyMzM0IiB5PSI1MzAuNSIvPjxlbGxpcHNlIGN4PSIyMzU2LjY1IiBjeT0iNTQ2LjUiIGZpbGw9IiNBREQxQjIiIHJ4PSIxMSIgcnk9IjExIiBzdHlsZT0ic3Ryb2tlOiMxODE4MTg7c3Ryb2tlLXdpZHRoOjEuMDsiLz48cGF0aCBkPSJNMjM1NC4yNzUsNTUwLjc1IEwyMzU0LjI3NSw1NTIuNSBMMjM1OS4yMTI1LDU1Mi41IEwyMzU5LjIxMjUsNTUwLjc1IEwyMzU0LjI3NSw1NTAuNzUgWiBNMjM1NC45NjI1LDU1MS40Mzc1IFEyMzU0Ljk2MjUsNTUxLjQzNzUgMjM1NC45NjI1LDU0Mi4yNSBMMjM1My4yMTI1LDU0Mi4yNSBRMjM1My4yMTI1LDU0Mi4yNSAyMzUzLjIxMjUsNTUxLjQzNzUgTDIzNTQuOTYyNSw1NTEuNDM3NSBaIE0yMzU4LjUyNSw1NTEuNDM3NSBMMjM2MC4yNzUsNTUxLjQzNzUgUTIzNjAuMjc1LDU1MS40Mzc1IDIzNjAuMjc1LDU0OC42MjUgTDIzNTguNTI1LDU0OC42MjUgUTIzNTguNTI1LDU0OC42MjUgMjM1OC41MjUsNTUxLjQzNzUgWiBNMjM1OC41MjUsNTQyLjI1IFEyMzU4LjUyNSw1NDIuMjUgMjM1OC41MjUsNTQ1LjA2MjUgTDIzNjAuMjc1LDU0NS4wNjI1IFEyMzYwLjI3NSw1NDUuMDYyNSAyMzYwLjI3NSw1NDIuMjUgTDIzNTguNTI1LDU0Mi4yNSBaIE0yMzU0LjI3NSw1NDIuOTM3NSBMMjM1OS4yMTI1LDU0Mi45Mzc1IEwyMzU5LjIxMjUsNTQxLjE4NzUgTDIzNTQuMjc1LDU0MS4xODc1IEwyMzU0LjI3NSw1NDIuOTM3NSBaICIgZmlsbD0iIzAwMDAwMCIvPjx0ZXh0IGZpbGw9IiMwMDAwMDAiIGZvbnQtZmFtaWx5PSJzYW5zLXNlcmlmIiBmb250LXNpemU9IjE0IiBsZW5ndGhBZGp1c3Q9InNwYWNpbmciIHRleHRMZW5ndGg9Ijk4IiB4PSIyMzcyLjM1IiB5PSI1NTIuMjQyMiI+SW50ZXJzaW9uNGtFVEw8L3RleHQ+PGxpbmUgc3R5bGU9InN0cm9rZTojMTgxODE4O3N0cm9rZS13aWR0aDowLjU7IiB4MT0iMjMzNSIgeDI9IjI0ODAiIHkxPSI1NjIuNSIgeTI9IjU2Mi41Ii8+PGxpbmUgc3R5bGU9InN0cm9rZTojMTgxODE4O3N0cm9rZS13aWR0aDowLjU7IiB4MT0iMjMzNSIgeDI9IjI0ODAiIHkxPSI1NzAuNSIgeTI9IjU3MC41Ii8+PGVsbGlwc2UgY3g9IjIzNDUiIGN5PSI1ODMuNDkyMiIgZmlsbD0iIzg0QkU4NCIgcng9IjMiIHJ5PSIzIiBzdHlsZT0ic3Ryb2tlOiMwMzgwNDg7c3Ryb2tlLXdpZHRoOjEuMDsiLz48dGV4dCBmaWxsPSIjMDAwMDAwIiBmb250LWZhbWlseT0ic2Fucy1zZXJpZiIgZm9udC1zaXplPSIxNCIgbGVuZ3RoQWRqdXN0PSJzcGFjaW5nIiB0ZXh0TGVuZ3RoPSIxMjEiIHg9IjIzNTQiIHk9IjU4Ny43MzQ0Ij5pbml0X2RhdGEoKTogYm9vbDwvdGV4dD48ZWxsaXBzZSBjeD0iMjM0NSIgY3k9IjU5OC40NzY2IiBmaWxsPSIjODRCRTg0IiByeD0iMyIgcnk9IjMiIHN0eWxlPSJzdHJva2U6IzAzODA0ODtzdHJva2Utd2lkdGg6MS4wOyIvPjx0ZXh0IGZpbGw9IiMwMDAwMDAiIGZvbnQtZmFtaWx5PSJzYW5zLXNlcmlmIiBmb250LXNpemU9IjE0IiBsZW5ndGhBZGp1c3Q9InNwYWNpbmciIHRleHRMZW5ndGg9IjEwNyIgeD0iMjM1NCIgeT0iNjAyLjcxODgiPnByb2Nlc3MoKTogYm9vbDwvdGV4dD48L2c+PCEtLWNsYXNzIE9yaWdpbkVUTC0tPjxnIGlkPSJlbGVtX09yaWdpbkVUTCI+PHJlY3QgY29kZUxpbmU9Ijk3IiBmaWxsPSIjRjFGMUYxIiBoZWlnaHQ9Ijc3Ljk2ODgiIGlkPSJPcmlnaW5FVEwiIHJ4PSIyLjUiIHJ5PSIyLjUiIHN0eWxlPSJzdHJva2U6IzE4MTgxODtzdHJva2Utd2lkdGg6MC41OyIgd2lkdGg9IjE0NyIgeD0iMjUxNiIgeT0iNTMwLjUiLz48ZWxsaXBzZSBjeD0iMjU1NC40IiBjeT0iNTQ2LjUiIGZpbGw9IiNBREQxQjIiIHJ4PSIxMSIgcnk9IjExIiBzdHlsZT0ic3Ryb2tlOiMxODE4MTg7c3Ryb2tlLXdpZHRoOjEuMDsiLz48cGF0aCBkPSJNMjU1Mi4wMjUsNTUwLjc1IEwyNTUyLjAyNSw1NTIuNSBMMjU1Ni45NjI1LDU1Mi41IEwyNTU2Ljk2MjUsNTUwLjc1IEwyNTUyLjAyNSw1NTAuNzUgWiBNMjU1Mi43MTI1LDU1MS40Mzc1IFEyNTUyLjcxMjUsNTUxLjQzNzUgMjU1Mi43MTI1LDU0Mi4yNSBMMjU1MC45NjI1LDU0Mi4yNSBRMjU1MC45NjI1LDU0Mi4yNSAyNTUwLjk2MjUsNTUxLjQzNzUgTDI1NTIuNzEyNSw1NTEuNDM3NSBaIE0yNTU2LjI3NSw1NTEuNDM3NSBMMjU1OC4wMjUsNTUxLjQzNzUgUTI1NTguMDI1LDU1MS40Mzc1IDI1NTguMDI1LDU0OC42MjUgTDI1NTYuMjc1LDU0OC42MjUgUTI1NTYuMjc1LDU0OC42MjUgMjU1Ni4yNzUsNTUxLjQzNzUgWiBNMjU1Ni4yNzUsNTQyLjI1IFEyNTU2LjI3NSw1NDIuMjUgMjU1Ni4yNzUsNTQ1LjA2MjUgTDI1NTguMDI1LDU0NS4wNjI1IFEyNTU4LjAyNSw1NDUuMDYyNSAyNTU4LjAyNSw1NDIuMjUgTDI1NTYuMjc1LDU0Mi4yNSBaIE0yNTUyLjAyNSw1NDIuOTM3NSBMMjU1Ni45NjI1LDU0Mi45Mzc1IEwyNTU2Ljk2MjUsNTQxLjE4NzUgTDI1NTIuMDI1LDU0MS4xODc1IEwyNTUyLjAyNSw1NDIuOTM3NSBaICIgZmlsbD0iIzAwMDAwMCIvPjx0ZXh0IGZpbGw9IiMwMDAwMDAiIGZvbnQtZmFtaWx5PSJzYW5zLXNlcmlmIiBmb250LXNpemU9IjE0IiBsZW5ndGhBZGp1c3Q9InNwYWNpbmciIHRleHRMZW5ndGg9IjYzIiB4PSIyNTczLjYiIHk9IjU1Mi4yNDIyIj5PcmlnaW5FVEw8L3RleHQ+PGxpbmUgc3R5bGU9InN0cm9rZTojMTgxODE4O3N0cm9rZS13aWR0aDowLjU7IiB4MT0iMjUxNyIgeDI9IjI2NjIiIHkxPSI1NjIuNSIgeTI9IjU2Mi41Ii8+PGxpbmUgc3R5bGU9InN0cm9rZTojMTgxODE4O3N0cm9rZS13aWR0aDowLjU7IiB4MT0iMjUxNyIgeDI9IjI2NjIiIHkxPSI1NzAuNSIgeTI9IjU3MC41Ii8+PGVsbGlwc2UgY3g9IjI1MjciIGN5PSI1ODMuNDkyMiIgZmlsbD0iIzg0QkU4NCIgcng9IjMiIHJ5PSIzIiBzdHlsZT0ic3Ryb2tlOiMwMzgwNDg7c3Ryb2tlLXdpZHRoOjEuMDsiLz48dGV4dCBmaWxsPSIjMDAwMDAwIiBmb250LWZhbWlseT0ic2Fucy1zZXJpZiIgZm9udC1zaXplPSIxNCIgbGVuZ3RoQWRqdXN0PSJzcGFjaW5nIiB0ZXh0TGVuZ3RoPSIxMjEiIHg9IjI1MzYiIHk9IjU4Ny43MzQ0Ij5pbml0X2RhdGEoKTogYm9vbDwvdGV4dD48ZWxsaXBzZSBjeD0iMjUyNyIgY3k9IjU5OC40NzY2IiBmaWxsPSIjODRCRTg0IiByeD0iMyIgcnk9IjMiIHN0eWxlPSJzdHJva2U6IzAzODA0ODtzdHJva2Utd2lkdGg6MS4wOyIvPjx0ZXh0IGZpbGw9IiMwMDAwMDAiIGZvbnQtZmFtaWx5PSJzYW5zLXNlcmlmIiBmb250LXNpemU9IjE0IiBsZW5ndGhBZGp1c3Q9InNwYWNpbmciIHRleHRMZW5ndGg9IjEwNyIgeD0iMjUzNiIgeT0iNjAyLjcxODgiPnByb2Nlc3MoKTogYm9vbDwvdGV4dD48L2c+PCEtLWNsYXNzIEJncG9pRVRMLS0+PGcgaWQ9ImVsZW1fQmdwb2lFVEwiPjxyZWN0IGNvZGVMaW5lPSIxMDIiIGZpbGw9IiNGMUYxRjEiIGhlaWdodD0iNzcuOTY4OCIgaWQ9IkJncG9pRVRMIiByeD0iMi41IiByeT0iMi41IiBzdHlsZT0ic3Ryb2tlOiMxODE4MTg7c3Ryb2tlLXdpZHRoOjAuNTsiIHdpZHRoPSIxNDciIHg9IjI2OTgiIHk9IjUzMC41Ii8+PGVsbGlwc2UgY3g9IjI3MzkuNTUiIGN5PSI1NDYuNSIgZmlsbD0iI0FERDFCMiIgcng9IjExIiByeT0iMTEiIHN0eWxlPSJzdHJva2U6IzE4MTgxODtzdHJva2Utd2lkdGg6MS4wOyIvPjxwYXRoIGQ9Ik0yNzM3LjE3NSw1NTAuNzUgTDI3MzcuMTc1LDU1Mi41IEwyNzQyLjExMjUsNTUyLjUgTDI3NDIuMTEyNSw1NTAuNzUgTDI3MzcuMTc1LDU1MC43NSBaIE0yNzM3Ljg2MjUsNTUxLjQzNzUgUTI3MzcuODYyNSw1NTEuNDM3NSAyNzM3Ljg2MjUsNTQyLjI1IEwyNzM2LjExMjUsNTQyLjI1IFEyNzM2LjExMjUsNTQyLjI1IDI3MzYuMTEyNSw1NTEuNDM3NSBMMjczNy44NjI1LDU1MS40Mzc1IFogTTI3NDEuNDI1LDU1MS40Mzc1IEwyNzQzLjE3NSw1NTEuNDM3NSBRMjc0My4xNzUsNTUxLjQzNzUgMjc0My4xNzUsNTQ4LjYyNSBMMjc0MS40MjUsNTQ4LjYyNSBRMjc0MS40MjUsNTQ4LjYyNSAyNzQxLjQyNSw1NTEuNDM3NSBaIE0yNzQxLjQyNSw1NDIuMjUgUTI3NDEuNDI1LDU0Mi4yNSAyNzQxLjQyNSw1NDUuMDYyNSBMMjc0My4xNzUsNTQ1LjA2MjUgUTI3NDMuMTc1LDU0NS4wNjI1IDI3NDMuMTc1LDU0Mi4yNSBMMjc0MS40MjUsNTQyLjI1IFogTTI3MzcuMTc1LDU0Mi45Mzc1IEwyNzQyLjExMjUsNTQyLjkzNzUgTDI3NDIuMTEyNSw1NDEuMTg3NSBMMjczNy4xNzUsNTQxLjE4NzUgTDI3MzcuMTc1LDU0Mi45Mzc1IFogIiBmaWxsPSIjMDAwMDAwIi8+PHRleHQgZmlsbD0iIzAwMDAwMCIgZm9udC1mYW1pbHk9InNhbnMtc2VyaWYiIGZvbnQtc2l6ZT0iMTQiIGxlbmd0aEFkanVzdD0ic3BhY2luZyIgdGV4dExlbmd0aD0iNTYiIHg9IjI3NTkuNDUiIHk9IjU1Mi4yNDIyIj5CZ3BvaUVUTDwvdGV4dD48bGluZSBzdHlsZT0ic3Ryb2tlOiMxODE4MTg7c3Ryb2tlLXdpZHRoOjAuNTsiIHgxPSIyNjk5IiB4Mj0iMjg0NCIgeTE9IjU2Mi41IiB5Mj0iNTYyLjUiLz48bGluZSBzdHlsZT0ic3Ryb2tlOiMxODE4MTg7c3Ryb2tlLXdpZHRoOjAuNTsiIHgxPSIyNjk5IiB4Mj0iMjg0NCIgeTE9IjU3MC41IiB5Mj0iNTcwLjUiLz48ZWxsaXBzZSBjeD0iMjcwOSIgY3k9IjU4My40OTIyIiBmaWxsPSIjODRCRTg0IiByeD0iMyIgcnk9IjMiIHN0eWxlPSJzdHJva2U6IzAzODA0ODtzdHJva2Utd2lkdGg6MS4wOyIvPjx0ZXh0IGZpbGw9IiMwMDAwMDAiIGZvbnQtZmFtaWx5PSJzYW5zLXNlcmlmIiBmb250LXNpemU9IjE0IiBsZW5ndGhBZGp1c3Q9InNwYWNpbmciIHRleHRMZW5ndGg9IjEyMSIgeD0iMjcxOCIgeT0iNTg3LjczNDQiPmluaXRfZGF0YSgpOiBib29sPC90ZXh0PjxlbGxpcHNlIGN4PSIyNzA5IiBjeT0iNTk4LjQ3NjYiIGZpbGw9IiM4NEJFODQiIHJ4PSIzIiByeT0iMyIgc3R5bGU9InN0cm9rZTojMDM4MDQ4O3N0cm9rZS13aWR0aDoxLjA7Ii8+PHRleHQgZmlsbD0iIzAwMDAwMCIgZm9udC1mYW1pbHk9InNhbnMtc2VyaWYiIGZvbnQtc2l6ZT0iMTQiIGxlbmd0aEFkanVzdD0ic3BhY2luZyIgdGV4dExlbmd0aD0iMTA3IiB4PSIyNzE4IiB5PSI2MDIuNzE4OCI+cHJvY2VzcygpOiBib29sPC90ZXh0PjwvZz48IS0tY2xhc3MgUm91dGVFVEwtLT48ZyBpZD0iZWxlbV9Sb3V0ZUVUTCI+PHJlY3QgY29kZUxpbmU9IjEwNyIgZmlsbD0iI0YxRjFGMSIgaGVpZ2h0PSI3Ny45Njg4IiBpZD0iUm91dGVFVEwiIHJ4PSIyLjUiIHJ5PSIyLjUiIHN0eWxlPSJzdHJva2U6IzE4MTgxODtzdHJva2Utd2lkdGg6MC41OyIgd2lkdGg9IjE0NyIgeD0iMjg4MCIgeT0iNTMwLjUiLz48ZWxsaXBzZSBjeD0iMjkyMS41NSIgY3k9IjU0Ni41IiBmaWxsPSIjQUREMUIyIiByeD0iMTEiIHJ5PSIxMSIgc3R5bGU9InN0cm9rZTojMTgxODE4O3N0cm9rZS13aWR0aDoxLjA7Ii8+PHBhdGggZD0iTTI5MTkuMTc1LDU1MC43NSBMMjkxOS4xNzUsNTUyLjUgTDI5MjQuMTEyNSw1NTIuNSBMMjkyNC4xMTI1LDU1MC43NSBMMjkxOS4xNzUsNTUwLjc1IFogTTI5MTkuODYyNSw1NTEuNDM3NSBRMjkxOS44NjI1LDU1MS40Mzc1IDI5MTkuODYyNSw1NDIuMjUgTDI5MTguMTEyNSw1NDIuMjUgUTI5MTguMTEyNSw1NDIuMjUgMjkxOC4xMTI1LDU1MS40Mzc1IEwyOTE5Ljg2MjUsNTUxLjQzNzUgWiBNMjkyMy40MjUsNTUxLjQzNzUgTDI5MjUuMTc1LDU1MS40Mzc1IFEyOTI1LjE3NSw1NTEuNDM3NSAyOTI1LjE3NSw1NDguNjI1IEwyOTIzLjQyNSw1NDguNjI1IFEyOTIzLjQyNSw1NDguNjI1IDI5MjMuNDI1LDU1MS40Mzc1IFogTTI5MjMuNDI1LDU0Mi4yNSBRMjkyMy40MjUsNTQyLjI1IDI5MjMuNDI1LDU0NS4wNjI1IEwyOTI1LjE3NSw1NDUuMDYyNSBRMjkyNS4xNzUsNTQ1LjA2MjUgMjkyNS4xNzUsNTQyLjI1IEwyOTIzLjQyNSw1NDIuMjUgWiBNMjkxOS4xNzUsNTQyLjkzNzUgTDI5MjQuMTEyNSw1NDIuOTM3NSBMMjkyNC4xMTI1LDU0MS4xODc1IEwyOTE5LjE3NSw1NDEuMTg3NSBMMjkxOS4xNzUsNTQyLjkzNzUgWiAiIGZpbGw9IiMwMDAwMDAiLz48dGV4dCBmaWxsPSIjMDAwMDAwIiBmb250LWZhbWlseT0ic2Fucy1zZXJpZiIgZm9udC1zaXplPSIxNCIgbGVuZ3RoQWRqdXN0PSJzcGFjaW5nIiB0ZXh0TGVuZ3RoPSI1NiIgeD0iMjk0MS40NSIgeT0iNTUyLjI0MjIiPlJvdXRlRVRMPC90ZXh0PjxsaW5lIHN0eWxlPSJzdHJva2U6IzE4MTgxODtzdHJva2Utd2lkdGg6MC41OyIgeDE9IjI4ODEiIHgyPSIzMDI2IiB5MT0iNTYyLjUiIHkyPSI1NjIuNSIvPjxsaW5lIHN0eWxlPSJzdHJva2U6IzE4MTgxODtzdHJva2Utd2lkdGg6MC41OyIgeDE9IjI4ODEiIHgyPSIzMDI2IiB5MT0iNTcwLjUiIHkyPSI1NzAuNSIvPjxlbGxpcHNlIGN4PSIyODkxIiBjeT0iNTgzLjQ5MjIiIGZpbGw9IiM4NEJFODQiIHJ4PSIzIiByeT0iMyIgc3R5bGU9InN0cm9rZTojMDM4MDQ4O3N0cm9rZS13aWR0aDoxLjA7Ii8+PHRleHQgZmlsbD0iIzAwMDAwMCIgZm9udC1mYW1pbHk9InNhbnMtc2VyaWYiIGZvbnQtc2l6ZT0iMTQiIGxlbmd0aEFkanVzdD0ic3BhY2luZyIgdGV4dExlbmd0aD0iMTIxIiB4PSIyOTAwIiB5PSI1ODcuNzM0NCI+aW5pdF9kYXRhKCk6IGJvb2w8L3RleHQ+PGVsbGlwc2UgY3g9IjI4OTEiIGN5PSI1OTguNDc2NiIgZmlsbD0iIzg0QkU4NCIgcng9IjMiIHJ5PSIzIiBzdHlsZT0ic3Ryb2tlOiMwMzgwNDg7c3Ryb2tlLXdpZHRoOjEuMDsiLz48dGV4dCBmaWxsPSIjMDAwMDAwIiBmb250LWZhbWlseT0ic2Fucy1zZXJpZiIgZm9udC1zaXplPSIxNCIgbGVuZ3RoQWRqdXN0PSJzcGFjaW5nIiB0ZXh0TGVuZ3RoPSIxMDciIHg9IjI5MDAiIHk9IjYwMi43MTg4Ij5wcm9jZXNzKCk6IGJvb2w8L3RleHQ+PC9nPjwhLS1jbGFzcyBUYXNrTW9uaXRvci0tPjxnIGlkPSJlbGVtX1Rhc2tNb25pdG9yIj48cmVjdCBjb2RlTGluZT0iMTEyIiBmaWxsPSIjRjFGMUYxIiBoZWlnaHQ9IjEzNy45MDYzIiBpZD0iVGFza01vbml0b3IiIHJ4PSIyLjUiIHJ5PSIyLjUiIHN0eWxlPSJzdHJva2U6IzE4MTgxODtzdHJva2Utd2lkdGg6MC41OyIgd2lkdGg9IjIwNCIgeD0iODMuNSIgeT0iMjIiLz48ZWxsaXBzZSBjeD0iMTQyLjc1IiBjeT0iMzgiIGZpbGw9IiNBREQxQjIiIHJ4PSIxMSIgcnk9IjExIiBzdHlsZT0ic3Ryb2tlOiMxODE4MTg7c3Ryb2tlLXdpZHRoOjEuMDsiLz48cGF0aCBkPSJNMTQwLjM3NSw0Mi4yNSBMMTQwLjM3NSw0NCBMMTQ1LjMxMjUsNDQgTDE0NS4zMTI1LDQyLjI1IEwxNDAuMzc1LDQyLjI1IFogTTE0MS4wNjI1LDQyLjkzNzUgUTE0MS4wNjI1LDQyLjkzNzUgMTQxLjA2MjUsMzMuNzUgTDEzOS4zMTI1LDMzLjc1IFExMzkuMzEyNSwzMy43NSAxMzkuMzEyNSw0Mi45Mzc1IEwxNDEuMDYyNSw0Mi45Mzc1IFogTTE0NC42MjUsNDIuOTM3NSBMMTQ2LjM3NSw0Mi45Mzc1IFExNDYuMzc1LDQyLjkzNzUgMTQ2LjM3NSw0MC4xMjUgTDE0NC42MjUsNDAuMTI1IFExNDQuNjI1LDQwLjEyNSAxNDQuNjI1LDQyLjkzNzUgWiBNMTQ0LjYyNSwzMy43NSBRMTQ0LjYyNSwzMy43NSAxNDQuNjI1LDM2LjU2MjUgTDE0Ni4zNzUsMzYuNTYyNSBRMTQ2LjM3NSwzNi41NjI1IDE0Ni4zNzUsMzMuNzUgTDE0NC42MjUsMzMuNzUgWiBNMTQwLjM3NSwzNC40Mzc1IEwxNDUuMzEyNSwzNC40Mzc1IEwxNDUuMzEyNSwzMi42ODc1IEwxNDAuMzc1LDMyLjY4NzUgTDE0MC4zNzUsMzQuNDM3NSBaICIgZmlsbD0iIzAwMDAwMCIvPjx0ZXh0IGZpbGw9IiMwMDAwMDAiIGZvbnQtZmFtaWx5PSJzYW5zLXNlcmlmIiBmb250LXNpemU9IjE0IiBsZW5ndGhBZGp1c3Q9InNwYWNpbmciIHRleHRMZW5ndGg9Ijc3IiB4PSIxNjMuMjUiIHk9IjQzLjc0MjIiPlRhc2tNb25pdG9yPC90ZXh0PjxsaW5lIHN0eWxlPSJzdHJva2U6IzE4MTgxODtzdHJva2Utd2lkdGg6MC41OyIgeDE9Ijg0LjUiIHgyPSIyODYuNSIgeTE9IjU0IiB5Mj0iNTQiLz48cmVjdCBmaWxsPSJub25lIiBoZWlnaHQ9IjYiIHN0eWxlPSJzdHJva2U6I0M4MjkzMDtzdHJva2Utd2lkdGg6MS4wOyIgd2lkdGg9IjYiIHg9IjkxLjUiIHk9IjYzLjk5MjIiLz48dGV4dCBmaWxsPSIjMDAwMDAwIiBmb250LWZhbWlseT0ic2Fucy1zZXJpZiIgZm9udC1zaXplPSIxNCIgbGVuZ3RoQWRqdXN0PSJzcGFjaW5nIiB0ZXh0TGVuZ3RoPSI4NCIgeD0iMTAzLjUiIHk9IjcxLjIzNDQiPnRhc2tfaWQ6IGludDwvdGV4dD48cmVjdCBmaWxsPSJub25lIiBoZWlnaHQ9IjYiIHN0eWxlPSJzdHJva2U6I0M4MjkzMDtzdHJva2Utd2lkdGg6MS4wOyIgd2lkdGg9IjYiIHg9IjkxLjUiIHk9Ijc4Ljk3NjYiLz48dGV4dCBmaWxsPSIjMDAwMDAwIiBmb250LWZhbWlseT0ic2Fucy1zZXJpZiIgZm9udC1zaXplPSIxNCIgbGVuZ3RoQWRqdXN0PSJzcGFjaW5nIiB0ZXh0TGVuZ3RoPSI5OCIgeD0iMTAzLjUiIHk9Ijg2LjIxODgiPnRhc2tfdHlwZTogc3RyPC90ZXh0PjxyZWN0IGZpbGw9Im5vbmUiIGhlaWdodD0iNiIgc3R5bGU9InN0cm9rZTojQzgyOTMwO3N0cm9rZS13aWR0aDoxLjA7IiB3aWR0aD0iNiIgeD0iOTEuNSIgeT0iOTMuOTYwOSIvPjx0ZXh0IGZpbGw9IiMwMDAwMDAiIGZvbnQtZmFtaWx5PSJzYW5zLXNlcmlmIiBmb250LXNpemU9IjE0IiBsZW5ndGhBZGp1c3Q9InNwYWNpbmciIHRleHRMZW5ndGg9Ijc3IiB4PSIxMDMuNSIgeT0iMTAxLjIwMzEiPnN0YXR1czogc3RyPC90ZXh0PjxsaW5lIHN0eWxlPSJzdHJva2U6IzE4MTgxODtzdHJva2Utd2lkdGg6MC41OyIgeDE9Ijg0LjUiIHgyPSIyODYuNSIgeTE9IjEwNi45NTMxIiB5Mj0iMTA2Ljk1MzEiLz48ZWxsaXBzZSBjeD0iOTQuNSIgY3k9IjExOS45NDUzIiBmaWxsPSIjODRCRTg0IiByeD0iMyIgcnk9IjMiIHN0eWxlPSJzdHJva2U6IzAzODA0ODtzdHJva2Utd2lkdGg6MS4wOyIvPjx0ZXh0IGZpbGw9IiMwMDAwMDAiIGZvbnQtZmFtaWx5PSJzYW5zLXNlcmlmIiBmb250LXNpemU9IjE0IiBsZW5ndGhBZGp1c3Q9InNwYWNpbmciIHRleHRMZW5ndGg9IjE0MyIgeD0iMTAzLjUiIHk9IjEyNC4xODc1Ij5tb25pdG9yX3Rhc2soKTogdm9pZDwvdGV4dD48ZWxsaXBzZSBjeD0iOTQuNSIgY3k9IjEzNC45Mjk3IiBmaWxsPSIjODRCRTg0IiByeD0iMyIgcnk9IjMiIHN0eWxlPSJzdHJva2U6IzAzODA0ODtzdHJva2Utd2lkdGg6MS4wOyIvPjx0ZXh0IGZpbGw9IiMwMDAwMDAiIGZvbnQtZmFtaWx5PSJzYW5zLXNlcmlmIiBmb250LXNpemU9IjE0IiBsZW5ndGhBZGp1c3Q9InNwYWNpbmciIHRleHRMZW5ndGg9IjE2MyIgeD0iMTAzLjUiIHk9IjEzOS4xNzE5Ij5pc190YXNrX3J1bm5pbmcoKTogYm9vbDwvdGV4dD48ZWxsaXBzZSBjeD0iOTQuNSIgY3k9IjE0OS45MTQxIiBmaWxsPSIjODRCRTg0IiByeD0iMyIgcnk9IjMiIHN0eWxlPSJzdHJva2U6IzAzODA0ODtzdHJva2Utd2lkdGg6MS4wOyIvPjx0ZXh0IGZpbGw9IiMwMDAwMDAiIGZvbnQtZmFtaWx5PSJzYW5zLXNlcmlmIiBmb250LXNpemU9IjE0IiBsZW5ndGhBZGp1c3Q9InNwYWNpbmciIHRleHRMZW5ndGg9IjE3OCIgeD0iMTAzLjUiIHk9IjE1NC4xNTYzIj5pc190YXNrX2NvbXBsZXRlZCgpOiBib29sPC90ZXh0PjwvZz48IS0tY2xhc3MgRGF0YUxpZmVjeWNsZU1hbmFnZXItLT48ZyBpZD0iZWxlbV9EYXRhTGlmZWN5Y2xlTWFuYWdlciI+PHJlY3QgY29kZUxpbmU9IjEyMSIgZmlsbD0iI0YxRjFGMSIgaGVpZ2h0PSIxMDcuOTM3NSIgaWQ9IkRhdGFMaWZlY3ljbGVNYW5hZ2VyIiByeD0iMi41IiByeT0iMi41IiBzdHlsZT0ic3Ryb2tlOiMxODE4MTg7c3Ryb2tlLXdpZHRoOjAuNTsiIHdpZHRoPSIyMTciIHg9IjMyMyIgeT0iMzciLz48ZWxsaXBzZSBjeD0iMzU4LjI1IiBjeT0iNTMiIGZpbGw9IiNBREQxQjIiIHJ4PSIxMSIgcnk9IjExIiBzdHlsZT0ic3Ryb2tlOiMxODE4MTg7c3Ryb2tlLXdpZHRoOjEuMDsiLz48cGF0aCBkPSJNMzU1Ljg3NSw1Ny4yNSBMMzU1Ljg3NSw1OSBMMzYwLjgxMjUsNTkgTDM2MC44MTI1LDU3LjI1IEwzNTUuODc1LDU3LjI1IFogTTM1Ni41NjI1LDU3LjkzNzUgUTM1Ni41NjI1LDU3LjkzNzUgMzU2LjU2MjUsNDguNzUgTDM1NC44MTI1LDQ4Ljc1IFEzNTQuODEyNSw0OC43NSAzNTQuODEyNSw1Ny45Mzc1IEwzNTYuNTYyNSw1Ny45Mzc1IFogTTM2MC4xMjUsNTcuOTM3NSBMMzYxLjg3NSw1Ny45Mzc1IFEzNjEuODc1LDU3LjkzNzUgMzYxLjg3NSw1NS4xMjUgTDM2MC4xMjUsNTUuMTI1IFEzNjAuMTI1LDU1LjEyNSAzNjAuMTI1LDU3LjkzNzUgWiBNMzYwLjEyNSw0OC43NSBRMzYwLjEyNSw0OC43NSAzNjAuMTI1LDUxLjU2MjUgTDM2MS44NzUsNTEuNTYyNSBRMzYxLjg3NSw1MS41NjI1IDM2MS44NzUsNDguNzUgTDM2MC4xMjUsNDguNzUgWiBNMzU1Ljg3NSw0OS40Mzc1IEwzNjAuODEyNSw0OS40Mzc1IEwzNjAuODEyNSw0Ny42ODc1IEwzNTUuODc1LDQ3LjY4NzUgTDM1NS44NzUsNDkuNDM3NSBaICIgZmlsbD0iIzAwMDAwMCIvPjx0ZXh0IGZpbGw9IiMwMDAwMDAiIGZvbnQtZmFtaWx5PSJzYW5zLXNlcmlmIiBmb250LXNpemU9IjE0IiBsZW5ndGhBZGp1c3Q9InNwYWNpbmciIHRleHRMZW5ndGg9IjE0MCIgeD0iMzc2Ljc1IiB5PSI1OC43NDIyIj5EYXRhTGlmZWN5Y2xlTWFuYWdlcjwvdGV4dD48bGluZSBzdHlsZT0ic3Ryb2tlOiMxODE4MTg7c3Ryb2tlLXdpZHRoOjAuNTsiIHgxPSIzMjQiIHgyPSI1MzkiIHkxPSI2OSIgeTI9IjY5Ii8+PHJlY3QgZmlsbD0ibm9uZSIgaGVpZ2h0PSI2IiBzdHlsZT0ic3Ryb2tlOiNDODI5MzA7c3Ryb2tlLXdpZHRoOjEuMDsiIHdpZHRoPSI2IiB4PSIzMzEiIHk9Ijc4Ljk5MjIiLz48dGV4dCBmaWxsPSIjMDAwMDAwIiBmb250LWZhbWlseT0ic2Fucy1zZXJpZiIgZm9udC1zaXplPSIxNCIgbGVuZ3RoQWRqdXN0PSJzcGFjaW5nIiB0ZXh0TGVuZ3RoPSI4NCIgeD0iMzQzIiB5PSI4Ni4yMzQ0Ij50YXNrX2lkOiBpbnQ8L3RleHQ+PHJlY3QgZmlsbD0ibm9uZSIgaGVpZ2h0PSI2IiBzdHlsZT0ic3Ryb2tlOiNDODI5MzA7c3Ryb2tlLXdpZHRoOjEuMDsiIHdpZHRoPSI2IiB4PSIzMzEiIHk9IjkzLjk3NjYiLz48dGV4dCBmaWxsPSIjMDAwMDAwIiBmb250LWZhbWlseT0ic2Fucy1zZXJpZiIgZm9udC1zaXplPSIxNCIgbGVuZ3RoQWRqdXN0PSJzcGFjaW5nIiB0ZXh0TGVuZ3RoPSIxNzYiIHg9IjM0MyIgeT0iMTAxLjIxODgiPmV4cGlyYXRpb25fZGF0ZTogZGF0ZXRpbWU8L3RleHQ+PGxpbmUgc3R5bGU9InN0cm9rZTojMTgxODE4O3N0cm9rZS13aWR0aDowLjU7IiB4MT0iMzI0IiB4Mj0iNTM5IiB5MT0iMTA2Ljk2ODgiIHkyPSIxMDYuOTY4OCIvPjxlbGxpcHNlIGN4PSIzMzQiIGN5PSIxMTkuOTYwOSIgZmlsbD0iIzg0QkU4NCIgcng9IjMiIHJ5PSIzIiBzdHlsZT0ic3Ryb2tlOiMwMzgwNDg7c3Ryb2tlLXdpZHRoOjEuMDsiLz48dGV4dCBmaWxsPSIjMDAwMDAwIiBmb250LWZhbWlseT0ic2Fucy1zZXJpZiIgZm9udC1zaXplPSIxNCIgbGVuZ3RoQWRqdXN0PSJzcGFjaW5nIiB0ZXh0TGVuZ3RoPSIxNjMiIHg9IjM0MyIgeT0iMTI0LjIwMzEiPmlzX2RhdGFfZXhwaXJlZCgpOiBib29sPC90ZXh0PjxlbGxpcHNlIGN4PSIzMzQiIGN5PSIxMzQuOTQ1MyIgZmlsbD0iIzg0QkU4NCIgcng9IjMiIHJ5PSIzIiBzdHlsZT0ic3Ryb2tlOiMwMzgwNDg7c3Ryb2tlLXdpZHRoOjEuMDsiLz48dGV4dCBmaWxsPSIjMDAwMDAwIiBmb250LWZhbWlseT0ic2Fucy1zZXJpZiIgZm9udC1zaXplPSIxNCIgbGVuZ3RoQWRqdXN0PSJzcGFjaW5nIiB0ZXh0TGVuZ3RoPSIxOTEiIHg9IjM0MyIgeT0iMTM5LjE4NzUiPmRlbGV0ZV9leHBpcmVkX2RhdGEoKTogdm9pZDwvdGV4dD48L2c+PCEtLWNsYXNzIERhdGFDb252ZXJ0ZXItLT48ZyBpZD0iZWxlbV9EYXRhQ29udmVydGVyIj48cmVjdCBjb2RlTGluZT0iMTI4IiBmaWxsPSIjRjFGMUYxIiBoZWlnaHQ9IjEwNy45Mzc1IiBpZD0iRGF0YUNvbnZlcnRlciIgcng9IjIuNSIgcnk9IjIuNSIgc3R5bGU9InN0cm9rZTojMTgxODE4O3N0cm9rZS13aWR0aDowLjU7IiB3aWR0aD0iMTMzIiB4PSIzMTg0IiB5PSIyODAiLz48ZWxsaXBzZSBjeD0iMzIwMy41IiBjeT0iMjk2IiBmaWxsPSIjQTlEQ0RGIiByeD0iMTEiIHJ5PSIxMSIgc3R5bGU9InN0cm9rZTojMTgxODE4O3N0cm9rZS13aWR0aDoxLjA7Ii8+PHBhdGggZD0iTTMyMDAuMDYyNSwyOTMuNjI1IEwzMjAwLjA2MjUsMzAxLjc1IEwzMjAxLjgxMjUsMzAxLjc1IFEzMjAxLjgxMjUsMzAxLjc1IDMyMDEuODEyNSwyOTcuNSBMMzIwNS4zNzUsMjk3LjUgUTMyMDUuMzc1LDI5Ny41IDMyMDUuMzc1LDMwMS43NSBMMzIwNy4xMjUsMzAxLjc1IEwzMjA3LjEyNSwyOTMuNjI1IEwzMjA1LjM3NSwyOTMuNjI1IFEzMjA1LjM3NSwyOTMuNjI1IDMyMDUuMzc1LDI5NS43NSBMMzIwMS44MTI1LDI5NS43NSBRMzIwMS44MTI1LDI5NS43NSAzMjAxLjgxMjUsMjkzLjYyNSBMMzIwMC4wNjI1LDI5My42MjUgWiBNMzIwMS4xMjUsMjk0LjMxMjUgTDMyMDIuODc1LDI5NC4zMTI1IFEzMjAyLjg3NSwyOTQuMzEyNSAzMjAyLjg3NSwyOTEuNSBMMzIwMS4xMjUsMjkxLjUgUTMyMDEuMTI1LDI5MS41IDMyMDEuMTI1LDI5NC4zMTI1IFogTTMyMDYuMDYyNSwyOTQuMzEyNSBRMzIwNi4wNjI1LDI5NC4zMTI1IDMyMDYuMDYyNSwyOTEuNSBMMzIwNC4zMTI1LDI5MS41IFEzMjA0LjMxMjUsMjkxLjUgMzIwNC4zMTI1LDI5NC4zMTI1IEwzMjA2LjA2MjUsMjk0LjMxMjUgWiBNMzIwMi4xODc1LDI5Mi4xODc1IEwzMjA1LDI5Mi4xODc1IEwzMjA1LDI5MC40Mzc1IEwzMjAyLjE4NzUsMjkwLjQzNzUgTDMyMDIuMTg3NSwyOTIuMTg3NSBaICIgZmlsbD0iIzAwMDAwMCIvPjx0ZXh0IGZpbGw9IiMwMDAwMDAiIGZvbnQtZmFtaWx5PSJzYW5zLXNlcmlmIiBmb250LXNpemU9IjE0IiBmb250LXN0eWxlPSJpdGFsaWMiIGxlbmd0aEFkanVzdD0ic3BhY2luZyIgdGV4dExlbmd0aD0iOTEiIHg9IjMyMTguNSIgeT0iMzAxLjc0MjIiPkRhdGFDb252ZXJ0ZXI8L3RleHQ+PGxpbmUgc3R5bGU9InN0cm9rZTojMTgxODE4O3N0cm9rZS13aWR0aDowLjU7IiB4MT0iMzE4NSIgeDI9IjMzMTYiIHkxPSIzMTIiIHkyPSIzMTIiLz48cmVjdCBmaWxsPSJub25lIiBoZWlnaHQ9IjYiIHN0eWxlPSJzdHJva2U6I0M4MjkzMDtzdHJva2Utd2lkdGg6MS4wOyIgd2lkdGg9IjYiIHg9IjMxOTIiIHk9IjMyMS45OTIyIi8+PHRleHQgZmlsbD0iIzAwMDAwMCIgZm9udC1mYW1pbHk9InNhbnMtc2VyaWYiIGZvbnQtc2l6ZT0iMTQiIGxlbmd0aEFkanVzdD0ic3BhY2luZyIgdGV4dExlbmd0aD0iODQiIHg9IjMyMDQiIHk9IjMyOS4yMzQ0Ij52ZXJzaW9uOiBzdHI8L3RleHQ+PHJlY3QgZmlsbD0ibm9uZSIgaGVpZ2h0PSI2IiBzdHlsZT0ic3Ryb2tlOiNDODI5MzA7c3Ryb2tlLXdpZHRoOjEuMDsiIHdpZHRoPSI2IiB4PSIzMTkyIiB5PSIzMzYuOTc2NiIvPjx0ZXh0IGZpbGw9IiMwMDAwMDAiIGZvbnQtZmFtaWx5PSJzYW5zLXNlcmlmIiBmb250LXNpemU9IjE0IiBsZW5ndGhBZGp1c3Q9InNwYWNpbmciIHRleHRMZW5ndGg9Ijk5IiB4PSIzMjA0IiB5PSIzNDQuMjE4OCI+c3RlcF9uYW1lOiBzdHI8L3RleHQ+PHJlY3QgZmlsbD0ibm9uZSIgaGVpZ2h0PSI2IiBzdHlsZT0ic3Ryb2tlOiNDODI5MzA7c3Ryb2tlLXdpZHRoOjEuMDsiIHdpZHRoPSI2IiB4PSIzMTkyIiB5PSIzNTEuOTYwOSIvPjx0ZXh0IGZpbGw9IiMwMDAwMDAiIGZvbnQtZmFtaWx5PSJzYW5zLXNlcmlmIiBmb250LXNpemU9IjE0IiBsZW5ndGhBZGp1c3Q9InNwYWNpbmciIHRleHRMZW5ndGg9Ijk4IiB4PSIzMjA0IiB5PSIzNTkuMjAzMSI+Y29uZmlnOiBDb25maWc8L3RleHQ+PGxpbmUgc3R5bGU9InN0cm9rZTojMTgxODE4O3N0cm9rZS13aWR0aDowLjU7IiB4MT0iMzE4NSIgeDI9IjMzMTYiIHkxPSIzNjQuOTUzMSIgeTI9IjM2NC45NTMxIi8+PGVsbGlwc2UgY3g9IjMxOTUiIGN5PSIzNzcuOTQ1MyIgZmlsbD0iIzg0QkU4NCIgcng9IjMiIHJ5PSIzIiBzdHlsZT0ic3Ryb2tlOiMwMzgwNDg7c3Ryb2tlLXdpZHRoOjEuMDsiLz48dGV4dCBmaWxsPSIjMDAwMDAwIiBmb250LWZhbWlseT0ic2Fucy1zZXJpZiIgZm9udC1zaXplPSIxNCIgbGVuZ3RoQWRqdXN0PSJzcGFjaW5nIiB0ZXh0TGVuZ3RoPSIxMDciIHg9IjMyMDQiIHk9IjM4Mi4xODc1Ij5jb252ZXJ0KCk6IHZvaWQ8L3RleHQ+PC9nPjwhLS1jbGFzcyBTcWxpdGVEYXRhQ29udmVydGVyLS0+PGcgaWQ9ImVsZW1fU3FsaXRlRGF0YUNvbnZlcnRlciI+PHJlY3QgY29kZUxpbmU9IjEzNSIgZmlsbD0iI0YxRjFGMSIgaGVpZ2h0PSI2Mi45ODQ0IiBpZD0iU3FsaXRlRGF0YUNvbnZlcnRlciIgcng9IjIuNSIgcnk9IjIuNSIgc3R5bGU9InN0cm9rZTojMTgxODE4O3N0cm9rZS13aWR0aDowLjU7IiB3aWR0aD0iMTY1IiB4PSIzMDYyIiB5PSI1MzgiLz48ZWxsaXBzZSBjeD0iMzA3NyIgY3k9IjU1NCIgZmlsbD0iI0FERDFCMiIgcng9IjExIiByeT0iMTEiIHN0eWxlPSJzdHJva2U6IzE4MTgxODtzdHJva2Utd2lkdGg6MS4wOyIvPjxwYXRoIGQ9Ik0zMDc0LjYyNSw1NTguMjUgTDMwNzQuNjI1LDU2MCBMMzA3OS41NjI1LDU2MCBMMzA3OS41NjI1LDU1OC4yNSBMMzA3NC42MjUsNTU4LjI1IFogTTMwNzUuMzEyNSw1NTguOTM3NSBRMzA3NS4zMTI1LDU1OC45Mzc1IDMwNzUuMzEyNSw1NDkuNzUgTDMwNzMuNTYyNSw1NDkuNzUgUTMwNzMuNTYyNSw1NDkuNzUgMzA3My41NjI1LDU1OC45Mzc1IEwzMDc1LjMxMjUsNTU4LjkzNzUgWiBNMzA3OC44NzUsNTU4LjkzNzUgTDMwODAuNjI1LDU1OC45Mzc1IFEzMDgwLjYyNSw1NTguOTM3NSAzMDgwLjYyNSw1NTYuMTI1IEwzMDc4Ljg3NSw1NTYuMTI1IFEzMDc4Ljg3NSw1NTYuMTI1IDMwNzguODc1LDU1OC45Mzc1IFogTTMwNzguODc1LDU0OS43NSBRMzA3OC44NzUsNTQ5Ljc1IDMwNzguODc1LDU1Mi41NjI1IEwzMDgwLjYyNSw1NTIuNTYyNSBRMzA4MC42MjUsNTUyLjU2MjUgMzA4MC42MjUsNTQ5Ljc1IEwzMDc4Ljg3NSw1NDkuNzUgWiBNMzA3NC42MjUsNTUwLjQzNzUgTDMwNzkuNTYyNSw1NTAuNDM3NSBMMzA3OS41NjI1LDU0OC42ODc1IEwzMDc0LjYyNSw1NDguNjg3NSBMMzA3NC42MjUsNTUwLjQzNzUgWiAiIGZpbGw9IiMwMDAwMDAiLz48dGV4dCBmaWxsPSIjMDAwMDAwIiBmb250LWZhbWlseT0ic2Fucy1zZXJpZiIgZm9udC1zaXplPSIxNCIgbGVuZ3RoQWRqdXN0PSJzcGFjaW5nIiB0ZXh0TGVuZ3RoPSIxMzMiIHg9IjMwOTEiIHk9IjU1OS43NDIyIj5TcWxpdGVEYXRhQ29udmVydGVyPC90ZXh0PjxsaW5lIHN0eWxlPSJzdHJva2U6IzE4MTgxODtzdHJva2Utd2lkdGg6MC41OyIgeDE9IjMwNjMiIHgyPSIzMjI2IiB5MT0iNTcwIiB5Mj0iNTcwIi8+PGxpbmUgc3R5bGU9InN0cm9rZTojMTgxODE4O3N0cm9rZS13aWR0aDowLjU7IiB4MT0iMzA2MyIgeDI9IjMyMjYiIHkxPSI1NzgiIHkyPSI1NzgiLz48ZWxsaXBzZSBjeD0iMzA3MyIgY3k9IjU5MC45OTIyIiBmaWxsPSIjODRCRTg0IiByeD0iMyIgcnk9IjMiIHN0eWxlPSJzdHJva2U6IzAzODA0ODtzdHJva2Utd2lkdGg6MS4wOyIvPjx0ZXh0IGZpbGw9IiMwMDAwMDAiIGZvbnQtZmFtaWx5PSJzYW5zLXNlcmlmIiBmb250LXNpemU9IjE0IiBsZW5ndGhBZGp1c3Q9InNwYWNpbmciIHRleHRMZW5ndGg9IjEwNyIgeD0iMzA4MiIgeT0iNTk1LjIzNDQiPmNvbnZlcnQoKTogdm9pZDwvdGV4dD48L2c+PCEtLWNsYXNzIFNoYXBlZmlsZURhdGFDb252ZXJ0ZXItLT48ZyBpZD0iZWxlbV9TaGFwZWZpbGVEYXRhQ29udmVydGVyIj48cmVjdCBjb2RlTGluZT0iMTM5IiBmaWxsPSIjRjFGMUYxIiBoZWlnaHQ9IjYyLjk4NDQiIGlkPSJTaGFwZWZpbGVEYXRhQ29udmVydGVyIiByeD0iMi41IiByeT0iMi41IiBzdHlsZT0ic3Ryb2tlOiMxODE4MTg7c3Ryb2tlLXdpZHRoOjAuNTsiIHdpZHRoPSIxODYiIHg9IjMyNjIuNSIgeT0iNTM4Ii8+PGVsbGlwc2UgY3g9IjMyNzcuNSIgY3k9IjU1NCIgZmlsbD0iI0FERDFCMiIgcng9IjExIiByeT0iMTEiIHN0eWxlPSJzdHJva2U6IzE4MTgxODtzdHJva2Utd2lkdGg6MS4wOyIvPjxwYXRoIGQ9Ik0zMjc1LjEyNSw1NTguMjUgTDMyNzUuMTI1LDU2MCBMMzI4MC4wNjI1LDU2MCBMMzI4MC4wNjI1LDU1OC4yNSBMMzI3NS4xMjUsNTU4LjI1IFogTTMyNzUuODEyNSw1NTguOTM3NSBRMzI3NS44MTI1LDU1OC45Mzc1IDMyNzUuODEyNSw1NDkuNzUgTDMyNzQuMDYyNSw1NDkuNzUgUTMyNzQuMDYyNSw1NDkuNzUgMzI3NC4wNjI1LDU1OC45Mzc1IEwzMjc1LjgxMjUsNTU4LjkzNzUgWiBNMzI3OS4zNzUsNTU4LjkzNzUgTDMyODEuMTI1LDU1OC45Mzc1IFEzMjgxLjEyNSw1NTguOTM3NSAzMjgxLjEyNSw1NTYuMTI1IEwzMjc5LjM3NSw1NTYuMTI1IFEzMjc5LjM3NSw1NTYuMTI1IDMyNzkuMzc1LDU1OC45Mzc1IFogTTMyNzkuMzc1LDU0OS43NSBRMzI3OS4zNzUsNTQ5Ljc1IDMyNzkuMzc1LDU1Mi41NjI1IEwzMjgxLjEyNSw1NTIuNTYyNSBRMzI4MS4xMjUsNTUyLjU2MjUgMzI4MS4xMjUsNTQ5Ljc1IEwzMjc5LjM3NSw1NDkuNzUgWiBNMzI3NS4xMjUsNTUwLjQzNzUgTDMyODAuMDYyNSw1NTAuNDM3NSBMMzI4MC4wNjI1LDU0OC42ODc1IEwzMjc1LjEyNSw1NDguNjg3NSBMMzI3NS4xMjUsNTUwLjQzNzUgWiAiIGZpbGw9IiMwMDAwMDAiLz48dGV4dCBmaWxsPSIjMDAwMDAwIiBmb250LWZhbWlseT0ic2Fucy1zZXJpZiIgZm9udC1zaXplPSIxNCIgbGVuZ3RoQWRqdXN0PSJzcGFjaW5nIiB0ZXh0TGVuZ3RoPSIxNTQiIHg9IjMyOTEuNSIgeT0iNTU5Ljc0MjIiPlNoYXBlZmlsZURhdGFDb252ZXJ0ZXI8L3RleHQ+PGxpbmUgc3R5bGU9InN0cm9rZTojMTgxODE4O3N0cm9rZS13aWR0aDowLjU7IiB4MT0iMzI2My41IiB4Mj0iMzQ0Ny41IiB5MT0iNTcwIiB5Mj0iNTcwIi8+PGxpbmUgc3R5bGU9InN0cm9rZTojMTgxODE4O3N0cm9rZS13aWR0aDowLjU7IiB4MT0iMzI2My41IiB4Mj0iMzQ0Ny41IiB5MT0iNTc4IiB5Mj0iNTc4Ii8+PGVsbGlwc2UgY3g9IjMyNzMuNSIgY3k9IjU5MC45OTIyIiBmaWxsPSIjODRCRTg0IiByeD0iMyIgcnk9IjMiIHN0eWxlPSJzdHJva2U6IzAzODA0ODtzdHJva2Utd2lkdGg6MS4wOyIvPjx0ZXh0IGZpbGw9IiMwMDAwMDAiIGZvbnQtZmFtaWx5PSJzYW5zLXNlcmlmIiBmb250LXNpemU9IjE0IiBsZW5ndGhBZGp1c3Q9InNwYWNpbmciIHRleHRMZW5ndGg9IjEwNyIgeD0iMzI4Mi41IiB5PSI1OTUuMjM0NCI+Y29udmVydCgpOiB2b2lkPC90ZXh0PjwvZz48IS0tY2xhc3MgR2VvanNvbkRhdGFDb252ZXJ0ZXItLT48ZyBpZD0iZWxlbV9HZW9qc29uRGF0YUNvbnZlcnRlciI+PHJlY3QgY29kZUxpbmU9IjE0MyIgZmlsbD0iI0YxRjFGMSIgaGVpZ2h0PSI2Mi45ODQ0IiBpZD0iR2VvanNvbkRhdGFDb252ZXJ0ZXIiIHJ4PSIyLjUiIHJ5PSIyLjUiIHN0eWxlPSJzdHJva2U6IzE4MTgxODtzdHJva2Utd2lkdGg6MC41OyIgd2lkdGg9IjE3MiIgeD0iMzQ4My41IiB5PSI1MzgiLz48ZWxsaXBzZSBjeD0iMzQ5OC41IiBjeT0iNTU0IiBmaWxsPSIjQUREMUIyIiByeD0iMTEiIHJ5PSIxMSIgc3R5bGU9InN0cm9rZTojMTgxODE4O3N0cm9rZS13aWR0aDoxLjA7Ii8+PHBhdGggZD0iTTM0OTYuMTI1LDU1OC4yNSBMMzQ5Ni4xMjUsNTYwIEwzNTAxLjA2MjUsNTYwIEwzNTAxLjA2MjUsNTU4LjI1IEwzNDk2LjEyNSw1NTguMjUgWiBNMzQ5Ni44MTI1LDU1OC45Mzc1IFEzNDk2LjgxMjUsNTU4LjkzNzUgMzQ5Ni44MTI1LDU0OS43NSBMMzQ5NS4wNjI1LDU0OS43NSBRMzQ5NS4wNjI1LDU0OS43NSAzNDk1LjA2MjUsNTU4LjkzNzUgTDM0OTYuODEyNSw1NTguOTM3NSBaIE0zNTAwLjM3NSw1NTguOTM3NSBMMzUwMi4xMjUsNTU4LjkzNzUgUTM1MDIuMTI1LDU1OC45Mzc1IDM1MDIuMTI1LDU1Ni4xMjUgTDM1MDAuMzc1LDU1Ni4xMjUgUTM1MDAuMzc1LDU1Ni4xMjUgMzUwMC4zNzUsNTU4LjkzNzUgWiBNMzUwMC4zNzUsNTQ5Ljc1IFEzNTAwLjM3NSw1NDkuNzUgMzUwMC4zNzUsNTUyLjU2MjUgTDM1MDIuMTI1LDU1Mi41NjI1IFEzNTAyLjEyNSw1NTIuNTYyNSAzNTAyLjEyNSw1NDkuNzUgTDM1MDAuMzc1LDU0OS43NSBaIE0zNDk2LjEyNSw1NTAuNDM3NSBMMzUwMS4wNjI1LDU1MC40Mzc1IEwzNTAxLjA2MjUsNTQ4LjY4NzUgTDM0OTYuMTI1LDU0OC42ODc1IEwzNDk2LjEyNSw1NTAuNDM3NSBaICIgZmlsbD0iIzAwMDAwMCIvPjx0ZXh0IGZpbGw9IiMwMDAwMDAiIGZvbnQtZmFtaWx5PSJzYW5zLXNlcmlmIiBmb250LXNpemU9IjE0IiBsZW5ndGhBZGp1c3Q9InNwYWNpbmciIHRleHRMZW5ndGg9IjE0MCIgeD0iMzUxMi41IiB5PSI1NTkuNzQyMiI+R2VvanNvbkRhdGFDb252ZXJ0ZXI8L3RleHQ+PGxpbmUgc3R5bGU9InN0cm9rZTojMTgxODE4O3N0cm9rZS13aWR0aDowLjU7IiB4MT0iMzQ4NC41IiB4Mj0iMzY1NC41IiB5MT0iNTcwIiB5Mj0iNTcwIi8+PGxpbmUgc3R5bGU9InN0cm9rZTojMTgxODE4O3N0cm9rZS13aWR0aDowLjU7IiB4MT0iMzQ4NC41IiB4Mj0iMzY1NC41IiB5MT0iNTc4IiB5Mj0iNTc4Ii8+PGVsbGlwc2UgY3g9IjM0OTQuNSIgY3k9IjU5MC45OTIyIiBmaWxsPSIjODRCRTg0IiByeD0iMyIgcnk9IjMiIHN0eWxlPSJzdHJva2U6IzAzODA0ODtzdHJva2Utd2lkdGg6MS4wOyIvPjx0ZXh0IGZpbGw9IiMwMDAwMDAiIGZvbnQtZmFtaWx5PSJzYW5zLXNlcmlmIiBmb250LXNpemU9IjE0IiBsZW5ndGhBZGp1c3Q9InNwYWNpbmciIHRleHRMZW5ndGg9IjEwNyIgeD0iMzUwMy41IiB5PSI1OTUuMjM0NCI+Y29udmVydCgpOiB2b2lkPC90ZXh0PjwvZz48IS0tY2xhc3MgQXBpU2VydmljZS0tPjxnIGlkPSJlbGVtX0FwaVNlcnZpY2UiPjxyZWN0IGNvZGVMaW5lPSIxNDciIGZpbGw9IiNGMUYxRjEiIGhlaWdodD0iNzcuOTY4OCIgaWQ9IkFwaVNlcnZpY2UiIHJ4PSIyLjUiIHJ5PSIyLjUiIHN0eWxlPSJzdHJva2U6IzE4MTgxODtzdHJva2Utd2lkdGg6MC41OyIgd2lkdGg9IjM1NyIgeD0iNyIgeT0iMjk1Ii8+PGVsbGlwc2UgY3g9IjE0Ni4yNSIgY3k9IjMxMSIgZmlsbD0iI0FERDFCMiIgcng9IjExIiByeT0iMTEiIHN0eWxlPSJzdHJva2U6IzE4MTgxODtzdHJva2Utd2lkdGg6MS4wOyIvPjxwYXRoIGQ9Ik0xNDMuODc1LDMxNS4yNSBMMTQzLjg3NSwzMTcgTDE0OC44MTI1LDMxNyBMMTQ4LjgxMjUsMzE1LjI1IEwxNDMuODc1LDMxNS4yNSBaIE0xNDQuNTYyNSwzMTUuOTM3NSBRMTQ0LjU2MjUsMzE1LjkzNzUgMTQ0LjU2MjUsMzA2Ljc1IEwxNDIuODEyNSwzMDYuNzUgUTE0Mi44MTI1LDMwNi43NSAxNDIuODEyNSwzMTUuOTM3NSBMMTQ0LjU2MjUsMzE1LjkzNzUgWiBNMTQ4LjEyNSwzMTUuOTM3NSBMMTQ5Ljg3NSwzMTUuOTM3NSBRMTQ5Ljg3NSwzMTUuOTM3NSAxNDkuODc1LDMxMy4xMjUgTDE0OC4xMjUsMzEzLjEyNSBRMTQ4LjEyNSwzMTMuMTI1IDE0OC4xMjUsMzE1LjkzNzUgWiBNMTQ4LjEyNSwzMDYuNzUgUTE0OC4xMjUsMzA2Ljc1IDE0OC4xMjUsMzA5LjU2MjUgTDE0OS44NzUsMzA5LjU2MjUgUTE0OS44NzUsMzA5LjU2MjUgMTQ5Ljg3NSwzMDYuNzUgTDE0OC4xMjUsMzA2Ljc1IFogTTE0My44NzUsMzA3LjQzNzUgTDE0OC44MTI1LDMwNy40Mzc1IEwxNDguODEyNSwzMDUuNjg3NSBMMTQzLjg3NSwzMDUuNjg3NSBMMTQzLjg3NSwzMDcuNDM3NSBaICIgZmlsbD0iIzAwMDAwMCIvPjx0ZXh0IGZpbGw9IiMwMDAwMDAiIGZvbnQtZmFtaWx5PSJzYW5zLXNlcmlmIiBmb250LXNpemU9IjE0IiBsZW5ndGhBZGp1c3Q9InNwYWNpbmciIHRleHRMZW5ndGg9IjcwIiB4PSIxNjYuNzUiIHk9IjMxNi43NDIyIj5BcGlTZXJ2aWNlPC90ZXh0PjxsaW5lIHN0eWxlPSJzdHJva2U6IzE4MTgxODtzdHJva2Utd2lkdGg6MC41OyIgeDE9IjgiIHgyPSIzNjMiIHkxPSIzMjciIHkyPSIzMjciLz48bGluZSBzdHlsZT0ic3Ryb2tlOiMxODE4MTg7c3Ryb2tlLXdpZHRoOjAuNTsiIHgxPSI4IiB4Mj0iMzYzIiB5MT0iMzM1IiB5Mj0iMzM1Ii8+PGVsbGlwc2UgY3g9IjE4IiBjeT0iMzQ3Ljk5MjIiIGZpbGw9IiM4NEJFODQiIHJ4PSIzIiByeT0iMyIgc3R5bGU9InN0cm9rZTojMDM4MDQ4O3N0cm9rZS13aWR0aDoxLjA7Ii8+PHRleHQgZmlsbD0iIzAwMDAwMCIgZm9udC1mYW1pbHk9InNhbnMtc2VyaWYiIGZvbnQtc2l6ZT0iMTQiIGxlbmd0aEFkanVzdD0ic3BhY2luZyIgdGV4dExlbmd0aD0iMzMxIiB4PSIyNyIgeT0iMzUyLjIzNDQiPnF1ZXJ5X2xhdGVzdF92ZXJzaW9uKHJlcXVlc3RfaW5mbzogZGljdCk6IHR1cGxlPC90ZXh0PjxlbGxpcHNlIGN4PSIxOCIgY3k9IjM2Mi45NzY2IiBmaWxsPSIjODRCRTg0IiByeD0iMyIgcnk9IjMiIHN0eWxlPSJzdHJva2U6IzAzODA0ODtzdHJva2Utd2lkdGg6MS4wOyIvPjx0ZXh0IGZpbGw9IiMwMDAwMDAiIGZvbnQtZmFtaWx5PSJzYW5zLXNlcmlmIiBmb250LXNpemU9IjE0IiBsZW5ndGhBZGp1c3Q9InNwYWNpbmciIHRleHRMZW5ndGg9IjMxOCIgeD0iMjciIHk9IjM2Ny4yMTg4Ij5xdWVyeV9nZW9tZXRyeV9ib3gocmVxdWVzdF9pbmZvOiBkaWN0KTogdHVwbGU8L3RleHQ+PC9nPjwhLS1yZXZlcnNlIGxpbmsgQmFzZUVUTCB0byBMYW5lNGtFVEwtLT48ZyBpZD0ibGlua19CYXNlRVRMX0xhbmU0a0VUTCI+PHBhdGggY29kZUxpbmU9IjE1MiIgZD0iTTIyOTguMzQwOCw0MzMuMjA1OSBDMjI5Mi42NzA4LDQzNi41NDU5IDIzMDIuMzksNDMwLjQyIDIyOTYuNSw0MzMgQzIwNTkuNTcsNTM2LjkgMTk1NiwzOTIuNzUgMTcxNy41LDQ5MyBDMTcwNC40NCw0OTguNDkgMTY5MS44MSw1MDYuNSAxNjgwLjMzLDUxNS4yOCAiIGZpbGw9Im5vbmUiIGlkPSJCYXNlRVRMLWJhY2t0by1MYW5lNGtFVEwiIHN0eWxlPSJzdHJva2U6IzE4MTgxODtzdHJva2Utd2lkdGg6MS4wOyIvPjxwb2x5Z29uIGZpbGw9Im5vbmUiIHBvaW50cz0iMjMxMy44NSw0MjQuMDcsMjI5NS4yOTU1LDQyOC4wMzYyLDIzMDEuMzg2MSw0MzguMzc1NywyMzEzLjg1LDQyNC4wNyIgc3R5bGU9InN0cm9rZTojMTgxODE4O3N0cm9rZS13aWR0aDoxLjA7Ii8+PC9nPjwhLS1yZXZlcnNlIGxpbmsgQmFzZUVUTCB0byBPYmplY3QzZFBvaUVUTC0tPjxnIGlkPSJsaW5rX0Jhc2VFVExfT2JqZWN0M2RQb2lFVEwiPjxwYXRoIGNvZGVMaW5lPSIxNTMiIGQ9Ik0yMjk4LjMwNiw0MzMuMDc1MiBDMjI5Mi42NzYsNDM2LjQ5NTIgMjMwMi4zMiw0MzAuMjggMjI5Ni41LDQzMyBDMjEzNi44Niw1MDcuNjkgMjA2NS42Niw0MjEuNjMgMTkwNC41LDQ5MyBDMTg5MS41Nyw0OTguNzMgMTg3OC45NSw1MDYuNzQgMTg2Ny4zOCw1MTUuNDIgIiBmaWxsPSJub25lIiBpZD0iQmFzZUVUTC1iYWNrdG8tT2JqZWN0M2RQb2lFVEwiIHN0eWxlPSJzdHJva2U6IzE4MTgxODtzdHJva2Utd2lkdGg6MS4wOyIvPjxwb2x5Z29uIGZpbGw9Im5vbmUiIHBvaW50cz0iMjMxMy42OSw0MjMuNzMsMjI5NS4xOTA5LDQyNy45NDcyLDIzMDEuNDIxLDQzOC4yMDMyLDIzMTMuNjksNDIzLjczIiBzdHlsZT0ic3Ryb2tlOiMxODE4MTg7c3Ryb2tlLXdpZHRoOjEuMDsiLz48L2c+PCEtLXJldmVyc2UgbGluayBCYXNlRVRMIHRvIFJlbGVhc2VFVEwtLT48ZyBpZD0ibGlua19CYXNlRVRMX1JlbGVhc2VFVEwiPjxwYXRoIGNvZGVMaW5lPSIxNTQiIGQ9Ik0yMjk5LjE5MTksNDMxLjk4ODEgQzIyOTMuNDQxOSw0MzYuMDI4MSAyMzAyLjM1LDQyOS41IDIyOTYuNSw0MzMgQzIyMzAuNjEsNDcyLjQxIDIyMDMuMDMsNDU4LjM4IDIxMzQuNSw0OTMgQzIxMjguNjQsNDk1Ljk2IDIxMjIuNzEsNDk5LjE2IDIxMTYuNzksNTAyLjUxICIgZmlsbD0ibm9uZSIgaWQ9IkJhc2VFVEwtYmFja3RvLVJlbGVhc2VFVEwiIHN0eWxlPSJzdHJva2U6IzE4MTgxODtzdHJva2Utd2lkdGg6MS4wOyIvPjxwb2x5Z29uIGZpbGw9Im5vbmUiIHBvaW50cz0iMjMxMy45Miw0MjEuNjQsMjI5NS43NDI1LDQyNy4wNzg3LDIzMDIuNjQxMyw0MzYuODk3NSwyMzEzLjkyLDQyMS42NCIgc3R5bGU9InN0cm9rZTojMTgxODE4O3N0cm9rZS13aWR0aDoxLjA7Ii8+PC9nPjwhLS1yZXZlcnNlIGxpbmsgQmFzZUVUTCB0byBJbnRlcnNpb25FVEwtLT48ZyBpZD0ibGlua19CYXNlRVRMX0ludGVyc2lvbkVUTCI+PHBhdGggY29kZUxpbmU9IjE1NSIgZD0iTTIzMjAuMDQ0NSw0NDcuMjA3IEMyMjkzLjI5NDUsNDgxLjUyNyAyMjc1Ljg3LDUwMy44NyAyMjU1LjI0LDUzMC4zNCAiIGZpbGw9Im5vbmUiIGlkPSJCYXNlRVRMLWJhY2t0by1JbnRlcnNpb25FVEwiIHN0eWxlPSJzdHJva2U6IzE4MTgxODtzdHJva2Utd2lkdGg6MS4wOyIvPjxwb2x5Z29uIGZpbGw9Im5vbmUiIHBvaW50cz0iMjMzMS4xMSw0MzMuMDEsMjMxNS4zMTIxLDQ0My41MTg1LDIzMjQuNzc2OCw0NTAuODk1NSwyMzMxLjExLDQzMy4wMSIgc3R5bGU9InN0cm9rZTojMTgxODE4O3N0cm9rZS13aWR0aDoxLjA7Ii8+PC9nPjwhLS1yZXZlcnNlIGxpbmsgQmFzZUVUTCB0byBJbnRlcnNpb240a0VUTC0tPjxnIGlkPSJsaW5rX0Jhc2VFVExfSW50ZXJzaW9uNGtFVEwiPjxwYXRoIGNvZGVMaW5lPSIxNTYiIGQ9Ik0yNDA3LjUsNDUxLjAxIEMyNDA3LjUsNDg1LjMzIDI0MDcuNSw1MDMuODcgMjQwNy41LDUzMC4zNCAiIGZpbGw9Im5vbmUiIGlkPSJCYXNlRVRMLWJhY2t0by1JbnRlcnNpb240a0VUTCIgc3R5bGU9InN0cm9rZTojMTgxODE4O3N0cm9rZS13aWR0aDoxLjA7Ii8+PHBvbHlnb24gZmlsbD0ibm9uZSIgcG9pbnRzPSIyNDA3LjUsNDMzLjAxLDI0MDEuNSw0NTEuMDEsMjQxMy41LDQ1MS4wMSwyNDA3LjUsNDMzLjAxIiBzdHlsZT0ic3Ryb2tlOiMxODE4MTg7c3Ryb2tlLXdpZHRoOjEuMDsiLz48L2c+PCEtLXJldmVyc2UgbGluayBCYXNlRVRMIHRvIE9yaWdpbkVUTC0tPjxnIGlkPSJsaW5rX0Jhc2VFVExfT3JpZ2luRVRMIj48cGF0aCBjb2RlTGluZT0iMTU3IiBkPSJNMjQ5NC45NTU1LDQ0Ny4yMDcgQzI1MjEuNzA1NSw0ODEuNTI3IDI1MzkuMTMsNTAzLjg3IDI1NTkuNzYsNTMwLjM0ICIgZmlsbD0ibm9uZSIgaWQ9IkJhc2VFVEwtYmFja3RvLU9yaWdpbkVUTCIgc3R5bGU9InN0cm9rZTojMTgxODE4O3N0cm9rZS13aWR0aDoxLjA7Ii8+PHBvbHlnb24gZmlsbD0ibm9uZSIgcG9pbnRzPSIyNDgzLjg5LDQzMy4wMSwyNDkwLjIyMzIsNDUwLjg5NTUsMjQ5OS42ODc5LDQ0My41MTg1LDI0ODMuODksNDMzLjAxIiBzdHlsZT0ic3Ryb2tlOiMxODE4MTg7c3Ryb2tlLXdpZHRoOjEuMDsiLz48L2c+PCEtLXJldmVyc2UgbGluayBCYXNlRVRMIHRvIEJncG9pRVRMLS0+PGcgaWQ9ImxpbmtfQmFzZUVUTF9CZ3BvaUVUTCI+PHBhdGggY29kZUxpbmU9IjE1OCIgZD0iTTI1MTYuOTcsMzkyLjc2MTUgQzI1NzAuOCw0MjIuMjIxNSAyNjIzLjEsNDUzIDI2ODAuNSw0OTMgQzI2OTYuODQsNTA0LjM4IDI3MTMuODYsNTE3Ljk4IDI3MjguNyw1MzAuNDggIiBmaWxsPSJub25lIiBpZD0iQmFzZUVUTC1iYWNrdG8tQmdwb2lFVEwiIHN0eWxlPSJzdHJva2U6IzE4MTgxODtzdHJva2Utd2lkdGg6MS4wOyIvPjxwb2x5Z29uIGZpbGw9Im5vbmUiIHBvaW50cz0iMjUwMS4xOCwzODQuMTIsMjUxNC4wODk1LDM5OC4wMjQ5LDI1MTkuODUwNSwzODcuNDk4MiwyNTAxLjE4LDM4NC4xMiIgc3R5bGU9InN0cm9rZTojMTgxODE4O3N0cm9rZS13aWR0aDoxLjA7Ii8+PC9nPjwhLS1yZXZlcnNlIGxpbmsgQmFzZUVUTCB0byBSb3V0ZUVUTC0tPjxnIGlkPSJsaW5rX0Jhc2VFVExfUm91dGVFVEwiPjxwYXRoIGNvZGVMaW5lPSIxNTkiIGQ9Ik0yNTE4LjgzMTksMzYxLjU2NTEgQzI2MTMuODUxOSwzODYuMjQ1MSAyNzQ1LjU5LDQyNy4wOCAyODYyLjUsNDkzIEMyODgwLjU2LDUwMy4xOCAyODk4LjUzLDUxNy4wOCAyOTEzLjY4LDUzMC4xOCAiIGZpbGw9Im5vbmUiIGlkPSJCYXNlRVRMLWJhY2t0by1Sb3V0ZUVUTCIgc3R5bGU9InN0cm9rZTojMTgxODE4O3N0cm9rZS13aWR0aDoxLjA7Ii8+PHBvbHlnb24gZmlsbD0ibm9uZSIgcG9pbnRzPSIyNTAxLjQxLDM1Ny4wNCwyNTE3LjMyMzYsMzY3LjM3MjQsMjUyMC4zNDAzLDM1NS43NTc4LDI1MDEuNDEsMzU3LjA0IiBzdHlsZT0ic3Ryb2tlOiMxODE4MTg7c3Ryb2tlLXdpZHRoOjEuMDsiLz48L2c+PCEtLXJldmVyc2UgbGluayBEYXRhQ29udmVydGVyIHRvIFNxbGl0ZURhdGFDb252ZXJ0ZXItLT48ZyBpZD0ibGlua19EYXRhQ29udmVydGVyX1NxbGl0ZURhdGFDb252ZXJ0ZXIiPjxwYXRoIGNvZGVMaW5lPSIxNjEiIGQ9Ik0zMjE4Ljg2OSw0MDQuNjcgQzMxOTcuODQ5LDQ1MC45NyAzMTc1LjU5LDUwMC4wMiAzMTU4LjM2LDUzNy45OCAiIGZpbGw9Im5vbmUiIGlkPSJEYXRhQ29udmVydGVyLWJhY2t0by1TcWxpdGVEYXRhQ29udmVydGVyIiBzdHlsZT0ic3Ryb2tlOiMxODE4MTg7c3Ryb2tlLXdpZHRoOjEuMDsiLz48cG9seWdvbiBmaWxsPSJub25lIiBwb2ludHM9IjMyMjYuMzEsMzg4LjI4LDMyMTMuNDA1Nyw0MDIuMTg5NywzMjI0LjMzMjMsNDA3LjE1MDMsMzIyNi4zMSwzODguMjgiIHN0eWxlPSJzdHJva2U6IzE4MTgxODtzdHJva2Utd2lkdGg6MS4wOyIvPjwvZz48IS0tcmV2ZXJzZSBsaW5rIERhdGFDb252ZXJ0ZXIgdG8gU2hhcGVmaWxlRGF0YUNvbnZlcnRlci0tPjxnIGlkPSJsaW5rX0RhdGFDb252ZXJ0ZXJfU2hhcGVmaWxlRGF0YUNvbnZlcnRlciI+PHBhdGggY29kZUxpbmU9IjE2MiIgZD0iTTMyODEuODQyMSw0MDQuNjk2NiBDMzMwMi42NjIxLDQ1MC45OTY2IDMzMjQuNzEsNTAwLjAyIDMzNDEuNzcsNTM3Ljk4ICIgZmlsbD0ibm9uZSIgaWQ9IkRhdGFDb252ZXJ0ZXItYmFja3RvLVNoYXBlZmlsZURhdGFDb252ZXJ0ZXIiIHN0eWxlPSJzdHJva2U6IzE4MTgxODtzdHJva2Utd2lkdGg6MS4wOyIvPjxwb2x5Z29uIGZpbGw9Im5vbmUiIHBvaW50cz0iMzI3NC40NiwzODguMjgsMzI3Ni4zNjk5LDQwNy4xNTczLDMyODcuMzE0Myw0MDIuMjM1OSwzMjc0LjQ2LDM4OC4yOCIgc3R5bGU9InN0cm9rZTojMTgxODE4O3N0cm9rZS13aWR0aDoxLjA7Ii8+PC9nPjwhLS1yZXZlcnNlIGxpbmsgRGF0YUNvbnZlcnRlciB0byBHZW9qc29uRGF0YUNvbnZlcnRlci0tPjxnIGlkPSJsaW5rX0RhdGFDb252ZXJ0ZXJfR2VvanNvbkRhdGFDb252ZXJ0ZXIiPjxwYXRoIGNvZGVMaW5lPSIxNjMiIGQ9Ik0zMzMxLjcwMDQsMzk0LjM2MzkgQzMzNzQuNDAwNCw0MjUuNTgzOSAzNDE2LjQ2LDQ1Ni4zNiAzNDY2LjUsNDkzIEMzNDg2LjU0LDUwNy42NyAzNTA4Ljc1LDUyMy45NiAzNTI3LjQxLDUzNy42MyAiIGZpbGw9Im5vbmUiIGlkPSJEYXRhQ29udmVydGVyLWJhY2t0by1HZW9qc29uRGF0YUNvbnZlcnRlciIgc3R5bGU9InN0cm9rZTojMTgxODE4O3N0cm9rZS13aWR0aDoxLjA7Ii8+PHBvbHlnb24gZmlsbD0ibm9uZSIgcG9pbnRzPSIzMzE3LjE3LDM4My43NCwzMzI4LjE1OTEsMzk5LjIwNzQsMzMzNS4yNDE3LDM4OS41MjA0LDMzMTcuMTcsMzgzLjc0IiBzdHlsZT0ic3Ryb2tlOiMxODE4MTg7c3Ryb2tlLXdpZHRoOjEuMDsiLz48L2c+PCEtLWxpbmsgQ29uZmlnIHRvIFJlZGlzQ2xpZW50LS0+PGcgaWQ9ImxpbmtfQ29uZmlnX1JlZGlzQ2xpZW50Ij48cGF0aCBjb2RlTGluZT0iMTY1IiBkPSJNMTUzMS4zMyw5MS43IEMxMzQ0LjMzLDk0LjggOTU5Ljk3LDExNi42IDY2MS41LDIzNSBDNjMwLjIsMjQ3LjQyIDU5OS4xMywyNjguMDkgNTc0LjI1LDI4Ny4yNSAiIGZpbGw9Im5vbmUiIGlkPSJDb25maWctUmVkaXNDbGllbnQiIHN0eWxlPSJzdHJva2U6IzE4MTgxODtzdHJva2Utd2lkdGg6MS4wOyIvPjx0ZXh0IGZpbGw9IiMwMDAwMDAiIGZvbnQtZmFtaWx5PSJzYW5zLXNlcmlmIiBmb250LXNpemU9IjEzIiBsZW5ndGhBZGp1c3Q9InNwYWNpbmciIHRleHRMZW5ndGg9IjciIHg9IjE1MTYuNTU4NCIgeT0iOTAuNjM0MyI+MTwvdGV4dD48dGV4dCBmaWxsPSIjMDAwMDAwIiBmb250LWZhbWlseT0ic2Fucy1zZXJpZiIgZm9udC1zaXplPSIxMyIgbGVuZ3RoQWRqdXN0PSJzcGFjaW5nIiB0ZXh0TGVuZ3RoPSI3IiB4PSI1NzUuNDA3IiB5PSIyNzcuNzk5MSI+MTwvdGV4dD48L2c+PCEtLWxpbmsgQ29uZmlnIHRvIENvc0NsaWVudC0tPjxnIGlkPSJsaW5rX0NvbmZpZ19Db3NDbGllbnQiPjxwYXRoIGNvZGVMaW5lPSIxNjYiIGQ9Ik0xNTMxLjQ1LDExNC4yMiBDMTQxNy4wOCwxMzguMzggMTIzNS4zMiwxODAuODggMTA4My41LDIzNSBDMTA0Ny45MywyNDcuNjggMTAxMC4xOSwyNjQuMTcgOTc2LjYyLDI4MCAiIGZpbGw9Im5vbmUiIGlkPSJDb25maWctQ29zQ2xpZW50IiBzdHlsZT0ic3Ryb2tlOiMxODE4MTg7c3Ryb2tlLXdpZHRoOjEuMDsiLz48dGV4dCBmaWxsPSIjMDAwMDAwIiBmb250LWZhbWlseT0ic2Fucy1zZXJpZiIgZm9udC1zaXplPSIxMyIgbGVuZ3RoQWRqdXN0PSJzcGFjaW5nIiB0ZXh0TGVuZ3RoPSI3IiB4PSIxNTE2LjMyNTQiIHk9IjExNC43MjEyIj4xPC90ZXh0Pjx0ZXh0IGZpbGw9IiMwMDAwMDAiIGZvbnQtZmFtaWx5PSJzYW5zLXNlcmlmIiBmb250LXNpemU9IjEzIiBsZW5ndGhBZGp1c3Q9InNwYWNpbmciIHRleHRMZW5ndGg9IjciIHg9Ijk4NC4zOTg2IiB5PSIyNzAuNDc0OCI+MTwvdGV4dD48L2c+PCEtLWxpbmsgQ29uZmlnIHRvIEhpdmVDbGllbnQtLT48ZyBpZD0ibGlua19Db25maWdfSGl2ZUNsaWVudCI+PHBhdGggY29kZUxpbmU9IjE2NyIgZD0iTTE1MzEuMiwxNDQuOTEgQzE0NzkuMjYsMTcwLjUxIDE0MTcuMjksMjAyLjY1IDEzNjMuNSwyMzUgQzEzMzYuOTMsMjUwLjk4IDEzMDguNzIsMjcwLjI0IDEyODQuNjUsMjg3LjQ1ICIgZmlsbD0ibm9uZSIgaWQ9IkNvbmZpZy1IaXZlQ2xpZW50IiBzdHlsZT0ic3Ryb2tlOiMxODE4MTg7c3Ryb2tlLXdpZHRoOjEuMDsiLz48dGV4dCBmaWxsPSIjMDAwMDAwIiBmb250LWZhbWlseT0ic2Fucy1zZXJpZiIgZm9udC1zaXplPSIxMyIgbGVuZ3RoQWRqdXN0PSJzcGFjaW5nIiB0ZXh0TGVuZ3RoPSI3IiB4PSIxNTE2LjQxOTciIHk9IjE0Ny40MTkzIj4xPC90ZXh0Pjx0ZXh0IGZpbGw9IiMwMDAwMDAiIGZvbnQtZmFtaWx5PSJzYW5zLXNlcmlmIiBmb250LXNpemU9IjEzIiBsZW5ndGhBZGp1c3Q9InNwYWNpbmciIHRleHRMZW5ndGg9IjciIHg9IjEyODcuMTk4MyIgeT0iMjc4LjAzMjIiPjE8L3RleHQ+PC9nPjwhLS1saW5rIENvbmZpZyB0byBQb3N0Z3Jlc0NsaWVudC0tPjxnIGlkPSJsaW5rX0NvbmZpZ19Qb3N0Z3Jlc0NsaWVudCI+PHBhdGggY29kZUxpbmU9IjE2OCIgZD0iTTE1OTUuMTIsMTc1LjI4IEMxNTczLjMxLDIxMi44MyAxNTQ4LjM5LDI1NS43MyAxNTMwLjA1LDI4Ny4zICIgZmlsbD0ibm9uZSIgaWQ9IkNvbmZpZy1Qb3N0Z3Jlc0NsaWVudCIgc3R5bGU9InN0cm9rZTojMTgxODE4O3N0cm9rZS13aWR0aDoxLjA7Ii8+PHRleHQgZmlsbD0iIzAwMDAwMCIgZm9udC1mYW1pbHk9InNhbnMtc2VyaWYiIGZvbnQtc2l6ZT0iMTMiIGxlbmd0aEFkanVzdD0ic3BhY2luZyIgdGV4dExlbmd0aD0iNyIgeD0iMTU4My44MjM3IiB5PSIxOTUuMTI5OCI+MTwvdGV4dD48dGV4dCBmaWxsPSIjMDAwMDAwIiBmb250LWZhbWlseT0ic2Fucy1zZXJpZiIgZm9udC1zaXplPSIxMyIgbGVuZ3RoQWRqdXN0PSJzcGFjaW5nIiB0ZXh0TGVuZ3RoPSI3IiB4PSIxNTI2Ljg2NzciIHk9IjI3Ny44NTc0Ij4xPC90ZXh0PjwvZz48IS0tbGluayBDb25maWcgdG8gU3FsaXRlQ2xpZW50LS0+PGcgaWQ9ImxpbmtfQ29uZmlnX1NxbGl0ZUNsaWVudCI+PHBhdGggY29kZUxpbmU9IjE2OSIgZD0iTTE2OTEuODgsMTc1LjI4IEMxNzEzLjY5LDIxMi44MyAxNzM4LjYxLDI1NS43MyAxNzU2Ljk1LDI4Ny4zICIgZmlsbD0ibm9uZSIgaWQ9IkNvbmZpZy1TcWxpdGVDbGllbnQiIHN0eWxlPSJzdHJva2U6IzE4MTgxODtzdHJva2Utd2lkdGg6MS4wOyIvPjx0ZXh0IGZpbGw9IiMwMDAwMDAiIGZvbnQtZmFtaWx5PSJzYW5zLXNlcmlmIiBmb250LXNpemU9IjEzIiBsZW5ndGhBZGp1c3Q9InNwYWNpbmciIHRleHRMZW5ndGg9IjciIHg9IjE2ODguNTk2NiIgeT0iMTk1LjEyOTgiPjE8L3RleHQ+PHRleHQgZmlsbD0iIzAwMDAwMCIgZm9udC1mYW1pbHk9InNhbnMtc2VyaWYiIGZvbnQtc2l6ZT0iMTMiIGxlbmd0aEFkanVzdD0ic3BhY2luZyIgdGV4dExlbmd0aD0iNyIgeD0iMTc0NC45NzMiIHk9IjI3Ny44NTc0Ij4xPC90ZXh0PjwvZz48IS0tbGluayBDb25maWcgdG8gS2Fma2FDbGllbnQtLT48ZyBpZD0ibGlua19Db25maWdfS2Fma2FDbGllbnQiPjxwYXRoIGNvZGVMaW5lPSIxNzAiIGQ9Ik0xNzU1LjcsMTQ4Ljk2IEMxODA2LjkzLDE3NS4wNiAxODY4LjM1LDIwNi40NyAxOTIzLjUsMjM1IEMxOTUxLjUsMjQ5LjQ4IDE5ODEuNzksMjY1LjMgMjAwOS42NywyNzkuOTEgIiBmaWxsPSJub25lIiBpZD0iQ29uZmlnLUthZmthQ2xpZW50IiBzdHlsZT0ic3Ryb2tlOiMxODE4MTg7c3Ryb2tlLXdpZHRoOjEuMDsiLz48dGV4dCBmaWxsPSIjMDAwMDAwIiBmb250LWZhbWlseT0ic2Fucy1zZXJpZiIgZm9udC1zaXplPSIxMyIgbGVuZ3RoQWRqdXN0PSJzcGFjaW5nIiB0ZXh0TGVuZ3RoPSI3IiB4PSIxNzYzLjQ3MzYiIHk9IjE1MS43NDE0Ij4xPC90ZXh0Pjx0ZXh0IGZpbGw9IiMwMDAwMDAiIGZvbnQtZmFtaWx5PSJzYW5zLXNlcmlmIiBmb250LXNpemU9IjEzIiBsZW5ndGhBZGp1c3Q9InNwYWNpbmciIHRleHRMZW5ndGg9IjciIHg9IjE5ODcuMzQ2NSIgeT0iMjcwLjM3MTYiPjE8L3RleHQ+PC9nPjwhLS1saW5rIENvbmZpZyB0byBCYXNlRVRMLS0+PGcgaWQ9ImxpbmtfQ29uZmlnX0Jhc2VFVEwiPjxwYXRoIGNvZGVMaW5lPSIxNzEiIGQ9Ik0xNzU1LjgsOTkuMzggQzE4OTAuNjYsMTEyLjAyIDIxMjAuNjgsMTQ1LjgxIDIyOTYuNSwyMzUgQzIzMDIuMzUsMjM3Ljk3IDIzMDguMTMsMjQxLjMxIDIzMTMuOCwyNDQuOTQgIiBmaWxsPSJub25lIiBpZD0iQ29uZmlnLUJhc2VFVEwiIHN0eWxlPSJzdHJva2U6IzE4MTgxODtzdHJva2Utd2lkdGg6MS4wOyIvPjx0ZXh0IGZpbGw9IiMwMDAwMDAiIGZvbnQtZmFtaWx5PSJzYW5zLXNlcmlmIiBmb250LXNpemU9IjEzIiBsZW5ndGhBZGp1c3Q9InNwYWNpbmciIHRleHRMZW5ndGg9IjciIHg9IjE3NjMuNTgwMyIgeT0iOTguODMwMyI+MTwvdGV4dD48dGV4dCBmaWxsPSIjMDAwMDAwIiBmb250LWZhbWlseT0ic2Fucy1zZXJpZiIgZm9udC1zaXplPSIxMyIgbGVuZ3RoQWRqdXN0PSJzcGFjaW5nIiB0ZXh0TGVuZ3RoPSI3IiB4PSIyMjk5LjA1NDQiIHk9IjIzNi42NTY4Ij4xPC90ZXh0PjwvZz48IS0tbGluayBDb25maWcgdG8gRGF0YUNvbnZlcnRlci0tPjxnIGlkPSJsaW5rX0NvbmZpZ19EYXRhQ29udmVydGVyIj48cGF0aCBjb2RlTGluZT0iMTcyIiBkPSJNMTc1NS41NCwxMDguOCBDMjA2Ni44OCwxNTUuNDkgMjkzNS44MiwyODUuODEgMzE4My43LDMyMi45OCAiIGZpbGw9Im5vbmUiIGlkPSJDb25maWctRGF0YUNvbnZlcnRlciIgc3R5bGU9InN0cm9rZTojMTgxODE4O3N0cm9rZS13aWR0aDoxLjA7Ii8+PHRleHQgZmlsbD0iIzAwMDAwMCIgZm9udC1mYW1pbHk9InNhbnMtc2VyaWYiIGZvbnQtc2l6ZT0iMTMiIGxlbmd0aEFkanVzdD0ic3BhY2luZyIgdGV4dExlbmd0aD0iNyIgeD0iMTc2My42NjM5IiB5PSIxMjIuODM0MiI+MTwvdGV4dD48dGV4dCBmaWxsPSIjMDAwMDAwIiBmb250LWZhbWlseT0ic2Fucy1zZXJpZiIgZm9udC1zaXplPSIxMyIgbGVuZ3RoQWRqdXN0PSJzcGFjaW5nIiB0ZXh0TGVuZ3RoPSI3IiB4PSIzMTY5LjAxMDkiIHk9IjMyMC40MDYyIj4xPC90ZXh0PjwvZz48IS0tU1JDPVtqTFBESnppbTZCeGRMcUlTQ2E0RnF0UWdUWGFtUlREMEd5M1RTZnN0bUpJblctcUtnY3RfVlEtVEU4YVJqcmc2dTUySXotanZsX0JPaEFIUWZuVEloN2NIX2FmSV81aW1WMkVpdjIxQ0FyWEgzVUhQZ1d0OWtMZ2NzWVdkRm90MDQyT3JPU3V6VXhUQ0pMRU5DMldWLTFPRVFuTmFfOFhwQlJLZjUxb25xNHliRHNFMDhCQ0ROTV9lbkZiRmFaMU55d3I1bHQxTHplS0ZEUHpnQ0RhNlRZeGNNUmdiUEdGazZHRGo5U3p4Y0R3ZVctX1pOeVozcUhVaFhjdDBaMUI2dDJKRG9QZ05hOU1JcVQ4elRrWXNucEtyM3pDNFNsYWkxaVYweFlwVFktQ1QtbW9fdU5Kc0tmSDJqODdYMUxZM2xOcmdHRXFvei1rM2I1bnRGTUFickF4ejBmWlhLY0dKWTlqa1hjeUNTLVNNdU9yMVZqWHoyWjVnOVZFNldVZUhUTERyUnhYMDhZU0xRNHFCbzhvaUVVbDZxaWNjbS1weWxQQ1VVUTVUMEc4S0RUQWo2NXNYYTNBSmpnY1R1bVZ3dlZ4QWZ5TnBQU2h6Z1pNMkx4R2NNcjBRb25mTVJnNERyNEpHMmxQYjRMRlBBME9hc0EtMUF0WW54MVlhaXlSeWROeXVfTFJmUTJHQ1NpZTVEb0lkWGpnY2h3R2lNcDVzYnM2ZU5qWEZ1ZWVBLUJXUDVMcEJkRUlXSlNYRkZrc0dqRVEyX0xtenVhUHlvNnlhWm81RS1nNVp5amNlanIxMkVERzNETGduaG5GM3hzYUZmQkR1dkFCT1NKVkdxQTZhbmZmRkxjMXMwVC01UU1DQzlWbl9aRjZtdm16R3lPQV85ZXRwZVh4RlZsdWk5UkJGQV9wbGdUdlNJdElJb1ktM0dINDlGZENkQ1Jpd185Z2ZRVkhlWTVLUlhMWlpCRTBVRjhYVDFESzhXUmlIUGtRTEo1UHVYMWg4ZnBiVU9aYk5WMHJpbnFndWZXQnZ3cVlveTU5cHYzQVNoRXEzZmNuXzNRLVdudEV4eENuNlFFc0gxcE81aC1seHdCYndabmJqTmlYRGtDemNJRVpWazMxMlJQUVlSUVgzOXIwQ3hPWkYwd3QxN2lfcHRCdzJWREhJcDdGd05GQ3hLNWxFbTlrd1N2MjR0dGtjMENOdXBpTFF1Ykd1Qy02amd0S2dHNVBXeTY0Yk51d3Y4QmVfY0p4ek5ZbTZ0V3g1OFNFNmtlNDdHX2NPTld2ZU9hWVUyYUFuX3kzdGVCbEZEYWQyTFpqYlBEdkhpLVk4T3ZRbmdJUDlUcDRfVU4tSWVldHpEeGdzSGhKemZKRVk2d3Z4NFVOVUtKcXI2NS1uOGtoSHZJWVl4VmVRcUdKcl9XSzBdLS0+PC9nPjwvc3ZnPg==;" vertex="1" parent="WIyWlLk6GJQsqaUBKTNV-1">
            <mxGeometry x="-470" y="180" width="3662" height="652" as="geometry" />
          </mxCell>
        </UserObject>
      </root>
    </mxGraphModel>
  </diagram>
  <diagram id="gXz0FIBmlamZJvL6D1Wg" name="第 2 页">
    <mxGraphModel dx="1242" dy="789" grid="1" gridSize="10" guides="1" tooltips="1" connect="1" arrows="1" fold="1" page="1" pageScale="1" pageWidth="827" pageHeight="1169" math="0" shadow="0">
      <root>
        <mxCell id="0" />
        <mxCell id="1" parent="0" />
        <UserObject label="" plantUmlData="{&#xa;  &quot;data&quot;: &quot;@startuml\n\nclass BaseException {\n    +with_traceback(tb): None\n    -__delattr__(*args, **kwargs): None\n    -__getattribute__(*args, **kwargs): None\n    -__init__(*args, **kwargs): None\n    -__new__(*args, **kwargs): None\n    -__reduce__(*args, **kwargs): None\n    -__repr__(*args, **kwargs): None\n    -__setattr__(*args, **kwargs): None\n    -__setstate__(*args, **kwargs): None\n    -__str__(*args, **kwargs): None\n    -args: object\n    -__cause__: object\n    -__context__: object\n    -__suppress_context__: object\n    -__traceback__: object\n    -__dict__: None\n}\n\nclass Exception {\n    -__init__(*args, **kwargs): None\n    -__new__(*args, **kwargs): None\n}\n\nclass ArithmeticError {\n    -__init__(*args, **kwargs): None\n    -__new__(*args, **kwargs): None\n}\n\nclass AssertionError {\n    -__init__(*args, **kwargs): None\n    -__new__(*args, **kwargs): None\n}\n\nclass AttributeError {\n    -__init__(*args, **kwargs): None\n    -__new__(*args, **kwargs): None\n}\n\nBaseException &lt;|-- Exception\nException &lt;|-- ArithmeticError\nException &lt;|-- AssertionError\nException &lt;|-- AttributeError\n\n@enduml&quot;,&#xa;  &quot;format&quot;: &quot;svg&quot;&#xa;}" id="gtFi9Tg0-iWuhQ6eCn6e-1">
          <mxCell style="shape=image;noLabel=1;verticalAlign=top;aspect=fixed;imageAspect=0;image=data:image/svg+xml,PD94bWwgdmVyc2lvbj0iMS4wIiBlbmNvZGluZz0idXMtYXNjaWkiIHN0YW5kYWxvbmU9Im5vIj8+PHN2ZyB4bWxucz0iaHR0cDovL3d3dy53My5vcmcvMjAwMC9zdmciIHhtbG5zOnhsaW5rPSJodHRwOi8vd3d3LnczLm9yZy8xOTk5L3hsaW5rIiBjb250ZW50U3R5bGVUeXBlPSJ0ZXh0L2NzcyIgaGVpZ2h0PSI1NzdweCIgcHJlc2VydmVBc3BlY3RSYXRpbz0ibm9uZSIgc3R5bGU9IndpZHRoOjgyMnB4O2hlaWdodDo1NzdweDtiYWNrZ3JvdW5kOiNGRkZGRkY7IiB2ZXJzaW9uPSIxLjEiIHZpZXdCb3g9IjAgMCA4MjIgNTc3IiB3aWR0aD0iODIycHgiIHpvb21BbmRQYW49Im1hZ25pZnkiPjxkZWZzLz48Zz48IS0tY2xhc3MgQmFzZUV4Y2VwdGlvbi0tPjxnIGlkPSJlbGVtX0Jhc2VFeGNlcHRpb24iPjxyZWN0IGNvZGVMaW5lPSIxIiBmaWxsPSIjRjFGMUYxIiBoZWlnaHQ9IjI4Ny43NSIgaWQ9IkJhc2VFeGNlcHRpb24iIHJ4PSIyLjUiIHJ5PSIyLjUiIHN0eWxlPSJzdHJva2U6IzE4MTgxODtzdHJva2Utd2lkdGg6MC41OyIgd2lkdGg9IjMwMiIgeD0iMjYwIiB5PSI3Ii8+PGVsbGlwc2UgY3g9IjM2MS4yNSIgY3k9IjIzIiBmaWxsPSIjQUREMUIyIiByeD0iMTEiIHJ5PSIxMSIgc3R5bGU9InN0cm9rZTojMTgxODE4O3N0cm9rZS13aWR0aDoxLjA7Ii8+PHBhdGggZD0iTTM1OC44NzUsMjcuMjUgTDM1OC44NzUsMjkgTDM2My44MTI1LDI5IEwzNjMuODEyNSwyNy4yNSBMMzU4Ljg3NSwyNy4yNSBaIE0zNTkuNTYyNSwyNy45Mzc1IFEzNTkuNTYyNSwyNy45Mzc1IDM1OS41NjI1LDE4Ljc1IEwzNTcuODEyNSwxOC43NSBRMzU3LjgxMjUsMTguNzUgMzU3LjgxMjUsMjcuOTM3NSBMMzU5LjU2MjUsMjcuOTM3NSBaIE0zNjMuMTI1LDI3LjkzNzUgTDM2NC44NzUsMjcuOTM3NSBRMzY0Ljg3NSwyNy45Mzc1IDM2NC44NzUsMjUuMTI1IEwzNjMuMTI1LDI1LjEyNSBRMzYzLjEyNSwyNS4xMjUgMzYzLjEyNSwyNy45Mzc1IFogTTM2My4xMjUsMTguNzUgUTM2My4xMjUsMTguNzUgMzYzLjEyNSwyMS41NjI1IEwzNjQuODc1LDIxLjU2MjUgUTM2NC44NzUsMjEuNTYyNSAzNjQuODc1LDE4Ljc1IEwzNjMuMTI1LDE4Ljc1IFogTTM1OC44NzUsMTkuNDM3NSBMMzYzLjgxMjUsMTkuNDM3NSBMMzYzLjgxMjUsMTcuNjg3NSBMMzU4Ljg3NSwxNy42ODc1IEwzNTguODc1LDE5LjQzNzUgWiAiIGZpbGw9IiMwMDAwMDAiLz48dGV4dCBmaWxsPSIjMDAwMDAwIiBmb250LWZhbWlseT0ic2Fucy1zZXJpZiIgZm9udC1zaXplPSIxNCIgbGVuZ3RoQWRqdXN0PSJzcGFjaW5nIiB0ZXh0TGVuZ3RoPSI5MSIgeD0iMzgxLjc1IiB5PSIyOC43NDIyIj5CYXNlRXhjZXB0aW9uPC90ZXh0PjxsaW5lIHN0eWxlPSJzdHJva2U6IzE4MTgxODtzdHJva2Utd2lkdGg6MC41OyIgeDE9IjI2MSIgeDI9IjU2MSIgeTE9IjM5IiB5Mj0iMzkiLz48cmVjdCBmaWxsPSJub25lIiBoZWlnaHQ9IjYiIHN0eWxlPSJzdHJva2U6I0M4MjkzMDtzdHJva2Utd2lkdGg6MS4wOyIgd2lkdGg9IjYiIHg9IjI2OCIgeT0iNDguOTkyMiIvPjx0ZXh0IGZpbGw9IiMwMDAwMDAiIGZvbnQtZmFtaWx5PSJzYW5zLXNlcmlmIiBmb250LXNpemU9IjE0IiBsZW5ndGhBZGp1c3Q9InNwYWNpbmciIHRleHRMZW5ndGg9Ijg0IiB4PSIyODAiIHk9IjU2LjIzNDQiPmFyZ3M6IG9iamVjdDwvdGV4dD48cmVjdCBmaWxsPSJub25lIiBoZWlnaHQ9IjYiIHN0eWxlPSJzdHJva2U6I0M4MjkzMDtzdHJva2Utd2lkdGg6MS4wOyIgd2lkdGg9IjYiIHg9IjI2OCIgeT0iNjMuOTc2NiIvPjx0ZXh0IGZpbGw9IiMwMDAwMDAiIGZvbnQtZmFtaWx5PSJzYW5zLXNlcmlmIiBmb250LXNpemU9IjE0IiBsZW5ndGhBZGp1c3Q9InNwYWNpbmciIHRleHRMZW5ndGg9IjExOSIgeD0iMjgwIiB5PSI3MS4yMTg4Ij5fX2NhdXNlX186IG9iamVjdDwvdGV4dD48cmVjdCBmaWxsPSJub25lIiBoZWlnaHQ9IjYiIHN0eWxlPSJzdHJva2U6I0M4MjkzMDtzdHJva2Utd2lkdGg6MS4wOyIgd2lkdGg9IjYiIHg9IjI2OCIgeT0iNzguOTYwOSIvPjx0ZXh0IGZpbGw9IiMwMDAwMDAiIGZvbnQtZmFtaWx5PSJzYW5zLXNlcmlmIiBmb250LXNpemU9IjE0IiBsZW5ndGhBZGp1c3Q9InNwYWNpbmciIHRleHRMZW5ndGg9IjEzMyIgeD0iMjgwIiB5PSI4Ni4yMDMxIj5fX2NvbnRleHRfXzogb2JqZWN0PC90ZXh0PjxyZWN0IGZpbGw9Im5vbmUiIGhlaWdodD0iNiIgc3R5bGU9InN0cm9rZTojQzgyOTMwO3N0cm9rZS13aWR0aDoxLjA7IiB3aWR0aD0iNiIgeD0iMjY4IiB5PSI5My45NDUzIi8+PHRleHQgZmlsbD0iIzAwMDAwMCIgZm9udC1mYW1pbHk9InNhbnMtc2VyaWYiIGZvbnQtc2l6ZT0iMTQiIGxlbmd0aEFkanVzdD0ic3BhY2luZyIgdGV4dExlbmd0aD0iMTk2IiB4PSIyODAiIHk9IjEwMS4xODc1Ij5fX3N1cHByZXNzX2NvbnRleHRfXzogb2JqZWN0PC90ZXh0PjxyZWN0IGZpbGw9Im5vbmUiIGhlaWdodD0iNiIgc3R5bGU9InN0cm9rZTojQzgyOTMwO3N0cm9rZS13aWR0aDoxLjA7IiB3aWR0aD0iNiIgeD0iMjY4IiB5PSIxMDguOTI5NyIvPjx0ZXh0IGZpbGw9IiMwMDAwMDAiIGZvbnQtZmFtaWx5PSJzYW5zLXNlcmlmIiBmb250LXNpemU9IjE0IiBsZW5ndGhBZGp1c3Q9InNwYWNpbmciIHRleHRMZW5ndGg9IjE0NyIgeD0iMjgwIiB5PSIxMTYuMTcxOSI+X190cmFjZWJhY2tfXzogb2JqZWN0PC90ZXh0PjxyZWN0IGZpbGw9Im5vbmUiIGhlaWdodD0iNiIgc3R5bGU9InN0cm9rZTojQzgyOTMwO3N0cm9rZS13aWR0aDoxLjA7IiB3aWR0aD0iNiIgeD0iMjY4IiB5PSIxMjMuOTE0MSIvPjx0ZXh0IGZpbGw9IiMwMDAwMDAiIGZvbnQtZmFtaWx5PSJzYW5zLXNlcmlmIiBmb250LXNpemU9IjE0IiBsZW5ndGhBZGp1c3Q9InNwYWNpbmciIHRleHRMZW5ndGg9Ijk4IiB4PSIyODAiIHk9IjEzMS4xNTYzIj5fX2RpY3RfXzogTm9uZTwvdGV4dD48bGluZSBzdHlsZT0ic3Ryb2tlOiMxODE4MTg7c3Ryb2tlLXdpZHRoOjAuNTsiIHgxPSIyNjEiIHgyPSI1NjEiIHkxPSIxMzYuOTA2MyIgeTI9IjEzNi45MDYzIi8+PGVsbGlwc2UgY3g9IjI3MSIgY3k9IjE0OS44OTg0IiBmaWxsPSIjODRCRTg0IiByeD0iMyIgcnk9IjMiIHN0eWxlPSJzdHJva2U6IzAzODA0ODtzdHJva2Utd2lkdGg6MS4wOyIvPjx0ZXh0IGZpbGw9IiMwMDAwMDAiIGZvbnQtZmFtaWx5PSJzYW5zLXNlcmlmIiBmb250LXNpemU9IjE0IiBsZW5ndGhBZGp1c3Q9InNwYWNpbmciIHRleHRMZW5ndGg9IjE3MSIgeD0iMjgwIiB5PSIxNTQuMTQwNiI+d2l0aF90cmFjZWJhY2sodGIpOiBOb25lPC90ZXh0PjxyZWN0IGZpbGw9IiNGMjRENUMiIGhlaWdodD0iNiIgc3R5bGU9InN0cm9rZTojQzgyOTMwO3N0cm9rZS13aWR0aDoxLjA7IiB3aWR0aD0iNiIgeD0iMjY4IiB5PSIxNjEuODgyOCIvPjx0ZXh0IGZpbGw9IiMwMDAwMDAiIGZvbnQtZmFtaWx5PSJzYW5zLXNlcmlmIiBmb250LXNpemU9IjE0IiBsZW5ndGhBZGp1c3Q9InNwYWNpbmciIHRleHRMZW5ndGg9IjI0MSIgeD0iMjgwIiB5PSIxNjkuMTI1Ij5fX2RlbGF0dHJfXygqYXJncywgKiprd2FyZ3MpOiBOb25lPC90ZXh0PjxyZWN0IGZpbGw9IiNGMjRENUMiIGhlaWdodD0iNiIgc3R5bGU9InN0cm9rZTojQzgyOTMwO3N0cm9rZS13aWR0aDoxLjA7IiB3aWR0aD0iNiIgeD0iMjY4IiB5PSIxNzYuODY3MiIvPjx0ZXh0IGZpbGw9IiMwMDAwMDAiIGZvbnQtZmFtaWx5PSJzYW5zLXNlcmlmIiBmb250LXNpemU9IjE0IiBsZW5ndGhBZGp1c3Q9InNwYWNpbmciIHRleHRMZW5ndGg9IjI3NiIgeD0iMjgwIiB5PSIxODQuMTA5NCI+X19nZXRhdHRyaWJ1dGVfXygqYXJncywgKiprd2FyZ3MpOiBOb25lPC90ZXh0PjxyZWN0IGZpbGw9IiNGMjRENUMiIGhlaWdodD0iNiIgc3R5bGU9InN0cm9rZTojQzgyOTMwO3N0cm9rZS13aWR0aDoxLjA7IiB3aWR0aD0iNiIgeD0iMjY4IiB5PSIxOTEuODUxNiIvPjx0ZXh0IGZpbGw9IiMwMDAwMDAiIGZvbnQtZmFtaWx5PSJzYW5zLXNlcmlmIiBmb250LXNpemU9IjE0IiBsZW5ndGhBZGp1c3Q9InNwYWNpbmciIHRleHRMZW5ndGg9IjIyMCIgeD0iMjgwIiB5PSIxOTkuMDkzOCI+X19pbml0X18oKmFyZ3MsICoqa3dhcmdzKTogTm9uZTwvdGV4dD48cmVjdCBmaWxsPSIjRjI0RDVDIiBoZWlnaHQ9IjYiIHN0eWxlPSJzdHJva2U6I0M4MjkzMDtzdHJva2Utd2lkdGg6MS4wOyIgd2lkdGg9IjYiIHg9IjI2OCIgeT0iMjA2LjgzNTkiLz48dGV4dCBmaWxsPSIjMDAwMDAwIiBmb250LWZhbWlseT0ic2Fucy1zZXJpZiIgZm9udC1zaXplPSIxNCIgbGVuZ3RoQWRqdXN0PSJzcGFjaW5nIiB0ZXh0TGVuZ3RoPSIyMTQiIHg9IjI4MCIgeT0iMjE0LjA3ODEiPl9fbmV3X18oKmFyZ3MsICoqa3dhcmdzKTogTm9uZTwvdGV4dD48cmVjdCBmaWxsPSIjRjI0RDVDIiBoZWlnaHQ9IjYiIHN0eWxlPSJzdHJva2U6I0M4MjkzMDtzdHJva2Utd2lkdGg6MS4wOyIgd2lkdGg9IjYiIHg9IjI2OCIgeT0iMjIxLjgyMDMiLz48dGV4dCBmaWxsPSIjMDAwMDAwIiBmb250LWZhbWlseT0ic2Fucy1zZXJpZiIgZm9udC1zaXplPSIxNCIgbGVuZ3RoQWRqdXN0PSJzcGFjaW5nIiB0ZXh0TGVuZ3RoPSIyMzQiIHg9IjI4MCIgeT0iMjI5LjA2MjUiPl9fcmVkdWNlX18oKmFyZ3MsICoqa3dhcmdzKTogTm9uZTwvdGV4dD48cmVjdCBmaWxsPSIjRjI0RDVDIiBoZWlnaHQ9IjYiIHN0eWxlPSJzdHJva2U6I0M4MjkzMDtzdHJva2Utd2lkdGg6MS4wOyIgd2lkdGg9IjYiIHg9IjI2OCIgeT0iMjM2LjgwNDciLz48dGV4dCBmaWxsPSIjMDAwMDAwIiBmb250LWZhbWlseT0ic2Fucy1zZXJpZiIgZm9udC1zaXplPSIxNCIgbGVuZ3RoQWRqdXN0PSJzcGFjaW5nIiB0ZXh0TGVuZ3RoPSIyMjAiIHg9IjI4MCIgeT0iMjQ0LjA0NjkiPl9fcmVwcl9fKCphcmdzLCAqKmt3YXJncyk6IE5vbmU8L3RleHQ+PHJlY3QgZmlsbD0iI0YyNEQ1QyIgaGVpZ2h0PSI2IiBzdHlsZT0ic3Ryb2tlOiNDODI5MzA7c3Ryb2tlLXdpZHRoOjEuMDsiIHdpZHRoPSI2IiB4PSIyNjgiIHk9IjI1MS43ODkxIi8+PHRleHQgZmlsbD0iIzAwMDAwMCIgZm9udC1mYW1pbHk9InNhbnMtc2VyaWYiIGZvbnQtc2l6ZT0iMTQiIGxlbmd0aEFkanVzdD0ic3BhY2luZyIgdGV4dExlbmd0aD0iMjQxIiB4PSIyODAiIHk9IjI1OS4wMzEzIj5fX3NldGF0dHJfXygqYXJncywgKiprd2FyZ3MpOiBOb25lPC90ZXh0PjxyZWN0IGZpbGw9IiNGMjRENUMiIGhlaWdodD0iNiIgc3R5bGU9InN0cm9rZTojQzgyOTMwO3N0cm9rZS13aWR0aDoxLjA7IiB3aWR0aD0iNiIgeD0iMjY4IiB5PSIyNjYuNzczNCIvPjx0ZXh0IGZpbGw9IiMwMDAwMDAiIGZvbnQtZmFtaWx5PSJzYW5zLXNlcmlmIiBmb250LXNpemU9IjE0IiBsZW5ndGhBZGp1c3Q9InNwYWNpbmciIHRleHRMZW5ndGg9IjI0OCIgeD0iMjgwIiB5PSIyNzQuMDE1NiI+X19zZXRzdGF0ZV9fKCphcmdzLCAqKmt3YXJncyk6IE5vbmU8L3RleHQ+PHJlY3QgZmlsbD0iI0YyNEQ1QyIgaGVpZ2h0PSI2IiBzdHlsZT0ic3Ryb2tlOiNDODI5MzA7c3Ryb2tlLXdpZHRoOjEuMDsiIHdpZHRoPSI2IiB4PSIyNjgiIHk9IjI4MS43NTc4Ii8+PHRleHQgZmlsbD0iIzAwMDAwMCIgZm9udC1mYW1pbHk9InNhbnMtc2VyaWYiIGZvbnQtc2l6ZT0iMTQiIGxlbmd0aEFkanVzdD0ic3BhY2luZyIgdGV4dExlbmd0aD0iMjEzIiB4PSIyODAiIHk9IjI4OSI+X19zdHJfXygqYXJncywgKiprd2FyZ3MpOiBOb25lPC90ZXh0PjwvZz48IS0tY2xhc3MgRXhjZXB0aW9uLS0+PGcgaWQ9ImVsZW1fRXhjZXB0aW9uIj48cmVjdCBjb2RlTGluZT0iMjAiIGZpbGw9IiNGMUYxRjEiIGhlaWdodD0iNzcuOTY4OCIgaWQ9IkV4Y2VwdGlvbiIgcng9IjIuNSIgcnk9IjIuNSIgc3R5bGU9InN0cm9rZTojMTgxODE4O3N0cm9rZS13aWR0aDowLjU7IiB3aWR0aD0iMjQ2IiB4PSIyODgiIHk9IjM1NSIvPjxlbGxpcHNlIGN4PSIzNzUuMjUiIGN5PSIzNzEiIGZpbGw9IiNBREQxQjIiIHJ4PSIxMSIgcnk9IjExIiBzdHlsZT0ic3Ryb2tlOiMxODE4MTg7c3Ryb2tlLXdpZHRoOjEuMDsiLz48cGF0aCBkPSJNMzcyLjg3NSwzNzUuMjUgTDM3Mi44NzUsMzc3IEwzNzcuODEyNSwzNzcgTDM3Ny44MTI1LDM3NS4yNSBMMzcyLjg3NSwzNzUuMjUgWiBNMzczLjU2MjUsMzc1LjkzNzUgUTM3My41NjI1LDM3NS45Mzc1IDM3My41NjI1LDM2Ni43NSBMMzcxLjgxMjUsMzY2Ljc1IFEzNzEuODEyNSwzNjYuNzUgMzcxLjgxMjUsMzc1LjkzNzUgTDM3My41NjI1LDM3NS45Mzc1IFogTTM3Ny4xMjUsMzc1LjkzNzUgTDM3OC44NzUsMzc1LjkzNzUgUTM3OC44NzUsMzc1LjkzNzUgMzc4Ljg3NSwzNzMuMTI1IEwzNzcuMTI1LDM3My4xMjUgUTM3Ny4xMjUsMzczLjEyNSAzNzcuMTI1LDM3NS45Mzc1IFogTTM3Ny4xMjUsMzY2Ljc1IFEzNzcuMTI1LDM2Ni43NSAzNzcuMTI1LDM2OS41NjI1IEwzNzguODc1LDM2OS41NjI1IFEzNzguODc1LDM2OS41NjI1IDM3OC44NzUsMzY2Ljc1IEwzNzcuMTI1LDM2Ni43NSBaIE0zNzIuODc1LDM2Ny40Mzc1IEwzNzcuODEyNSwzNjcuNDM3NSBMMzc3LjgxMjUsMzY1LjY4NzUgTDM3Mi44NzUsMzY1LjY4NzUgTDM3Mi44NzUsMzY3LjQzNzUgWiAiIGZpbGw9IiMwMDAwMDAiLz48dGV4dCBmaWxsPSIjMDAwMDAwIiBmb250LWZhbWlseT0ic2Fucy1zZXJpZiIgZm9udC1zaXplPSIxNCIgbGVuZ3RoQWRqdXN0PSJzcGFjaW5nIiB0ZXh0TGVuZ3RoPSI2MyIgeD0iMzk1Ljc1IiB5PSIzNzYuNzQyMiI+RXhjZXB0aW9uPC90ZXh0PjxsaW5lIHN0eWxlPSJzdHJva2U6IzE4MTgxODtzdHJva2Utd2lkdGg6MC41OyIgeDE9IjI4OSIgeDI9IjUzMyIgeTE9IjM4NyIgeTI9IjM4NyIvPjxsaW5lIHN0eWxlPSJzdHJva2U6IzE4MTgxODtzdHJva2Utd2lkdGg6MC41OyIgeDE9IjI4OSIgeDI9IjUzMyIgeTE9IjM5NSIgeTI9IjM5NSIvPjxyZWN0IGZpbGw9IiNGMjRENUMiIGhlaWdodD0iNiIgc3R5bGU9InN0cm9rZTojQzgyOTMwO3N0cm9rZS13aWR0aDoxLjA7IiB3aWR0aD0iNiIgeD0iMjk2IiB5PSI0MDQuOTkyMiIvPjx0ZXh0IGZpbGw9IiMwMDAwMDAiIGZvbnQtZmFtaWx5PSJzYW5zLXNlcmlmIiBmb250LXNpemU9IjE0IiBsZW5ndGhBZGp1c3Q9InNwYWNpbmciIHRleHRMZW5ndGg9IjIyMCIgeD0iMzA4IiB5PSI0MTIuMjM0NCI+X19pbml0X18oKmFyZ3MsICoqa3dhcmdzKTogTm9uZTwvdGV4dD48cmVjdCBmaWxsPSIjRjI0RDVDIiBoZWlnaHQ9IjYiIHN0eWxlPSJzdHJva2U6I0M4MjkzMDtzdHJva2Utd2lkdGg6MS4wOyIgd2lkdGg9IjYiIHg9IjI5NiIgeT0iNDE5Ljk3NjYiLz48dGV4dCBmaWxsPSIjMDAwMDAwIiBmb250LWZhbWlseT0ic2Fucy1zZXJpZiIgZm9udC1zaXplPSIxNCIgbGVuZ3RoQWRqdXN0PSJzcGFjaW5nIiB0ZXh0TGVuZ3RoPSIyMTQiIHg9IjMwOCIgeT0iNDI3LjIxODgiPl9fbmV3X18oKmFyZ3MsICoqa3dhcmdzKTogTm9uZTwvdGV4dD48L2c+PCEtLWNsYXNzIEFyaXRobWV0aWNFcnJvci0tPjxnIGlkPSJlbGVtX0FyaXRobWV0aWNFcnJvciI+PHJlY3QgY29kZUxpbmU9IjI1IiBmaWxsPSIjRjFGMUYxIiBoZWlnaHQ9Ijc3Ljk2ODgiIGlkPSJBcml0aG1ldGljRXJyb3IiIHJ4PSIyLjUiIHJ5PSIyLjUiIHN0eWxlPSJzdHJva2U6IzE4MTgxODtzdHJva2Utd2lkdGg6MC41OyIgd2lkdGg9IjI0NiIgeD0iNyIgeT0iNDkzIi8+PGVsbGlwc2UgY3g9IjcyLjc1IiBjeT0iNTA5IiBmaWxsPSIjQUREMUIyIiByeD0iMTEiIHJ5PSIxMSIgc3R5bGU9InN0cm9rZTojMTgxODE4O3N0cm9rZS13aWR0aDoxLjA7Ii8+PHBhdGggZD0iTTcwLjM3NSw1MTMuMjUgTDcwLjM3NSw1MTUgTDc1LjMxMjUsNTE1IEw3NS4zMTI1LDUxMy4yNSBMNzAuMzc1LDUxMy4yNSBaIE03MS4wNjI1LDUxMy45Mzc1IFE3MS4wNjI1LDUxMy45Mzc1IDcxLjA2MjUsNTA0Ljc1IEw2OS4zMTI1LDUwNC43NSBRNjkuMzEyNSw1MDQuNzUgNjkuMzEyNSw1MTMuOTM3NSBMNzEuMDYyNSw1MTMuOTM3NSBaIE03NC42MjUsNTEzLjkzNzUgTDc2LjM3NSw1MTMuOTM3NSBRNzYuMzc1LDUxMy45Mzc1IDc2LjM3NSw1MTEuMTI1IEw3NC42MjUsNTExLjEyNSBRNzQuNjI1LDUxMS4xMjUgNzQuNjI1LDUxMy45Mzc1IFogTTc0LjYyNSw1MDQuNzUgUTc0LjYyNSw1MDQuNzUgNzQuNjI1LDUwNy41NjI1IEw3Ni4zNzUsNTA3LjU2MjUgUTc2LjM3NSw1MDcuNTYyNSA3Ni4zNzUsNTA0Ljc1IEw3NC42MjUsNTA0Ljc1IFogTTcwLjM3NSw1MDUuNDM3NSBMNzUuMzEyNSw1MDUuNDM3NSBMNzUuMzEyNSw1MDMuNjg3NSBMNzAuMzc1LDUwMy42ODc1IEw3MC4zNzUsNTA1LjQzNzUgWiAiIGZpbGw9IiMwMDAwMDAiLz48dGV4dCBmaWxsPSIjMDAwMDAwIiBmb250LWZhbWlseT0ic2Fucy1zZXJpZiIgZm9udC1zaXplPSIxNCIgbGVuZ3RoQWRqdXN0PSJzcGFjaW5nIiB0ZXh0TGVuZ3RoPSIxMDYiIHg9IjkzLjI1IiB5PSI1MTQuNzQyMiI+QXJpdGhtZXRpY0Vycm9yPC90ZXh0PjxsaW5lIHN0eWxlPSJzdHJva2U6IzE4MTgxODtzdHJva2Utd2lkdGg6MC41OyIgeDE9IjgiIHgyPSIyNTIiIHkxPSI1MjUiIHkyPSI1MjUiLz48bGluZSBzdHlsZT0ic3Ryb2tlOiMxODE4MTg7c3Ryb2tlLXdpZHRoOjAuNTsiIHgxPSI4IiB4Mj0iMjUyIiB5MT0iNTMzIiB5Mj0iNTMzIi8+PHJlY3QgZmlsbD0iI0YyNEQ1QyIgaGVpZ2h0PSI2IiBzdHlsZT0ic3Ryb2tlOiNDODI5MzA7c3Ryb2tlLXdpZHRoOjEuMDsiIHdpZHRoPSI2IiB4PSIxNSIgeT0iNTQyLjk5MjIiLz48dGV4dCBmaWxsPSIjMDAwMDAwIiBmb250LWZhbWlseT0ic2Fucy1zZXJpZiIgZm9udC1zaXplPSIxNCIgbGVuZ3RoQWRqdXN0PSJzcGFjaW5nIiB0ZXh0TGVuZ3RoPSIyMjAiIHg9IjI3IiB5PSI1NTAuMjM0NCI+X19pbml0X18oKmFyZ3MsICoqa3dhcmdzKTogTm9uZTwvdGV4dD48cmVjdCBmaWxsPSIjRjI0RDVDIiBoZWlnaHQ9IjYiIHN0eWxlPSJzdHJva2U6I0M4MjkzMDtzdHJva2Utd2lkdGg6MS4wOyIgd2lkdGg9IjYiIHg9IjE1IiB5PSI1NTcuOTc2NiIvPjx0ZXh0IGZpbGw9IiMwMDAwMDAiIGZvbnQtZmFtaWx5PSJzYW5zLXNlcmlmIiBmb250LXNpemU9IjE0IiBsZW5ndGhBZGp1c3Q9InNwYWNpbmciIHRleHRMZW5ndGg9IjIxNCIgeD0iMjciIHk9IjU2NS4yMTg4Ij5fX25ld19fKCphcmdzLCAqKmt3YXJncyk6IE5vbmU8L3RleHQ+PC9nPjwhLS1jbGFzcyBBc3NlcnRpb25FcnJvci0tPjxnIGlkPSJlbGVtX0Fzc2VydGlvbkVycm9yIj48cmVjdCBjb2RlTGluZT0iMzAiIGZpbGw9IiNGMUYxRjEiIGhlaWdodD0iNzcuOTY4OCIgaWQ9IkFzc2VydGlvbkVycm9yIiByeD0iMi41IiByeT0iMi41IiBzdHlsZT0ic3Ryb2tlOiMxODE4MTg7c3Ryb2tlLXdpZHRoOjAuNTsiIHdpZHRoPSIyNDYiIHg9IjI4OCIgeT0iNDkzIi8+PGVsbGlwc2UgY3g9IjM1Ny43NSIgY3k9IjUwOSIgZmlsbD0iI0FERDFCMiIgcng9IjExIiByeT0iMTEiIHN0eWxlPSJzdHJva2U6IzE4MTgxODtzdHJva2Utd2lkdGg6MS4wOyIvPjxwYXRoIGQ9Ik0zNTUuMzc1LDUxMy4yNSBMMzU1LjM3NSw1MTUgTDM2MC4zMTI1LDUxNSBMMzYwLjMxMjUsNTEzLjI1IEwzNTUuMzc1LDUxMy4yNSBaIE0zNTYuMDYyNSw1MTMuOTM3NSBRMzU2LjA2MjUsNTEzLjkzNzUgMzU2LjA2MjUsNTA0Ljc1IEwzNTQuMzEyNSw1MDQuNzUgUTM1NC4zMTI1LDUwNC43NSAzNTQuMzEyNSw1MTMuOTM3NSBMMzU2LjA2MjUsNTEzLjkzNzUgWiBNMzU5LjYyNSw1MTMuOTM3NSBMMzYxLjM3NSw1MTMuOTM3NSBRMzYxLjM3NSw1MTMuOTM3NSAzNjEuMzc1LDUxMS4xMjUgTDM1OS42MjUsNTExLjEyNSBRMzU5LjYyNSw1MTEuMTI1IDM1OS42MjUsNTEzLjkzNzUgWiBNMzU5LjYyNSw1MDQuNzUgUTM1OS42MjUsNTA0Ljc1IDM1OS42MjUsNTA3LjU2MjUgTDM2MS4zNzUsNTA3LjU2MjUgUTM2MS4zNzUsNTA3LjU2MjUgMzYxLjM3NSw1MDQuNzUgTDM1OS42MjUsNTA0Ljc1IFogTTM1NS4zNzUsNTA1LjQzNzUgTDM2MC4zMTI1LDUwNS40Mzc1IEwzNjAuMzEyNSw1MDMuNjg3NSBMMzU1LjM3NSw1MDMuNjg3NSBMMzU1LjM3NSw1MDUuNDM3NSBaICIgZmlsbD0iIzAwMDAwMCIvPjx0ZXh0IGZpbGw9IiMwMDAwMDAiIGZvbnQtZmFtaWx5PSJzYW5zLXNlcmlmIiBmb250LXNpemU9IjE0IiBsZW5ndGhBZGp1c3Q9InNwYWNpbmciIHRleHRMZW5ndGg9Ijk4IiB4PSIzNzguMjUiIHk9IjUxNC43NDIyIj5Bc3NlcnRpb25FcnJvcjwvdGV4dD48bGluZSBzdHlsZT0ic3Ryb2tlOiMxODE4MTg7c3Ryb2tlLXdpZHRoOjAuNTsiIHgxPSIyODkiIHgyPSI1MzMiIHkxPSI1MjUiIHkyPSI1MjUiLz48bGluZSBzdHlsZT0ic3Ryb2tlOiMxODE4MTg7c3Ryb2tlLXdpZHRoOjAuNTsiIHgxPSIyODkiIHgyPSI1MzMiIHkxPSI1MzMiIHkyPSI1MzMiLz48cmVjdCBmaWxsPSIjRjI0RDVDIiBoZWlnaHQ9IjYiIHN0eWxlPSJzdHJva2U6I0M4MjkzMDtzdHJva2Utd2lkdGg6MS4wOyIgd2lkdGg9IjYiIHg9IjI5NiIgeT0iNTQyLjk5MjIiLz48dGV4dCBmaWxsPSIjMDAwMDAwIiBmb250LWZhbWlseT0ic2Fucy1zZXJpZiIgZm9udC1zaXplPSIxNCIgbGVuZ3RoQWRqdXN0PSJzcGFjaW5nIiB0ZXh0TGVuZ3RoPSIyMjAiIHg9IjMwOCIgeT0iNTUwLjIzNDQiPl9faW5pdF9fKCphcmdzLCAqKmt3YXJncyk6IE5vbmU8L3RleHQ+PHJlY3QgZmlsbD0iI0YyNEQ1QyIgaGVpZ2h0PSI2IiBzdHlsZT0ic3Ryb2tlOiNDODI5MzA7c3Ryb2tlLXdpZHRoOjEuMDsiIHdpZHRoPSI2IiB4PSIyOTYiIHk9IjU1Ny45NzY2Ii8+PHRleHQgZmlsbD0iIzAwMDAwMCIgZm9udC1mYW1pbHk9InNhbnMtc2VyaWYiIGZvbnQtc2l6ZT0iMTQiIGxlbmd0aEFkanVzdD0ic3BhY2luZyIgdGV4dExlbmd0aD0iMjE0IiB4PSIzMDgiIHk9IjU2NS4yMTg4Ij5fX25ld19fKCphcmdzLCAqKmt3YXJncyk6IE5vbmU8L3RleHQ+PC9nPjwhLS1jbGFzcyBBdHRyaWJ1dGVFcnJvci0tPjxnIGlkPSJlbGVtX0F0dHJpYnV0ZUVycm9yIj48cmVjdCBjb2RlTGluZT0iMzUiIGZpbGw9IiNGMUYxRjEiIGhlaWdodD0iNzcuOTY4OCIgaWQ9IkF0dHJpYnV0ZUVycm9yIiByeD0iMi41IiByeT0iMi41IiBzdHlsZT0ic3Ryb2tlOiMxODE4MTg7c3Ryb2tlLXdpZHRoOjAuNTsiIHdpZHRoPSIyNDYiIHg9IjU2OSIgeT0iNDkzIi8+PGVsbGlwc2UgY3g9IjYzOC43NSIgY3k9IjUwOSIgZmlsbD0iI0FERDFCMiIgcng9IjExIiByeT0iMTEiIHN0eWxlPSJzdHJva2U6IzE4MTgxODtzdHJva2Utd2lkdGg6MS4wOyIvPjxwYXRoIGQ9Ik02MzYuMzc1LDUxMy4yNSBMNjM2LjM3NSw1MTUgTDY0MS4zMTI1LDUxNSBMNjQxLjMxMjUsNTEzLjI1IEw2MzYuMzc1LDUxMy4yNSBaIE02MzcuMDYyNSw1MTMuOTM3NSBRNjM3LjA2MjUsNTEzLjkzNzUgNjM3LjA2MjUsNTA0Ljc1IEw2MzUuMzEyNSw1MDQuNzUgUTYzNS4zMTI1LDUwNC43NSA2MzUuMzEyNSw1MTMuOTM3NSBMNjM3LjA2MjUsNTEzLjkzNzUgWiBNNjQwLjYyNSw1MTMuOTM3NSBMNjQyLjM3NSw1MTMuOTM3NSBRNjQyLjM3NSw1MTMuOTM3NSA2NDIuMzc1LDUxMS4xMjUgTDY0MC42MjUsNTExLjEyNSBRNjQwLjYyNSw1MTEuMTI1IDY0MC42MjUsNTEzLjkzNzUgWiBNNjQwLjYyNSw1MDQuNzUgUTY0MC42MjUsNTA0Ljc1IDY0MC42MjUsNTA3LjU2MjUgTDY0Mi4zNzUsNTA3LjU2MjUgUTY0Mi4zNzUsNTA3LjU2MjUgNjQyLjM3NSw1MDQuNzUgTDY0MC42MjUsNTA0Ljc1IFogTTYzNi4zNzUsNTA1LjQzNzUgTDY0MS4zMTI1LDUwNS40Mzc1IEw2NDEuMzEyNSw1MDMuNjg3NSBMNjM2LjM3NSw1MDMuNjg3NSBMNjM2LjM3NSw1MDUuNDM3NSBaICIgZmlsbD0iIzAwMDAwMCIvPjx0ZXh0IGZpbGw9IiMwMDAwMDAiIGZvbnQtZmFtaWx5PSJzYW5zLXNlcmlmIiBmb250LXNpemU9IjE0IiBsZW5ndGhBZGp1c3Q9InNwYWNpbmciIHRleHRMZW5ndGg9Ijk4IiB4PSI2NTkuMjUiIHk9IjUxNC43NDIyIj5BdHRyaWJ1dGVFcnJvcjwvdGV4dD48bGluZSBzdHlsZT0ic3Ryb2tlOiMxODE4MTg7c3Ryb2tlLXdpZHRoOjAuNTsiIHgxPSI1NzAiIHgyPSI4MTQiIHkxPSI1MjUiIHkyPSI1MjUiLz48bGluZSBzdHlsZT0ic3Ryb2tlOiMxODE4MTg7c3Ryb2tlLXdpZHRoOjAuNTsiIHgxPSI1NzAiIHgyPSI4MTQiIHkxPSI1MzMiIHkyPSI1MzMiLz48cmVjdCBmaWxsPSIjRjI0RDVDIiBoZWlnaHQ9IjYiIHN0eWxlPSJzdHJva2U6I0M4MjkzMDtzdHJva2Utd2lkdGg6MS4wOyIgd2lkdGg9IjYiIHg9IjU3NyIgeT0iNTQyLjk5MjIiLz48dGV4dCBmaWxsPSIjMDAwMDAwIiBmb250LWZhbWlseT0ic2Fucy1zZXJpZiIgZm9udC1zaXplPSIxNCIgbGVuZ3RoQWRqdXN0PSJzcGFjaW5nIiB0ZXh0TGVuZ3RoPSIyMjAiIHg9IjU4OSIgeT0iNTUwLjIzNDQiPl9faW5pdF9fKCphcmdzLCAqKmt3YXJncyk6IE5vbmU8L3RleHQ+PHJlY3QgZmlsbD0iI0YyNEQ1QyIgaGVpZ2h0PSI2IiBzdHlsZT0ic3Ryb2tlOiNDODI5MzA7c3Ryb2tlLXdpZHRoOjEuMDsiIHdpZHRoPSI2IiB4PSI1NzciIHk9IjU1Ny45NzY2Ii8+PHRleHQgZmlsbD0iIzAwMDAwMCIgZm9udC1mYW1pbHk9InNhbnMtc2VyaWYiIGZvbnQtc2l6ZT0iMTQiIGxlbmd0aEFkanVzdD0ic3BhY2luZyIgdGV4dExlbmd0aD0iMjE0IiB4PSI1ODkiIHk9IjU2NS4yMTg4Ij5fX25ld19fKCphcmdzLCAqKmt3YXJncyk6IE5vbmU8L3RleHQ+PC9nPjwhLS1yZXZlcnNlIGxpbmsgQmFzZUV4Y2VwdGlvbiB0byBFeGNlcHRpb24tLT48ZyBpZD0ibGlua19CYXNlRXhjZXB0aW9uX0V4Y2VwdGlvbiI+PHBhdGggY29kZUxpbmU9IjQwIiBkPSJNNDExLDMxMy4zMiBDNDExLDMzNS4xNiA0MTEsMzM3Ljk1IDQxMSwzNTQuNyAiIGZpbGw9Im5vbmUiIGlkPSJCYXNlRXhjZXB0aW9uLWJhY2t0by1FeGNlcHRpb24iIHN0eWxlPSJzdHJva2U6IzE4MTgxODtzdHJva2Utd2lkdGg6MS4wOyIvPjxwb2x5Z29uIGZpbGw9Im5vbmUiIHBvaW50cz0iNDExLDI5NS4zMiw0MDUsMzEzLjMyLDQxNywzMTMuMzIsNDExLDI5NS4zMiIgc3R5bGU9InN0cm9rZTojMTgxODE4O3N0cm9rZS13aWR0aDoxLjA7Ii8+PC9nPjwhLS1yZXZlcnNlIGxpbmsgRXhjZXB0aW9uIHRvIEFyaXRobWV0aWNFcnJvci0tPjxnIGlkPSJsaW5rX0V4Y2VwdGlvbl9Bcml0aG1ldGljRXJyb3IiPjxwYXRoIGNvZGVMaW5lPSI0MSIgZD0iTTMxNi4xNDkzLDQ0MC45MDQ2IEMyNzcuNTA5Myw0NTkuNjE0NiAyNDcuMjcsNDc0LjI0IDIwOC42Myw0OTIuOTQgIiBmaWxsPSJub25lIiBpZD0iRXhjZXB0aW9uLWJhY2t0by1Bcml0aG1ldGljRXJyb3IiIHN0eWxlPSJzdHJva2U6IzE4MTgxODtzdHJva2Utd2lkdGg6MS4wOyIvPjxwb2x5Z29uIGZpbGw9Im5vbmUiIHBvaW50cz0iMzMyLjM1LDQzMy4wNiwzMTMuNTM0NCw0MzUuNTA0NCwzMTguNzY0Miw0NDYuMzA0OCwzMzIuMzUsNDMzLjA2IiBzdHlsZT0ic3Ryb2tlOiMxODE4MTg7c3Ryb2tlLXdpZHRoOjEuMDsiLz48L2c+PCEtLXJldmVyc2UgbGluayBFeGNlcHRpb24gdG8gQXNzZXJ0aW9uRXJyb3ItLT48ZyBpZD0ibGlua19FeGNlcHRpb25fQXNzZXJ0aW9uRXJyb3IiPjxwYXRoIGNvZGVMaW5lPSI0MiIgZD0iTTQxMSw0NTEuMjUgQzQxMSw0NjkuNzkgNDExLDQ3NCA0MTEsNDkyLjU3ICIgZmlsbD0ibm9uZSIgaWQ9IkV4Y2VwdGlvbi1iYWNrdG8tQXNzZXJ0aW9uRXJyb3IiIHN0eWxlPSJzdHJva2U6IzE4MTgxODtzdHJva2Utd2lkdGg6MS4wOyIvPjxwb2x5Z29uIGZpbGw9Im5vbmUiIHBvaW50cz0iNDExLDQzMy4yNSw0MDUsNDUxLjI1LDQxNyw0NTEuMjUsNDExLDQzMy4yNSIgc3R5bGU9InN0cm9rZTojMTgxODE4O3N0cm9rZS13aWR0aDoxLjA7Ii8+PC9nPjwhLS1yZXZlcnNlIGxpbmsgRXhjZXB0aW9uIHRvIEF0dHJpYnV0ZUVycm9yLS0+PGcgaWQ9ImxpbmtfRXhjZXB0aW9uX0F0dHJpYnV0ZUVycm9yIj48cGF0aCBjb2RlTGluZT0iNDMiIGQ9Ik01MDUuODUwNyw0NDAuOTA0NiBDNTQ0LjQ5MDcsNDU5LjYxNDYgNTc0LjczLDQ3NC4yNCA2MTMuMzcsNDkyLjk0ICIgZmlsbD0ibm9uZSIgaWQ9IkV4Y2VwdGlvbi1iYWNrdG8tQXR0cmlidXRlRXJyb3IiIHN0eWxlPSJzdHJva2U6IzE4MTgxODtzdHJva2Utd2lkdGg6MS4wOyIvPjxwb2x5Z29uIGZpbGw9Im5vbmUiIHBvaW50cz0iNDg5LjY1LDQzMy4wNiw1MDMuMjM1OCw0NDYuMzA0OCw1MDguNDY1Niw0MzUuNTA0NCw0ODkuNjUsNDMzLjA2IiBzdHlsZT0ic3Ryb2tlOiMxODE4MTg7c3Ryb2tlLXdpZHRoOjEuMDsiLz48L2c+PCEtLVNSQz1balBDeDNpOG0zOFJ0ZFk4WjU3ZTFuMDhJQXJVOEtqVTJ5NFdnc3JNSFdCbEo1VzVnOG5HNmNZZG9femNFN3U2Sk9MUGhteFl2MDlQWWxMRk5IM0xkTGJsUFFvNDNjMWl1SllJVkJqSk1FLXBLSkVpMkpxUTRqOXdhWGRPeUxzYndoRGxSV0RrWGo5cERBeTRlUjlzTEFFSW1aWkE0SEdOdTByUjZBLTFkMVJ6bXQ5M25oMW1EclhlTW9rUzcxN2J2V1FjdVlIc09sSEV5STJYbUxQUTRwRC05enRIM2dSM0dFTkhGa1lTOVQ4aW9OOUFfSkVtVFZLTkRvZnJIQjZvOEY4c0pXbmNmaE0zNDVBemo3b0Q1X3dpa1JyZHM2S2VvNDBSejNFSFVBbUFyTHlLM10tLT48L2c+PC9zdmc+;" vertex="1" parent="1">
            <mxGeometry y="120" width="822" height="577" as="geometry" />
          </mxCell>
        </UserObject>
      </root>
    </mxGraphModel>
  </diagram>
  <diagram id="nuPD1D8QNTHOc4vRCUE6" name="第 3 页">
    <mxGraphModel dx="1242" dy="789" grid="1" gridSize="10" guides="1" tooltips="1" connect="1" arrows="1" fold="1" page="1" pageScale="1" pageWidth="827" pageHeight="1169" math="0" shadow="0">
      <root>
        <mxCell id="0" />
        <mxCell id="1" parent="0" />
        <UserObject label="" plantUmlData="{&#xa;  &quot;data&quot;: &quot;@startuml\n\nentity \&quot;manage_total\&quot; as manage_total {\n  + id : BIGSERIAL (PK)\n  --\n  unimap_version : character varying(64) (UQ)\n  release_id : character varying(64)\n  project_name : text\n  cos_bucket : character varying(64)\n  cos_path : text\n  timestamp : bigint\n  status : int\n  context : json\n  memo : text\n  insert_time : timestamp\n  update_time : timestamp\n}\n\nentity \&quot;manage_step\&quot; as manage_step {\n  + id : BIGSERIAL (PK)\n  --\n  unimap_version : character varying(64) (FK)\n  project_name : text\n  step_name : character varying(64)\n  step_version : character varying(64)\n  source_cos_bucket : character varying(64)\n  source_cos_path : text\n  dest_cos_path : text\n  stream_flag : smallint\n  status : int\n  context : json\n  memo : text\n  insert_time : timestamp\n  update_time : timestamp\n}\n\nentity \&quot;project_cos_info\&quot; as project_cos_info {\n  + project_name : character varying(64) (PK)\n  --\n  bucket : character varying(64)\n  region : character varying(64)\n  url : character varying(256)\n}\n\nmanage_total ||--o{ manage_step : 1..*\n@enduml&quot;,&#xa;  &quot;format&quot;: &quot;svg&quot;&#xa;}" id="zei18qLpZ5uCgYsGJSXf-1">
          <mxCell style="shape=image;noLabel=1;verticalAlign=top;aspect=fixed;imageAspect=0;image=data:image/svg+xml,PD94bWwgdmVyc2lvbj0iMS4wIiBlbmNvZGluZz0idXMtYXNjaWkiIHN0YW5kYWxvbmU9Im5vIj8+PHN2ZyB4bWxucz0iaHR0cDovL3d3dy53My5vcmcvMjAwMC9zdmciIHhtbG5zOnhsaW5rPSJodHRwOi8vd3d3LnczLm9yZy8xOTk5L3hsaW5rIiBjb250ZW50U3R5bGVUeXBlPSJ0ZXh0L2NzcyIgaGVpZ2h0PSI1NzRweCIgcHJlc2VydmVBc3BlY3RSYXRpbz0ibm9uZSIgc3R5bGU9IndpZHRoOjY4NXB4O2hlaWdodDo1NzRweDtiYWNrZ3JvdW5kOiNGRkZGRkY7IiB2ZXJzaW9uPSIxLjEiIHZpZXdCb3g9IjAgMCA2ODUgNTc0IiB3aWR0aD0iNjg1cHgiIHpvb21BbmRQYW49Im1hZ25pZnkiPjxkZWZzLz48Zz48IS0tY2xhc3MgbWFuYWdlX3RvdGFsLS0+PGcgaWQ9ImVsZW1fbWFuYWdlX3RvdGFsIj48cmVjdCBjb2RlTGluZT0iMSIgZmlsbD0iI0YxRjFGMSIgaGVpZ2h0PSIyMjcuODEyNSIgaWQ9Im1hbmFnZV90b3RhbCIgcng9IjIuNSIgcnk9IjIuNSIgc3R5bGU9InN0cm9rZTojMTgxODE4O3N0cm9rZS13aWR0aDowLjU7IiB3aWR0aD0iMzE4IiB4PSI3IiB5PSI3Ii8+PGVsbGlwc2UgY3g9IjExOS4yNSIgY3k9IjIzIiBmaWxsPSIjQUREMUIyIiByeD0iMTEiIHJ5PSIxMSIgc3R5bGU9InN0cm9rZTojMTgxODE4O3N0cm9rZS13aWR0aDoxLjA7Ii8+PHBhdGggZD0iTTEyMi44NzUsMjkgTDEyMi44NzUsMjcuMjUgTDExNy41NjI1LDI3LjI1IFExMTcuNTYyNSwyNy4yNSAxMTcuNTYyNSwyMy42ODc1IEwxMjEuODEyNSwyMy42ODc1IEwxMjEuODEyNSwyMS45Mzc1IEwxMTcuNTYyNSwyMS45Mzc1IEwxMTcuNTYyNSwxOS40Mzc1IEwxMjIuODc1LDE5LjQzNzUgTDEyMi44NzUsMTcuNjg3NSBMMTE1LjgxMjUsMTcuNjg3NSBRMTE1LjgxMjUsMTcuNjg3NSAxMTUuODEyNSwyOSBMMTIyLjg3NSwyOSBaICIgZmlsbD0iIzAwMDAwMCIvPjx0ZXh0IGZpbGw9IiMwMDAwMDAiIGZvbnQtZmFtaWx5PSJzYW5zLXNlcmlmIiBmb250LXNpemU9IjE0IiBsZW5ndGhBZGp1c3Q9InNwYWNpbmciIHRleHRMZW5ndGg9Ijg1IiB4PSIxMzkuNzUiIHk9IjI4Ljc0MjIiPm1hbmFnZV90b3RhbDwvdGV4dD48bGluZSBzdHlsZT0ic3Ryb2tlOiMxODE4MTg7c3Ryb2tlLXdpZHRoOjAuNTsiIHgxPSI4IiB4Mj0iMzI0IiB5MT0iMzkiIHkyPSIzOSIvPjxlbGxpcHNlIGN4PSIxOCIgY3k9IjUxLjk5MjIiIGZpbGw9IiM4NEJFODQiIHJ4PSIzIiByeT0iMyIgc3R5bGU9InN0cm9rZTojMDM4MDQ4O3N0cm9rZS13aWR0aDoxLjA7Ii8+PHRleHQgZmlsbD0iIzAwMDAwMCIgZm9udC1mYW1pbHk9InNhbnMtc2VyaWYiIGZvbnQtc2l6ZT0iMTQiIGxlbmd0aEFkanVzdD0ic3BhY2luZyIgdGV4dExlbmd0aD0iMTM1IiB4PSIyNyIgeT0iNTYuMjM0NCI+aWQgOiBCSUdTRVJJQUwgKFBLKTwvdGV4dD48bGluZSBzdHlsZT0ic3Ryb2tlOiMxODE4MTg7c3Ryb2tlLXdpZHRoOjEuMDsiIHgxPSI4IiB4Mj0iMzI0IiB5MT0iNjEuOTg0NCIgeTI9IjYxLjk4NDQiLz48dGV4dCBmaWxsPSIjMDAwMDAwIiBmb250LWZhbWlseT0ic2Fucy1zZXJpZiIgZm9udC1zaXplPSIxNCIgbGVuZ3RoQWRqdXN0PSJzcGFjaW5nIiB0ZXh0TGVuZ3RoPSIzMDYiIHg9IjEzIiB5PSI3OS4yMTg4Ij51bmltYXBfdmVyc2lvbiA6IGNoYXJhY3RlciB2YXJ5aW5nKDY0KSAoVVEpPC90ZXh0Pjx0ZXh0IGZpbGw9IiMwMDAwMDAiIGZvbnQtZmFtaWx5PSJzYW5zLXNlcmlmIiBmb250LXNpemU9IjE0IiBsZW5ndGhBZGp1c3Q9InNwYWNpbmciIHRleHRMZW5ndGg9IjI0MCIgeD0iMTMiIHk9Ijk0LjIwMzEiPnJlbGVhc2VfaWQgOiBjaGFyYWN0ZXIgdmFyeWluZyg2NCk8L3RleHQ+PHRleHQgZmlsbD0iIzAwMDAwMCIgZm9udC1mYW1pbHk9InNhbnMtc2VyaWYiIGZvbnQtc2l6ZT0iMTQiIGxlbmd0aEFkanVzdD0ic3BhY2luZyIgdGV4dExlbmd0aD0iMTM0IiB4PSIxMyIgeT0iMTA5LjE4NzUiPnByb2plY3RfbmFtZSA6IHRleHQ8L3RleHQ+PHRleHQgZmlsbD0iIzAwMDAwMCIgZm9udC1mYW1pbHk9InNhbnMtc2VyaWYiIGZvbnQtc2l6ZT0iMTQiIGxlbmd0aEFkanVzdD0ic3BhY2luZyIgdGV4dExlbmd0aD0iMjQwIiB4PSIxMyIgeT0iMTI0LjE3MTkiPmNvc19idWNrZXQgOiBjaGFyYWN0ZXIgdmFyeWluZyg2NCk8L3RleHQ+PHRleHQgZmlsbD0iIzAwMDAwMCIgZm9udC1mYW1pbHk9InNhbnMtc2VyaWYiIGZvbnQtc2l6ZT0iMTQiIGxlbmd0aEFkanVzdD0ic3BhY2luZyIgdGV4dExlbmd0aD0iMTA1IiB4PSIxMyIgeT0iMTM5LjE1NjMiPmNvc19wYXRoIDogdGV4dDwvdGV4dD48dGV4dCBmaWxsPSIjMDAwMDAwIiBmb250LWZhbWlseT0ic2Fucy1zZXJpZiIgZm9udC1zaXplPSIxNCIgbGVuZ3RoQWRqdXN0PSJzcGFjaW5nIiB0ZXh0TGVuZ3RoPSIxMjgiIHg9IjEzIiB5PSIxNTQuMTQwNiI+dGltZXN0YW1wIDogYmlnaW50PC90ZXh0Pjx0ZXh0IGZpbGw9IiMwMDAwMDAiIGZvbnQtZmFtaWx5PSJzYW5zLXNlcmlmIiBmb250LXNpemU9IjE0IiBsZW5ndGhBZGp1c3Q9InNwYWNpbmciIHRleHRMZW5ndGg9Ijg0IiB4PSIxMyIgeT0iMTY5LjEyNSI+c3RhdHVzIDogaW50PC90ZXh0Pjx0ZXh0IGZpbGw9IiMwMDAwMDAiIGZvbnQtZmFtaWx5PSJzYW5zLXNlcmlmIiBmb250LXNpemU9IjE0IiBsZW5ndGhBZGp1c3Q9InNwYWNpbmciIHRleHRMZW5ndGg9Ijk4IiB4PSIxMyIgeT0iMTg0LjEwOTQiPmNvbnRleHQgOiBqc29uPC90ZXh0Pjx0ZXh0IGZpbGw9IiMwMDAwMDAiIGZvbnQtZmFtaWx5PSJzYW5zLXNlcmlmIiBmb250LXNpemU9IjE0IiBsZW5ndGhBZGp1c3Q9InNwYWNpbmciIHRleHRMZW5ndGg9Ijc5IiB4PSIxMyIgeT0iMTk5LjA5MzgiPm1lbW8gOiB0ZXh0PC90ZXh0Pjx0ZXh0IGZpbGw9IiMwMDAwMDAiIGZvbnQtZmFtaWx5PSJzYW5zLXNlcmlmIiBmb250LXNpemU9IjE0IiBsZW5ndGhBZGp1c3Q9InNwYWNpbmciIHRleHRMZW5ndGg9IjE2NCIgeD0iMTMiIHk9IjIxNC4wNzgxIj5pbnNlcnRfdGltZSA6IHRpbWVzdGFtcDwvdGV4dD48dGV4dCBmaWxsPSIjMDAwMDAwIiBmb250LWZhbWlseT0ic2Fucy1zZXJpZiIgZm9udC1zaXplPSIxNCIgbGVuZ3RoQWRqdXN0PSJzcGFjaW5nIiB0ZXh0TGVuZ3RoPSIxNjQiIHg9IjEzIiB5PSIyMjkuMDYyNSI+dXBkYXRlX3RpbWUgOiB0aW1lc3RhbXA8L3RleHQ+PC9nPjwhLS1jbGFzcyBtYW5hZ2Vfc3RlcC0tPjxnIGlkPSJlbGVtX21hbmFnZV9zdGVwIj48cmVjdCBjb2RlTGluZT0iMTciIGZpbGw9IiNGMUYxRjEiIGhlaWdodD0iMjU3Ljc4MTMiIGlkPSJtYW5hZ2Vfc3RlcCIgcng9IjIuNSIgcnk9IjIuNSIgc3R5bGU9InN0cm9rZTojMTgxODE4O3N0cm9rZS13aWR0aDowLjU7IiB3aWR0aD0iMzE4IiB4PSI3IiB5PSIzMTAiLz48ZWxsaXBzZSBjeD0iMTIyLjc1IiBjeT0iMzI2IiBmaWxsPSIjQUREMUIyIiByeD0iMTEiIHJ5PSIxMSIgc3R5bGU9InN0cm9rZTojMTgxODE4O3N0cm9rZS13aWR0aDoxLjA7Ii8+PHBhdGggZD0iTTEyNi4zNzUsMzMyIEwxMjYuMzc1LDMzMC4yNSBMMTIxLjA2MjUsMzMwLjI1IFExMjEuMDYyNSwzMzAuMjUgMTIxLjA2MjUsMzI2LjY4NzUgTDEyNS4zMTI1LDMyNi42ODc1IEwxMjUuMzEyNSwzMjQuOTM3NSBMMTIxLjA2MjUsMzI0LjkzNzUgTDEyMS4wNjI1LDMyMi40Mzc1IEwxMjYuMzc1LDMyMi40Mzc1IEwxMjYuMzc1LDMyMC42ODc1IEwxMTkuMzEyNSwzMjAuNjg3NSBRMTE5LjMxMjUsMzIwLjY4NzUgMTE5LjMxMjUsMzMyIEwxMjYuMzc1LDMzMiBaICIgZmlsbD0iIzAwMDAwMCIvPjx0ZXh0IGZpbGw9IiMwMDAwMDAiIGZvbnQtZmFtaWx5PSJzYW5zLXNlcmlmIiBmb250LXNpemU9IjE0IiBsZW5ndGhBZGp1c3Q9InNwYWNpbmciIHRleHRMZW5ndGg9Ijc4IiB4PSIxNDMuMjUiIHk9IjMzMS43NDIyIj5tYW5hZ2Vfc3RlcDwvdGV4dD48bGluZSBzdHlsZT0ic3Ryb2tlOiMxODE4MTg7c3Ryb2tlLXdpZHRoOjAuNTsiIHgxPSI4IiB4Mj0iMzI0IiB5MT0iMzQyIiB5Mj0iMzQyIi8+PGVsbGlwc2UgY3g9IjE4IiBjeT0iMzU0Ljk5MjIiIGZpbGw9IiM4NEJFODQiIHJ4PSIzIiByeT0iMyIgc3R5bGU9InN0cm9rZTojMDM4MDQ4O3N0cm9rZS13aWR0aDoxLjA7Ii8+PHRleHQgZmlsbD0iIzAwMDAwMCIgZm9udC1mYW1pbHk9InNhbnMtc2VyaWYiIGZvbnQtc2l6ZT0iMTQiIGxlbmd0aEFkanVzdD0ic3BhY2luZyIgdGV4dExlbmd0aD0iMTM1IiB4PSIyNyIgeT0iMzU5LjIzNDQiPmlkIDogQklHU0VSSUFMIChQSyk8L3RleHQ+PGxpbmUgc3R5bGU9InN0cm9rZTojMTgxODE4O3N0cm9rZS13aWR0aDoxLjA7IiB4MT0iOCIgeDI9IjMyNCIgeTE9IjM2NC45ODQ0IiB5Mj0iMzY0Ljk4NDQiLz48dGV4dCBmaWxsPSIjMDAwMDAwIiBmb250LWZhbWlseT0ic2Fucy1zZXJpZiIgZm9udC1zaXplPSIxNCIgbGVuZ3RoQWRqdXN0PSJzcGFjaW5nIiB0ZXh0TGVuZ3RoPSIzMDYiIHg9IjEzIiB5PSIzODIuMjE4OCI+dW5pbWFwX3ZlcnNpb24gOiBjaGFyYWN0ZXIgdmFyeWluZyg2NCkgKEZLKTwvdGV4dD48dGV4dCBmaWxsPSIjMDAwMDAwIiBmb250LWZhbWlseT0ic2Fucy1zZXJpZiIgZm9udC1zaXplPSIxNCIgbGVuZ3RoQWRqdXN0PSJzcGFjaW5nIiB0ZXh0TGVuZ3RoPSIxMzQiIHg9IjEzIiB5PSIzOTcuMjAzMSI+cHJvamVjdF9uYW1lIDogdGV4dDwvdGV4dD48dGV4dCBmaWxsPSIjMDAwMDAwIiBmb250LWZhbWlseT0ic2Fucy1zZXJpZiIgZm9udC1zaXplPSIxNCIgbGVuZ3RoQWRqdXN0PSJzcGFjaW5nIiB0ZXh0TGVuZ3RoPSIyMzQiIHg9IjEzIiB5PSI0MTIuMTg3NSI+c3RlcF9uYW1lIDogY2hhcmFjdGVyIHZhcnlpbmcoNjQpPC90ZXh0Pjx0ZXh0IGZpbGw9IiMwMDAwMDAiIGZvbnQtZmFtaWx5PSJzYW5zLXNlcmlmIiBmb250LXNpemU9IjE0IiBsZW5ndGhBZGp1c3Q9InNwYWNpbmciIHRleHRMZW5ndGg9IjI1NCIgeD0iMTMiIHk9IjQyNy4xNzE5Ij5zdGVwX3ZlcnNpb24gOiBjaGFyYWN0ZXIgdmFyeWluZyg2NCk8L3RleHQ+PHRleHQgZmlsbD0iIzAwMDAwMCIgZm9udC1mYW1pbHk9InNhbnMtc2VyaWYiIGZvbnQtc2l6ZT0iMTQiIGxlbmd0aEFkanVzdD0ic3BhY2luZyIgdGV4dExlbmd0aD0iMjg5IiB4PSIxMyIgeT0iNDQyLjE1NjMiPnNvdXJjZV9jb3NfYnVja2V0IDogY2hhcmFjdGVyIHZhcnlpbmcoNjQpPC90ZXh0Pjx0ZXh0IGZpbGw9IiMwMDAwMDAiIGZvbnQtZmFtaWx5PSJzYW5zLXNlcmlmIiBmb250LXNpemU9IjE0IiBsZW5ndGhBZGp1c3Q9InNwYWNpbmciIHRleHRMZW5ndGg9IjE1NCIgeD0iMTMiIHk9IjQ1Ny4xNDA2Ij5zb3VyY2VfY29zX3BhdGggOiB0ZXh0PC90ZXh0Pjx0ZXh0IGZpbGw9IiMwMDAwMDAiIGZvbnQtZmFtaWx5PSJzYW5zLXNlcmlmIiBmb250LXNpemU9IjE0IiBsZW5ndGhBZGp1c3Q9InNwYWNpbmciIHRleHRMZW5ndGg9IjE0MCIgeD0iMTMiIHk9IjQ3Mi4xMjUiPmRlc3RfY29zX3BhdGggOiB0ZXh0PC90ZXh0Pjx0ZXh0IGZpbGw9IiMwMDAwMDAiIGZvbnQtZmFtaWx5PSJzYW5zLXNlcmlmIiBmb250LXNpemU9IjE0IiBsZW5ndGhBZGp1c3Q9InNwYWNpbmciIHRleHRMZW5ndGg9IjE1NiIgeD0iMTMiIHk9IjQ4Ny4xMDk0Ij5zdHJlYW1fZmxhZyA6IHNtYWxsaW50PC90ZXh0Pjx0ZXh0IGZpbGw9IiMwMDAwMDAiIGZvbnQtZmFtaWx5PSJzYW5zLXNlcmlmIiBmb250LXNpemU9IjE0IiBsZW5ndGhBZGp1c3Q9InNwYWNpbmciIHRleHRMZW5ndGg9Ijg0IiB4PSIxMyIgeT0iNTAyLjA5MzgiPnN0YXR1cyA6IGludDwvdGV4dD48dGV4dCBmaWxsPSIjMDAwMDAwIiBmb250LWZhbWlseT0ic2Fucy1zZXJpZiIgZm9udC1zaXplPSIxNCIgbGVuZ3RoQWRqdXN0PSJzcGFjaW5nIiB0ZXh0TGVuZ3RoPSI5OCIgeD0iMTMiIHk9IjUxNy4wNzgxIj5jb250ZXh0IDoganNvbjwvdGV4dD48dGV4dCBmaWxsPSIjMDAwMDAwIiBmb250LWZhbWlseT0ic2Fucy1zZXJpZiIgZm9udC1zaXplPSIxNCIgbGVuZ3RoQWRqdXN0PSJzcGFjaW5nIiB0ZXh0TGVuZ3RoPSI3OSIgeD0iMTMiIHk9IjUzMi4wNjI1Ij5tZW1vIDogdGV4dDwvdGV4dD48dGV4dCBmaWxsPSIjMDAwMDAwIiBmb250LWZhbWlseT0ic2Fucy1zZXJpZiIgZm9udC1zaXplPSIxNCIgbGVuZ3RoQWRqdXN0PSJzcGFjaW5nIiB0ZXh0TGVuZ3RoPSIxNjQiIHg9IjEzIiB5PSI1NDcuMDQ2OSI+aW5zZXJ0X3RpbWUgOiB0aW1lc3RhbXA8L3RleHQ+PHRleHQgZmlsbD0iIzAwMDAwMCIgZm9udC1mYW1pbHk9InNhbnMtc2VyaWYiIGZvbnQtc2l6ZT0iMTQiIGxlbmd0aEFkanVzdD0ic3BhY2luZyIgdGV4dExlbmd0aD0iMTY0IiB4PSIxMyIgeT0iNTYyLjAzMTMiPnVwZGF0ZV90aW1lIDogdGltZXN0YW1wPC90ZXh0PjwvZz48IS0tY2xhc3MgcHJvamVjdF9jb3NfaW5mby0tPjxnIGlkPSJlbGVtX3Byb2plY3RfY29zX2luZm8iPjxyZWN0IGNvZGVMaW5lPSIzNSIgZmlsbD0iI0YxRjFGMSIgaGVpZ2h0PSIxMDcuOTM3NSIgaWQ9InByb2plY3RfY29zX2luZm8iIHJ4PSIyLjUiIHJ5PSIyLjUiIHN0eWxlPSJzdHJva2U6IzE4MTgxODtzdHJva2Utd2lkdGg6MC41OyIgd2lkdGg9IjMxOCIgeD0iMzYwIiB5PSI2NyIvPjxlbGxpcHNlIGN4PSI0NTguNzUiIGN5PSI4MyIgZmlsbD0iI0FERDFCMiIgcng9IjExIiByeT0iMTEiIHN0eWxlPSJzdHJva2U6IzE4MTgxODtzdHJva2Utd2lkdGg6MS4wOyIvPjxwYXRoIGQ9Ik00NjIuMzc1LDg5IEw0NjIuMzc1LDg3LjI1IEw0NTcuMDYyNSw4Ny4yNSBRNDU3LjA2MjUsODcuMjUgNDU3LjA2MjUsODMuNjg3NSBMNDYxLjMxMjUsODMuNjg3NSBMNDYxLjMxMjUsODEuOTM3NSBMNDU3LjA2MjUsODEuOTM3NSBMNDU3LjA2MjUsNzkuNDM3NSBMNDYyLjM3NSw3OS40Mzc1IEw0NjIuMzc1LDc3LjY4NzUgTDQ1NS4zMTI1LDc3LjY4NzUgUTQ1NS4zMTI1LDc3LjY4NzUgNDU1LjMxMjUsODkgTDQ2Mi4zNzUsODkgWiAiIGZpbGw9IiMwMDAwMDAiLz48dGV4dCBmaWxsPSIjMDAwMDAwIiBmb250LWZhbWlseT0ic2Fucy1zZXJpZiIgZm9udC1zaXplPSIxNCIgbGVuZ3RoQWRqdXN0PSJzcGFjaW5nIiB0ZXh0TGVuZ3RoPSIxMTIiIHg9IjQ3OS4yNSIgeT0iODguNzQyMiI+cHJvamVjdF9jb3NfaW5mbzwvdGV4dD48bGluZSBzdHlsZT0ic3Ryb2tlOiMxODE4MTg7c3Ryb2tlLXdpZHRoOjAuNTsiIHgxPSIzNjEiIHgyPSI2NzciIHkxPSI5OSIgeTI9Ijk5Ii8+PGVsbGlwc2UgY3g9IjM3MSIgY3k9IjExMS45OTIyIiBmaWxsPSIjODRCRTg0IiByeD0iMyIgcnk9IjMiIHN0eWxlPSJzdHJva2U6IzAzODA0ODtzdHJva2Utd2lkdGg6MS4wOyIvPjx0ZXh0IGZpbGw9IiMwMDAwMDAiIGZvbnQtZmFtaWx5PSJzYW5zLXNlcmlmIiBmb250LXNpemU9IjE0IiBsZW5ndGhBZGp1c3Q9InNwYWNpbmciIHRleHRMZW5ndGg9IjI5MiIgeD0iMzgwIiB5PSIxMTYuMjM0NCI+cHJvamVjdF9uYW1lIDogY2hhcmFjdGVyIHZhcnlpbmcoNjQpIChQSyk8L3RleHQ+PGxpbmUgc3R5bGU9InN0cm9rZTojMTgxODE4O3N0cm9rZS13aWR0aDoxLjA7IiB4MT0iMzYxIiB4Mj0iNjc3IiB5MT0iMTIxLjk4NDQiIHkyPSIxMjEuOTg0NCIvPjx0ZXh0IGZpbGw9IiMwMDAwMDAiIGZvbnQtZmFtaWx5PSJzYW5zLXNlcmlmIiBmb250LXNpemU9IjE0IiBsZW5ndGhBZGp1c3Q9InNwYWNpbmciIHRleHRMZW5ndGg9IjIxMiIgeD0iMzY2IiB5PSIxMzkuMjE4OCI+YnVja2V0IDogY2hhcmFjdGVyIHZhcnlpbmcoNjQpPC90ZXh0Pjx0ZXh0IGZpbGw9IiMwMDAwMDAiIGZvbnQtZmFtaWx5PSJzYW5zLXNlcmlmIiBmb250LXNpemU9IjE0IiBsZW5ndGhBZGp1c3Q9InNwYWNpbmciIHRleHRMZW5ndGg9IjIxMiIgeD0iMzY2IiB5PSIxNTQuMjAzMSI+cmVnaW9uIDogY2hhcmFjdGVyIHZhcnlpbmcoNjQpPC90ZXh0Pjx0ZXh0IGZpbGw9IiMwMDAwMDAiIGZvbnQtZmFtaWx5PSJzYW5zLXNlcmlmIiBmb250LXNpemU9IjE0IiBsZW5ndGhBZGp1c3Q9InNwYWNpbmciIHRleHRMZW5ndGg9IjE5OCIgeD0iMzY2IiB5PSIxNjkuMTg3NSI+dXJsIDogY2hhcmFjdGVyIHZhcnlpbmcoMjU2KTwvdGV4dD48L2c+PCEtLWxpbmsgbWFuYWdlX3RvdGFsIHRvIG1hbmFnZV9zdGVwLS0+PGcgaWQ9ImxpbmtfbWFuYWdlX3RvdGFsX21hbmFnZV9zdGVwIj48cGF0aCBjb2RlTGluZT0iNDMiIGQ9Ik0xNjYsMjQzLjE5IEMxNjYsMjY3LjM2IDE2NiwyNjcuMDYgMTY2LDI5MS43NiAiIGZpbGw9Im5vbmUiIGlkPSJtYW5hZ2VfdG90YWwtbWFuYWdlX3N0ZXAiIHN0eWxlPSJzdHJva2U6IzE4MTgxODtzdHJva2Utd2lkdGg6MS4wOyIvPjxsaW5lIHN0eWxlPSJzdHJva2U6IzE4MTgxODtzdHJva2Utd2lkdGg6MS4wOyIgeDE9IjE2MiIgeDI9IjE3MCIgeTE9IjIzOS4xOSIgeTI9IjIzOS4xOSIvPjxsaW5lIHN0eWxlPSJzdHJva2U6IzE4MTgxODtzdHJva2Utd2lkdGg6MS4wOyIgeDE9IjE2MiIgeDI9IjE3MCIgeTE9IjI0Mi4xOSIgeTI9IjI0Mi4xOSIvPjxsaW5lIHN0eWxlPSJzdHJva2U6IzE4MTgxODtzdHJva2Utd2lkdGg6MS4wOyIgeDE9IjE2NiIgeDI9IjE2NiIgeTE9IjI0My4xOSIgeTI9IjIzNS4xOSIvPjxsaW5lIHN0eWxlPSJzdHJva2U6IzE4MTgxODtzdHJva2Utd2lkdGg6MS4wOyIgeDE9IjE2NiIgeDI9IjE3MiIgeTE9IjMwMS43NiIgeTI9IjMwOS43NiIvPjxsaW5lIHN0eWxlPSJzdHJva2U6IzE4MTgxODtzdHJva2Utd2lkdGg6MS4wOyIgeDE9IjE2NiIgeDI9IjE2MCIgeTE9IjMwMS43NiIgeTI9IjMwOS43NiIvPjxsaW5lIHN0eWxlPSJzdHJva2U6IzE4MTgxODtzdHJva2Utd2lkdGg6MS4wOyIgeDE9IjE2NiIgeDI9IjE2NiIgeTE9IjMwMS43NiIgeTI9IjMwOS43NiIvPjxlbGxpcHNlIGN4PSIxNjYiIGN5PSIyOTUuNzYiIGZpbGw9Im5vbmUiIHJ4PSI0IiByeT0iNCIgc3R5bGU9InN0cm9rZTojMTgxODE4O3N0cm9rZS13aWR0aDoxLjA7Ii8+PHRleHQgZmlsbD0iIzAwMDAwMCIgZm9udC1mYW1pbHk9InNhbnMtc2VyaWYiIGZvbnQtc2l6ZT0iMTMiIGxlbmd0aEFkanVzdD0ic3BhY2luZyIgdGV4dExlbmd0aD0iMjUiIHg9IjE2NyIgeT0iMjc4LjI4OTEiPjEuLio8L3RleHQ+PC9nPjwhLS1TUkM9W2xQREZKbThuNENObFY4ZTlmcU1wOTFoYm00cUpER0dGX2VkZFBZWjNLam9zY3RRTUlDM2xSZWlJVGM0MTN5UkI5bEZoY3NkeE5mU0NBcnYwTXdGMVowSFJuaG1Ed0E0QU9EYTJFMFNyWFp4UzNYdlV4cnU2RHUtR0YwcXhXUVRmLTlINlFJcDRkOW5OcldJUGRBOTNvVUhXWmN3WEo5UnFoWmdHbDN0NzVhU3ZlSVVuN2pZZTNBQjJzSGI5NVdPcjFIZEoxbVNnaEhVWktodUo3c2NEZVc5dmtjclpmU2Fwd1lBV2FTZ0tZSjAwQmRxV3R3TXE5Z2YzRlZGTTFBMTlzLXE4UEptdjVkNUlYOWsxeVZCNTY5ZHNMcHZSQlFoUnd2Y0FnaGtuX1pqcHh1VTdWT2l4UlQwWHN6UVE0eGo0Y0lzVDlGNmg5MmhRVVkzWnU1NDN6a204alBaYWMwTmVEVVJ2bHNVckNKMlVKZmM5TkdVczJ0eklzcDd4RzMyTEI0eXd2WVd4UmRfZnlpUkxvLWpVOXJ3WnprRWtMY2JnYnhOZHJlVUJSbFZpMm0wMF0tLT48L2c+PC9zdmc+;" vertex="1" parent="1">
            <mxGeometry x="70" y="120" width="685" height="574" as="geometry" />
          </mxCell>
        </UserObject>
      </root>
    </mxGraphModel>
  </diagram>
</mxfile>
